{
.appVersion = "3151";
.formatVersion = 3;
customParameters = (
{
name = blueScale;
value = 0.01627;
}
);
date = "2023-05-13 22:00:00 +0000";
familyName = "ET Book";
featurePrefixes = (
{
automatic = 1;
code = "languagesystem DFLT dflt;

languagesystem latn dflt;
";
name = Languagesystems;
}
);
features = (
{
automatic = 1;
code = "feature subs;
feature sinf;
feature sups;
feature frac;
feature ordn;
feature tnum;
feature c2sc;
feature smcp;
feature case;
";
tag = aalt;
},
{
automatic = 1;
code = "lookup ccmp_latn_1 {
	sub fi by f i;
	sub fl by f l;
} ccmp_latn_1;

script latn;
lookup ccmp_latn_1;
";
tag = ccmp;
},
{
automatic = 1;
code = "sub zero by zeroinferior;
sub one by oneinferior;
sub two by twoinferior;
sub three by threeinferior;
sub four by fourinferior;
sub five by fiveinferior;
sub six by sixinferior;
sub seven by seveninferior;
sub eight by eightinferior;
sub nine by nineinferior;
";
tag = subs;
},
{
automatic = 1;
code = "sub zero by zeroinferior;
sub one by oneinferior;
sub two by twoinferior;
sub three by threeinferior;
sub four by fourinferior;
sub five by fiveinferior;
sub six by sixinferior;
sub seven by seveninferior;
sub eight by eightinferior;
sub nine by nineinferior;
";
tag = sinf;
},
{
automatic = 1;
code = "sub zero by zerosuperior;
sub one by onesuperior;
sub two by twosuperior;
sub three by threesuperior;
sub four by foursuperior;
sub five by fivesuperior;
sub six by sixsuperior;
sub seven by sevensuperior;
sub eight by eightsuperior;
sub nine by ninesuperior;
";
tag = sups;
},
{
automatic = 1;
code = "sub one slash eight by oneeighth;
sub one slash four by onequarter;
sub three slash eight by threeeighths;
sub one slash two by onehalf;
sub five slash eight by fiveeighths;
sub three slash four by threequarters;
sub seven slash eight by seveneighths;
sub one slash three by onethird;
sub two slash three by twothirds;
";
tag = frac;
},
{
automatic = 1;
code = "sub [zero one two three four five six seven eight nine] [A a]' by ordfeminine;

glyphs = (
{
glyphname = A;
lastChange = "2023-05-15 06:48:58 +0000";
layers = (
{
hints = (
{
horizontal = 1;
place = (-3, 33);
place = (-3, 33);
type = Stem;
},
{
horizontal = 1;
place = (283, 57);
place = (283, 57);
type = Stem;
},
{
horizontal = 1;
place = (672, -20);
target = down;
type = TopGhost;
}
);
layerId = m01;
shapes = (
{
closed = 1;
nodes = (
(695,-5,o),
(694,30,o),
(682,30,c),
(675,30,l),
(629,30,o),
(619,43,o),
(602,89,c),
(593,115,o),
(584,141,o),
(574,167,c),
(552,225,o),
(505,351,o),
(387,662,c),
(379,674,o),
(348,672,o),
(335,672,c),
(330,672,o),
(295,674,o),
(298,664,c),
(305,638,l),
(117,127,l),
(113,116,o),
(107,101,o),
(101,86,c),
(94,70,o),
(88,56,o),
(81,48,c),
(67,32,o),
(43,33,o),
(23,33,c),
(19,33,o),
(15,32,o),
(14,27,c),
(12,18,o),
(11,-1,o),
(23,-3,c),
(27,-3,o),
(30,-3,o),
(34,-3,c),
(88,0,o),
(191,-2,o),
(251,-3,c),
(254,-3,o),
(257,6,o),
(258,14,c),
(258,22,o),
(256,32,o),
(251,33,c),
(235,35,o),
(229,31,o),
(214,32,c),
(171,33,o),
(157,42,o),
(157,59,c),
(157,68,o),
(160,81,o),
(165,93,c),
(182,133,o),
(214,218,o),
(229,266,c),
(235,274,o),
(240,283,o),
(253,283,c),
(292,282,o),
(366,281,o),
(406,283,c),
(415,284,o),
(431,278,o),
(434,270,c),
(458,206,o),
(478,151,o),
(502,87,c),
(516,50,o),
(508,35,o),
(466,33,c),
(455,32,o),
(439,33,o),
(420,33,c),
(409,33,o),
(402,32,o),
(402,17,c),
(402,13,o),
(402,8,o),
(403,5,c),
(405,-1,o),
(408,-3,o),
(414,-3,c),
(485,-1,o),
(617,-1,o),
(682,-4,c)
);
},
{
closed = 1;
nodes = (
(266,343,o),
(259,345,o),
(261,355,c),
(278,399,o),
(312,489,o),
(328,540,c),
(331,547,o),
(339,544,o),
(341,537,c),
(356,488,o),
(386,399,o),
(402,355,c),
(405,348,o),
(400,340,o),
(394,340,c),
(365,339,o),
(305,339,o),
(273,340,c)
);
}
);
width = 711;
}
);
unicode = 65;
},
{
glyphname = Aacute;
lastChange = "2023-05-15 06:06:40 +0000";
layers = (
{
hints = (
{
horizontal = 1;
place = (885, -20);
target = down;
type = TopGhost;
},
{
horizontal = 1;
place = (-3, 33);
place = (-3, 33);
type = Stem;
},
{
horizontal = 1;
place = (283, 57);
place = (283, 57);
type = Stem;
},
{
horizontal = 1;
place = (672, -20);
target = down;
type = TopGhost;
},
{
horizontal = 1;
place = (884, -20);
target = down;
type = TopGhost;
}
);
layerId = m01;
shapes = (
{
closed = 1;
nodes = (
(695,-5,o),
(694,30,o),
(682,30,c),
(675,30,l),
(629,30,o),
(619,43,o),
(602,89,c),
(593,115,o),
(584,141,o),
(574,167,c),
(552,225,o),
(505,351,o),
(387,662,c),
(379,674,o),
(348,672,o),
(335,672,c),
(330,672,o),
(295,674,o),
(298,664,c),
(305,638,l),
(117,127,l),
(113,116,o),
(107,101,o),
(101,86,c),
(94,70,o),
(88,56,o),
(81,48,c),
(67,32,o),
(43,33,o),
(23,33,c),
(19,33,o),
(15,32,o),
(14,27,c),
(12,18,o),
(11,-1,o),
(23,-3,c),
(27,-3,o),
(30,-3,o),
(34,-3,c),
(88,0,o),
(191,-2,o),
(250,-3,c),
(254,-3,o),
(257,6,o),
(258,14,c),
(258,22,o),
(256,32,o),
(251,33,c),
(235,35,o),
(229,31,o),
(214,32,c),
(171,33,o),
(157,42,o),
(157,59,c),
(157,68,o),
(160,81,o),
(165,93,c),
(182,133,o),
(214,218,o),
(229,266,c),
(235,274,o),
(237,283,o),
(250,283,c),
(289,282,o),
(366,281,o),
(406,283,c),
(415,284,o),
(431,278,o),
(434,270,c),
(458,206,o),
(478,151,o),
(502,87,c),
(516,50,o),
(507,35,o),
(466,33,c),
(455,32,o),
(439,33,o),
(420,33,c),
(409,33,o),
(402,32,o),
(402,17,c),
(402,13,o),
(402,8,o),
(403,5,c),
(405,-1,o),
(408,-3,o),
(414,-3,c),
(485,-1,o),
(617,-1,o),
(682,-4,c)
);
},
{
closed = 1;
nodes = (
(266,343,o),
(259,345,o),
(261,355,c),
(278,399,o),
(312,489,o),
(328,540,c),
(331,547,o),
(339,544,o),
(341,537,c),
(356,488,o),
(386,399,o),
(402,355,c),
(405,347,o),
(400,340,o),
(394,340,c),
(365,339,o),
(305,339,o),
(273,340,c)
);
},
{
closed = 1;
nodes = (
(466,870,l),
(467,871,o),
(467,873,o),
(467,875,c),
(469,883,o),
(460,885,o),
(453,885,c),
(365,884,l),
(358,884,o),
(349,879,o),
(347,871,c),
(297,707,l),
(292,691,o),
(317,691,o),
(323,698,c)
);
}
);
width = 711;
}
);
unicode = 193;
},
{
glyphname = Acircumflex;
lastChange = "2023-05-15 06:06:40 +0000";
layers = (
{
hints = (
{
horizontal = 1;
place = (-3, 33);
place = (-3, 33);
type = Stem;
},
{
horizontal = 1;
place = (283, 57);
place = (283, 57);
type = Stem;
},
{
horizontal = 1;
place = (672, -20);
target = down;
type = TopGhost;
}
);
layerId = m01;
shapes = (
{
closed = 1;
nodes = (
(695,-5,o),
(694,30,o),
(682,30,c),
(675,30,l),
(629,30,o),
(620,43,o),
(603,89,c),
(594,115,o),
(584,141,o),
(574,167,c),
(552,225,o),
(505,351,o),
(387,662,c),
(380,674,o),
(348,672,o),
(336,672,c),
(330,672,o),
(295,674,o),
(298,664,c),
(305,638,l),
(117,127,l),
(113,116,o),
(108,101,o),
(102,86,c),
(95,70,o),
(88,56,o),
(81,48,c),
(67,32,o),
(43,33,o),
(24,33,c),
(19,33,o),
(15,32,o),
(14,27,c),
(12,18,o),
(11,-1,o),
(23,-3,c),
(27,-3,o),
(30,-3,o),
(34,-3,c),
(88,0,o),
(191,-2,o),
(251,-3,c),
(254,-3,o),
(257,6,o),
(258,14,c),
(258,22,o),
(256,32,o),
(251,33,c),
(235,35,o),
(229,32,o),
(215,32,c),
(171,34,o),
(157,42,o),
(157,59,c),
(157,68,o),
(161,81,o),
(166,93,c),
(182,133,o),
(214,218,o),
(229,266,c),
(235,274,o),
(238,283,o),
(250,283,c),
(289,282,o),
(367,281,o),
(406,283,c),
(415,284,o),
(431,278,o),
(434,270,c),
(458,206,o),
(478,151,o),
(502,87,c),
(516,50,o),
(508,35,o),
(467,33,c),
(455,32,o),
(440,33,o),
(420,33,c),
(409,33,o),
(402,32,o),
(402,17,c),
(402,13,o),
(402,8,o),
(403,5,c),
(405,-1,o),
(408,-3,o),
(415,-3,c),
(485,-1,o),
(617,-1,o),
(682,-4,c)
);
},
{
closed = 1;
nodes = (
(266,343,o),
(259,345,o),
(261,355,c),
(278,399,o),
(312,489,o),
(328,540,c),
(331,547,o),
(340,544,o),
(341,537,c),
(356,488,o),
(386,399,o),
(402,355,c),
(405,347,o),
(400,340,o),
(394,340,c),
(365,339,o),
(305,339,o),
(273,340,c)
);
},
{
closed = 1;
nodes = (
(499,697,o),
(497,704,o),
(494,709,c),
(406,861,l),
(402,869,o),
(399,870,o),
(389,871,c),
(376,872,o),
(322,871,o),
(314,870,c),
(309,868,o),
(304,865,o),
(301,860,c),
(212,704,l),
(208,696,o),
(228,691,o),
(236,698,c),
(351,802,l),
(473,698,l),
(476,695,o),
(486,694,o),
(493,696,c)
);
}
);
width = 711;
}
);
unicode = 194;
},
{
glyphname = Adieresis;
lastChange = "2023-05-15 06:06:40 +0000";
layers = (
{
hints = (
{
horizontal = 1;
place = (-3, 33);
place = (-3, 33);
type = Stem;
},
{
horizontal = 1;
place = (283, 57);
place = (283, 57);
type = Stem;
},
{
horizontal = 1;
place = (704, 120);
place = (704, 120);
type = Stem;
},
{
horizontal = 1;
place = (672, -20);
target = down;
type = TopGhost;
},
{
place = (206, 121);
place = (206, 121);
type = Stem;
},
{
place = (383, 121);
place = (383, 121);
type = Stem;
}
);
layerId = m01;
shapes = (
{
closed = 1;
nodes = (
(695,-5,o),
(694,30,o),
(682,30,c),
(675,30,l),
(629,30,o),
(619,43,o),
(602,89,c),
(593,115,o),
(584,141,o),
(574,167,c),
(552,225,o),
(505,351,o),
(387,662,c),
(379,674,o),
(348,672,o),
(335,672,c),
(330,672,o),
(295,674,o),
(298,664,c),
(305,638,l),
(117,127,l),
(113,116,o),
(107,101,o),
(101,86,c),
(94,70,o),
(88,56,o),
(81,48,c),
(67,32,o),
(43,33,o),
(23,33,c),
(19,33,o),
(15,32,o),
(14,27,c),
(12,18,o),
(11,-1,o),
(23,-3,c),
(27,-3,o),
(30,-3,o),
(34,-3,c),
(88,0,o),
(191,-2,o),
(250,-3,c),
(254,-3,o),
(257,6,o),
(258,14,c),
(258,22,o),
(256,32,o),
(251,33,c),
(235,35,o),
(229,31,o),
(214,32,c),
(171,33,o),
(157,42,o),
(157,59,c),
(157,68,o),
(160,81,o),
(165,93,c),
(182,133,o),
(214,218,o),
(229,266,c),
(235,274,o),
(237,283,o),
(250,283,c),
(289,282,o),
(366,281,o),
(406,283,c),
(415,284,o),
(431,278,o),
(434,270,c),
(458,206,o),
(478,151,o),
(502,87,c),
(516,50,o),
(507,35,o),
(466,33,c),
(455,32,o),
(439,33,o),
(420,33,c),
(409,33,o),
(402,32,o),
(402,17,c),
(402,13,o),
(402,8,o),
(403,5,c),
(405,-1,o),
(408,-3,o),
(414,-3,c),
(485,-1,o),
(617,-1,o),
(682,-4,c)
);
},
{
closed = 1;
nodes = (
(266,343,o),
(259,345,o),
(261,355,c),
(278,399,o),
(312,489,o),
(328,540,c),
(331,547,o),
(339,544,o),
(341,537,c),
(356,488,o),
(386,399,o),
(402,355,c),
(405,347,o),
(400,340,o),
(394,340,c),
(365,339,o),
(305,339,o),
(273,340,c)
);
},
{
closed = 1;
nodes = (
(299,704,o),
(327,730,o),
(327,764,c),
(327,797,o),
(299,824,o),
(266,824,c),
(233,824,o),
(206,797,o),
(206,764,c),
(206,730,o),
(233,704,o),
(266,704,c)
);
},
{
closed = 1;
nodes = (
(478,704,o),
(504,731,o),
(504,764,c),
(504,797,o),
(478,824,o),
(443,824,c),
(410,824,o),
(383,797,o),
(383,764,c),
(383,731,o),
(410,704,o),
(443,704,c)
);
}
);
width = 711;
}
);
unicode = 196;
},
{
glyphname = Agrave;
lastChange = "2023-05-15 06:06:40 +0000";
layers = (
{
hints = (
{
horizontal = 1;
place = (881, -20);
target = down;
type = TopGhost;
},
{
horizontal = 1;
place = (-3, 33);
place = (-3, 33);
type = Stem;
},
{
horizontal = 1;
place = (283, 57);
place = (283, 57);
type = Stem;
},
{
horizontal = 1;
place = (672, -20);
target = down;
type = TopGhost;
},
{
horizontal = 1;
place = (880, -20);
target = down;
type = TopGhost;
}
);
layerId = m01;
shapes = (
{
closed = 1;
nodes = (
(695,-5,o),
(694,30,o),
(682,30,c),
(675,30,l),
(629,30,o),
(619,43,o),
(602,89,c),
(593,115,o),
(584,141,o),
(574,167,c),
(552,225,o),
(505,351,o),
(387,662,c),
(379,674,o),
(348,672,o),
(335,672,c),
(330,672,o),
(295,674,o),
(298,664,c),
(305,638,l),
(117,127,l),
(113,116,o),
(107,101,o),
(101,86,c),
(94,70,o),
(88,56,o),
(81,48,c),
(67,32,o),
(43,33,o),
(23,33,c),
(19,33,o),
(15,32,o),
(14,27,c),
(12,18,o),
(11,-1,o),
(23,-3,c),
(27,-3,o),
(30,-3,o),
(34,-3,c),
(88,0,o),
(191,-2,o),
(250,-3,c),
(254,-3,o),
(257,6,o),
(258,14,c),
(258,22,o),
(256,32,o),
(251,33,c),
(235,35,o),
(229,31,o),
(214,32,c),
(171,33,o),
(157,42,o),
(157,59,c),
(157,68,o),
(160,81,o),
(165,93,c),
(182,133,o),
(214,218,o),
(229,266,c),
(235,274,o),
(237,283,o),
(250,283,c),
(289,282,o),
(366,281,o),
(406,283,c),
(415,284,o),
(431,278,o),
(434,270,c),
(458,206,o),
(478,151,o),
(502,87,c),
(516,50,o),
(507,35,o),
(466,33,c),
(455,32,o),
(439,33,o),
(420,33,c),
(409,33,o),
(402,32,o),
(402,17,c),
(402,13,o),
(402,8,o),
(403,5,c),
(405,-1,o),
(408,-3,o),
(414,-3,c),
(485,-1,o),
(617,-1,o),
(682,-4,c)
);
},
{
closed = 1;
nodes = (
(266,343,o),
(259,345,o),
(261,355,c),
(278,399,o),
(312,489,o),
(328,540,c),
(331,547,o),
(339,544,o),
(341,537,c),
(356,488,o),
(386,399,o),
(402,355,c),
(405,347,o),
(400,340,o),
(394,340,c),
(365,339,o),
(305,339,o),
(273,340,c)
);
},
{
closed = 1;
nodes = (
(391,696,o),
(409,697,o),
(409,710,c),
(398,753,o),
(376,828,o),
(359,873,c),
(355,881,o),
(349,881,o),
(340,881,c),
(264,880,l),
(251,880,o),
(243,867,o),
(249,861,c),
(292,814,o),
(351,745,o),
(383,703,c)
);
}
);
width = 711;
}
);
unicode = 192;
},
{
glyphname = Aring;
lastChange = "2023-05-15 06:06:40 +0000";
layers = (
{
hints = (
{
horizontal = 1;
place = (-3, 33);
place = (-3, 33);
type = Stem;
},
{
horizontal = 1;
place = (283, 57);
place = (283, 57);
type = Stem;
},
{
horizontal = 1;
place = (690, 47);
place = (690, 47);
type = Stem;
},
{
horizontal = 1;
place = (849, 47);
place = (849, 47);
type = Stem;
},
{
horizontal = 1;
place = (672, -20);
target = down;
type = TopGhost;
},
{
place = (246, 47);
place = (246, 47);
type = Stem;
},
{
place = (402, 48);
place = (402, 48);
type = Stem;
}
);
layerId = m01;
shapes = (
{
closed = 1;
nodes = (
(695,-5,o),
(694,30,o),
(682,30,c),
(675,30,l),
(629,30,o),
(619,43,o),
(602,89,c),
(593,115,o),
(584,141,o),
(574,167,c),
(552,225,o),
(505,351,o),
(387,662,c),
(379,674,o),
(348,672,o),
(335,672,c),
(330,672,o),
(295,674,o),
(298,664,c),
(305,638,l),
(117,127,l),
(113,116,o),
(107,101,o),
(101,86,c),
(94,70,o),
(88,56,o),
(81,48,c),
(67,32,o),
(43,33,o),
(23,33,c),
(19,33,o),
(15,32,o),
(14,27,c),
(12,18,o),
(11,-1,o),
(23,-3,c),
(27,-3,o),
(30,-3,o),
(34,-3,c),
(88,0,o),
(191,-2,o),
(250,-3,c),
(254,-3,o),
(257,6,o),
(258,14,c),
(258,22,o),
(256,32,o),
(251,33,c),
(235,35,o),
(229,31,o),
(214,32,c),
(171,33,o),
(157,42,o),
(157,59,c),
(157,68,o),
(160,81,o),
(165,93,c),
(182,133,o),
(214,218,o),
(229,266,c),
(235,274,o),
(237,283,o),
(250,283,c),
(289,282,o),
(366,281,o),
(406,283,c),
(415,284,o),
(431,278,o),
(434,270,c),
(458,206,o),
(478,151,o),
(502,87,c),
(516,50,o),
(507,35,o),
(466,33,c),
(455,32,o),
(439,33,o),
(420,33,c),
(409,33,o),
(402,32,o),
(402,17,c),
(402,13,o),
(402,8,o),
(403,5,c),
(405,-1,o),
(408,-3,o),
(414,-3,c),
(485,-1,o),
(617,-1,o),
(682,-4,c)
);
},
{
closed = 1;
nodes = (
(266,343,o),
(259,345,o),
(261,355,c),
(278,399,o),
(312,489,o),
(328,540,c),
(331,547,o),
(339,544,o),
(341,537,c),
(356,488,o),
(386,399,o),
(402,355,c),
(405,347,o),
(400,340,o),
(394,340,c),
(365,339,o),
(305,339,o),
(273,340,c)
);
},
{
closed = 1;
nodes = (
(404,690,o),
(450,736,o),
(450,793,c),
(450,850,o),
(404,896,o),
(349,896,c),
(292,896,o),
(246,850,o),
(246,793,c),
(246,736,o),
(292,690,o),
(349,690,c)
);
},
{
closed = 1;
nodes = (
(318,737,o),
(293,762,o),
(293,793,c),
(293,824,o),
(318,849,o),
(349,849,c),
(378,849,o),
(403,824,o),
(403,793,c),
(403,762,o),
(378,737,o),
(349,737,c)
);
}
);
width = 711;
}
);
unicode = 197;
},
{
glyphname = Atilde;
lastChange = "2023-05-15 06:06:40 +0000";
layers = (
{
hints = (
{
horizontal = 1;
place = (-3, 33);
place = (-3, 33);
type = Stem;
},
{
horizontal = 1;
place = (672, -20);
target = down;
type = TopGhost;
},
{
horizontal = 1;
place = (283, 57);
place = (283, 57);
type = Stem;
},
{
horizontal = 1;
place = (840, -20);
target = down;
type = TopGhost;
},
{
horizontal = 1;
place = (697, 71);
place = (697, 71);
type = Stem;
},
{
horizontal = 1;
place = (765, 70);
place = (765, 70);
type = Stem;
}
);
layerId = m01;
shapes = (
{
closed = 1;
nodes = (
(695,-5,o),
(694,30,o),
(682,30,c),
(675,30,l),
(629,30,o),
(619,43,o),
(602,89,c),
(593,115,o),
(584,141,o),
(574,167,c),
(552,225,o),
(505,351,o),
(387,662,c),
(379,674,o),
(348,672,o),
(335,672,c),
(330,672,o),
(295,674,o),
(298,664,c),
(305,638,l),
(117,127,l),
(113,116,o),
(107,101,o),
(101,86,c),
(94,70,o),
(88,56,o),
(81,48,c),
(67,32,o),
(43,33,o),
(23,33,c),
(19,33,o),
(15,32,o),
(14,27,c),
(12,18,o),
(11,-1,o),
(23,-3,c),
(27,-3,o),
(30,-3,o),
(34,-3,c),
(88,0,o),
(191,-2,o),
(250,-3,c),
(254,-3,o),
(257,6,o),
(258,14,c),
(258,22,o),
(256,32,o),
(251,33,c),
(235,35,o),
(229,31,o),
(214,32,c),
(171,33,o),
(157,42,o),
(157,59,c),
(157,68,o),
(160,81,o),
(165,93,c),
(182,133,o),
(214,218,o),
(229,266,c),
(235,274,o),
(237,283,o),
(250,283,c),
(289,282,o),
(366,281,o),
(406,283,c),
(415,284,o),
(431,278,o),
(434,270,c),
(458,206,o),
(478,151,o),
(502,87,c),
(516,50,o),
(507,35,o),
(466,33,c),
(455,32,o),
(439,33,o),
(420,33,c),
(409,33,o),
(402,32,o),
(402,17,c),
(402,13,o),
(402,8,o),
(403,5,c),
(405,-1,o),
(408,-3,o),
(414,-3,c),
(485,-1,o),
(617,-1,o),
(682,-4,c)
);
},
{
closed = 1;
nodes = (
(266,343,o),
(259,345,o),
(261,355,c),
(278,399,o),
(312,489,o),
(328,540,c),
(331,547,o),
(339,544,o),
(341,537,c),
(356,488,o),
(386,399,o),
(402,355,c),
(405,347,o),
(400,340,o),
(394,340,c),
(365,339,o),
(305,339,o),
(273,340,c)
);
},
{
closed = 1;
nodes = (
(463,697,o),
(504,750,o),
(504,821,c),
(504,824,o),
(504,828,o),
(502,834,c),
(502,838,o),
(496,841,o),
(490,840,c),
(484,840,o),
(477,838,o),
(477,834,c),
(469,780,o),
(458,768,o),
(437,768,c),
(425,768,o),
(409,774,o),
(378,795,c),
(333,826,o),
(310,835,o),
(280,835,c),
(219,835,o),
(186,786,o),
(182,700,c),
(184,687,o),
(205,692,o),
(209,700,c),
(210,710,o),
(212,714,o),
(212,718,c),
(220,754,o),
(230,765,o),
(249,765,c),
(262,765,o),
(271,762,o),
(308,736,c),
(346,710,o),
(378,697,o),
(405,697,c)
);
}
);
width = 711;
}
);
unicode = 195;
},
{
glyphname = AE;
lastChange = "2023-05-15 06:06:40 +0000";
layers = (
{
hints = (
{
horizontal = 1;
place = (-6, 51);
place = (-6, 51);
type = Stem;
},
{
place = (434, 97);
place = (434, 97);
type = Stem;
},
{
horizontal = 1;
place = (312, 51);
place = (312, 51);
type = Stem;
},
{
horizontal = 1;
place = (609, 49);
place = (609, 49);
type = Stem;
},
{
horizontal = 1;
place = (254, 50);
place = (254, 50);
type = Stem;
},
{
horizontal = 1;
place = (627, 31);
place = (627, 31);
type = Stem;
},
{
horizontal = 1;
place = (-6, 34);
place = (-6, 34);
type = Stem;
},
{
horizontal = 1;
place = (-4, 21);
target = up;
type = BottomGhost;
}
);
layerId = m01;
shapes = (
{
closed = 1;
nodes = (
(8,-2,o),
(115,-6,o),
(168,-6,c),
(178,-6,o),
(181,-3,o),
(180,5,c),
(179,19,l),
(179,24,o),
(177,28,o),
(167,28,c),
(115,28,o),
(103,40,o),
(103,56,c),
(103,64,o),
(104,73,o),
(126,109,c),
(207,242,l),
(212,250,o),
(215,254,o),
(227,254,c),
(420,254,l),
(432,254,o),
(434,244,o),
(434,236,c),
(434,135,l),
(433,99,l),
(432,47,o),
(402,28,o),
(354,30,c),
(323,31,l),
(312,31,o),
(300,30,o),
(300,17,c),
(300,7,l),
(299,-4,o),
(311,-4,o),
(315,-4,c),
(466,-4,o),
(746,-1,o),
(832,-4,c),
(844,-4,o),
(860,-1,o),
(861,14,c),
(864,41,o),
(870,60,o),
(874,144,c),
(874,152,o),
(875,163,o),
(864,163,c),
(851,163,l),
(846,163,o),
(843,163,o),
(843,160,c),
(842,160,o),
(842,159,o),
(842,158,c),
(842,156,l),
(841,154,o),
(841,152,o),
(840,149,c),
(832,119,o),
(821,96,o),
(806,76,c),
(786,50,o),
(773,47,o),
(709,45,c),
(672,44,o),
(634,42,o),
(605,45,c),
(545,45,o),
(531,48,o),
(531,119,c),
(531,286,l),
(531,298,o),
(536,312,o),
(550,312,c),
(671,314,l),
(735,315,o),
(746,309,o),
(754,243,c),
(755,234,o),
(758,231,o),
(763,231,c),
(769,230,o),
(774,230,o),
(780,232,c),
(788,232,o),
(789,236,o),
(788,246,c),
(786,292,o),
(787,380,o),
(787,426,c),
(787,436,o),
(782,441,o),
(778,441,c),
(776,441,o),
(769,440,o),
(764,441,c),
(756,441,o),
(755,438,o),
(753,430,c),
(747,397,o),
(741,382,o),
(730,374,c),
(724,370,o),
(717,368,o),
(707,367,c),
(697,366,o),
(685,365,o),
(669,365,c),
(553,363,l),
(537,363,o),
(531,369,o),
(531,379,c),
(531,591,l),
(531,605,o),
(543,609,o),
(556,609,c),
(714,609,l),
(742,609,l),
(770,609,o),
(785,593,o),
(799,528,c),
(801,520,o),
(802,504,o),
(814,504,c),
(829,504,l),
(833,504,o),
(834,505,o),
(834,508,c),
(835,511,o),
(834,514,o),
(834,517,c),
(832,550,o),
(827,609,o),
(825,646,c),
(825,653,o),
(811,658,o),
(800,658,c),
(719,661,o),
(424,654,o),
(297,658,c),
(287,658,o),
(285,655,o),
(284,649,c),
(283,635,l),
(282,628,o),
(288,627,o),
(297,627,c),
(343,627,o),
(349,620,o),
(349,603,c),
(349,597,o),
(349,594,o),
(345,587,c),
(341,578,o),
(332,564,o),
(317,539,c),
(68,123,l),
(25,52,o),
(4,34,o),
(-40,29,c),
(-61,27,o),
(-57,24,o),
(-54,6,c),
(-53,-3,o),
(-49,-6,o),
(-43,-6,c)
);
},
{
closed = 1;
nodes = (
(253,304,o),
(247,311,o),
(252,318,c),
(305,412,o),
(375,530,o),
(421,600,c),
(430,614,o),
(434,588,o),
(434,583,c),
(434,331,l),
(434,321,o),
(431,304,o),
(417,304,c),
(268,304,l)
);
}
);
width = 915;
}
);
unicode = 198;
},
{
glyphname = B;
lastChange = "2023-05-15 06:06:40 +0000";
layers = (
{
hints = (
{
place = (506, 107);
place = (506, 107);
type = Stem;
},
{
horizontal = 1;
place = (-4, 41);
place = (-4, 41);
type = Stem;
},
{
horizontal = 1;
place = (660, -20);
target = down;
type = TopGhost;
},
{
place = (147, 97);
place = (147, 97);
type = Stem;
},
{
place = (470, 104);
place = (470, 104);
type = Stem;
}
);
layerId = m01;
shapes = (
{
closed = 1;
nodes = (
(115,-2,o),
(226,-2,o),
(325,-4,c),
(409,-6,o),
(427,0,o),
(460,6,c),
(546,23,o),
(613,107,o),
(613,199,c),
(613,268,o),
(570,324,o),
(500,358,c),
(494,361,o),
(486,365,o),
(480,368,c),
(474,371,o),
(473,374,o),
(478,376,c),
(536,397,o),
(574,446,o),
(574,503,c),
(574,558,o),
(541,607,o),
(487,632,c),
(440,653,o),
(419,660,o),
(331,660,c),
(235,660,o),
(140,662,o),
(46,652,c),
(37,651,l),
(29,650,o),
(26,617,o),
(37,617,c),
(60,617,l),
(140,617,o),
(147,613,o),
(147,515,c),
(147,133,l),
(147,40,o),
(138,33,o),
(52,33,c),
(46,35,o),
(35,33,o),
(28,32,c),
(20,29,o),
(17,-3,o),
(29,-4,c)
);
},
{
closed = 1;
nodes = (
(288,37,o),
(256,57,o),
(249,96,c),
(246,112,o),
(244,141,o),
(244,176,c),
(244,330,l),
(244,343,o),
(255,349,o),
(266,351,c),
(325,351,o),
(376,359,o),
(429,328,c),
(476,300,o),
(506,249,o),
(506,193,c),
(506,107,o),
(446,37,o),
(358,37,c)
);
},
{
closed = 1;
nodes = (
(255,385,o),
(244,390,o),
(244,405,c),
(244,609,l),
(244,618,o),
(253,627,o),
(258,628,c),
(316,633,o),
(378,638,o),
(426,599,c),
(454,575,o),
(470,539,o),
(470,497,c),
(470,450,o),
(450,414,o),
(417,400,c),
(371,380,o),
(305,385,o),
(256,385,c)
);
}
);
width = 656;
}
);
unicode = 66;
},
{
glyphname = C;
lastChange = "2023-05-15 06:06:40 +0000";
layers = (
{
hints = (
{
horizontal = 1;
place = (-19, 41);
place = (-19, 41);
type = Stem;
},
{
horizontal = 1;
place = (628, 37);
place = (628, 37);
type = Stem;
},
{
place = (56, 111);
place = (56, 111);
type = Stem;
}
);
layerId = m01;
shapes = (
{
closed = 1;
nodes = (
(451,-19,o),
(491,-17,o),
(528,-5,c),
(560,5,o),
(571,10,o),
(606,10,c),
(613,10,o),
(616,10,o),
(629,7,c),
(656,52,o),
(684,115,o),
(699,167,c),
(703,179,o),
(669,177,o),
(667,168,c),
(641,122,o),
(633,112,o),
(607,88,c),
(559,45,o),
(512,22,o),
(444,22,c),
(282,22,o),
(167,158,o),
(167,338,c),
(167,514,o),
(268,628,o),
(430,628,c),
(535,628,o),
(606,567,o),
(640,469,c),
(645,461,o),
(667,464,o),
(670,477,c),
(669,496,o),
(671,515,o),
(671,538,c),
(672,561,o),
(670,589,o),
(661,628,c),
(660,633,o),
(642,633,o),
(637,629,c),
(622,617,o),
(604,625,o),
(588,631,c),
(526,654,o),
(488,665,o),
(424,665,c),
(205,665,o),
(56,522,o),
(56,317,c),
(56,123,o),
(201,-19,o),
(413,-19,c)
);
}
);
width = 762;
}
);
unicode = 67;
},
{
glyphname = Ccedilla;
lastChange = "2023-05-15 06:06:40 +0000";
layers = (
{
hints = (
{
place = (407, 55);
place = (407, 55);
type = Stem;
},
{
horizontal = 1;
place = (-19, 21);
target = up;
type = BottomGhost;
},
{
horizontal = 1;
place = (-249, 30);
place = (-249, 30);
type = Stem;
},
{
horizontal = 1;
place = (628, 37);
place = (628, 37);
type = Stem;
},
{
place = (56, 111);
place = (56, 111);
type = Stem;
},
{
horizontal = 1;
place = (-18, 40);
place = (-18, 40);
type = Stem;
},
{
horizontal = 1;
place = (-136, 158);
place = (-136, 158);
type = Stem;
}
);
layerId = m01;
shapes = (
{
closed = 1;
nodes = (
(420,-249,o),
(462,-207,o),
(462,-155,c),
(462,-113,o),
(433,-80,o),
(395,-75,c),
(393,-74,o),
(390,-74,o),
(389,-73,c),
(389,-72,o),
(389,-71,o),
(391,-67,c),
(417,-19,l),
(454,-19,o),
(492,-16,o),
(528,-5,c),
(560,5,o),
(571,10,o),
(606,10,c),
(613,10,o),
(616,10,o),
(629,7,c),
(656,52,o),
(684,115,o),
(699,167,c),
(703,179,o),
(669,177,o),
(667,168,c),
(641,122,o),
(633,112,o),
(607,88,c),
(559,45,o),
(512,22,o),
(444,22,c),
(282,22,o),
(167,158,o),
(167,338,c),
(167,514,o),
(268,628,o),
(430,628,c),
(535,628,o),
(606,567,o),
(640,469,c),
(645,461,o),
(667,464,o),
(670,477,c),
(669,496,o),
(671,515,o),
(671,538,c),
(672,561,o),
(670,589,o),
(661,628,c),
(660,633,o),
(642,633,o),
(637,629,c),
(622,617,o),
(604,625,o),
(588,631,c),
(526,654,o),
(488,665,o),
(424,665,c),
(205,665,o),
(56,522,o),
(56,317,c),
(56,130,o),
(190,-8,o),
(389,-18,c),
(308,-155,l),
(303,-163,o),
(311,-163,o),
(316,-161,c),
(353,-142,o),
(366,-136,o),
(379,-136,c),
(397,-136,o),
(407,-150,o),
(407,-172,c),
(407,-197,o),
(385,-219,o),
(357,-219,c),
(352,-219,o),
(345,-218,o),
(335,-216,c),
(332,-215,o),
(327,-217,o),
(326,-220,c),
(324,-222,o),
(323,-225,o),
(322,-227,c),
(318,-233,o),
(316,-238,o),
(326,-242,c),
(342,-248,o),
(355,-249,o),
(368,-249,c)
);
}
);
width = 762;
}
);
unicode = 199;
},
{
glyphname = D;
lastChange = "2023-05-15 06:06:40 +0000";
layers = (
{
hints = (
{
place = (613, 108);
place = (613, 108);
type = Stem;
},
{
horizontal = 1;
place = (618, 41);
place = (618, 41);
type = Stem;
},
{
place = (115, 97);
place = (115, 97);
type = Stem;
},
{
horizontal = 1;
place = (-4, 21);
target = up;
type = BottomGhost;
},
{
horizontal = 1;
place = (-3, 33);
place = (-3, 33);
type = Stem;
}
);
layerId = m01;
shapes = (
{
closed = 1;
nodes = (
(278,-3,l),
(353,-3,o),
(402,-3,o),
(475,18,c),
(620,60,o),
(721,196,o),
(721,346,c),
(721,446,o),
(679,531,o),
(600,588,c),
(529,639,o),
(452,659,o),
(321,659,c),
(222,659,o),
(126,655,o),
(27,651,c),
(20,649,l),
(12,648,o),
(7,618,o),
(20,618,c),
(29,618,l),
(114,618,o),
(115,599,o),
(115,515,c),
(115,134,l),
(115,90,o),
(120,41,o),
(61,36,c),
(48,35,o),
(37,36,o),
(24,34,c),
(11,30,o),
(12,14,o),
(16,5,c),
(19,-4,o),
(31,-4,o),
(38,-4,c)
);
},
{
closed = 1;
nodes = (
(223,30,o),
(212,55,o),
(212,102,c),
(212,601,l),
(212,615,o),
(223,623,o),
(234,624,c),
(278,626,o),
(305,626,o),
(349,622,c),
(428,614,o),
(466,600,o),
(510,566,c),
(574,517,o),
(613,429,o),
(613,330,c),
(613,117,o),
(478,30,o),
(290,30,c)
);
}
);
width = 773;
}
);
unicode = 68;
},
{
glyphname = Eth;
lastChange = "2023-05-15 06:06:40 +0000";
layers = (
{
hints = (
{
place = (634, 109);
place = (634, 109);
type = Stem;
},
{
horizontal = 1;
place = (623, 44);
place = (623, 44);
type = Stem;
},
{
place = (13, 200);
place = (13, 200);
type = Stem;
},
{
horizontal = 1;
place = (-5, 31);
place = (-5, 31);
type = Stem;
},
{
horizontal = 1;
place = (294, 66);
place = (294, 66);
type = Stem;
},
{
place = (116, 97);
place = (116, 97);
type = Stem;
}
);
layerId = m01;
shapes = (
{
closed = 1;
nodes = (
(97,-4,o),
(225,-5,o),
(279,-5,c),
(417,-5,o),
(428,-3,o),
(494,16,c),
(640,58,o),
(743,197,o),
(743,349,c),
(743,450,o),
(701,537,o),
(622,595,c),
(551,647,o),
(467,667,o),
(336,667,c),
(261,667,o),
(185,667,o),
(110,664,c),
(28,661,l),
(18,659,o),
(13,655,o),
(13,641,c),
(13,630,o),
(17,623,o),
(28,623,c),
(108,623,o),
(116,620,o),
(116,521,c),
(116,379,l),
(116,369,o),
(113,365,o),
(109,363,c),
(106,360,o),
(102,360,o),
(98,360,c),
(19,360,l),
(0,360,o),
(0,345,o),
(0,345,c),
(0,310,l),
(0,300,o),
(6,294,o),
(13,293,c),
(98,294,l),
(109,294,o),
(116,292,o),
(116,279,c),
(116,193,o),
(116,158,o),
(116,140,c),
(115,121,o),
(116,119,o),
(115,98,c),
(114,43,o),
(97,33,o),
(38,33,c),
(34,33,o),
(31,34,o),
(28,34,c),
(25,34,l),
(24,34,o),
(23,34,o),
(22,34,c),
(19,34,o),
(17,32,o),
(14,26,c),
(11,21,o),
(12,7,o),
(12,3,c),
(12,-3,o),
(19,-7,o),
(24,-6,c)
);
},
{
closed = 1;
nodes = (
(214,26,o),
(213,29,o),
(213,94,c),
(213,275,l),
(213,292,o),
(222,294,o),
(231,294,c),
(376,295,l),
(390,295,o),
(394,301,o),
(397,313,c),
(397,343,l),
(397,351,o),
(393,361,o),
(375,361,c),
(232,360,l),
(224,360,o),
(213,363,o),
(213,377,c),
(213,611,l),
(213,625,o),
(220,631,o),
(228,634,c),
(241,635,o),
(254,635,o),
(270,635,c),
(306,635,o),
(329,633,o),
(365,629,c),
(444,621,o),
(487,607,o),
(531,573,c),
(595,523,o),
(634,434,o),
(634,332,c),
(634,209,o),
(571,100,o),
(472,54,c),
(424,32,o),
(390,26,o),
(295,26,c)
);
}
);
width = 795;
}
);
unicode = 208;
},
{
glyphname = E;
lastChange = "2023-05-15 06:06:40 +0000";
layers = (
{
hints = (
{
horizontal = 1;
place = (-2, 49);
place = (-2, 49);
type = Stem;
},
{
place = (151, 97);
place = (151, 97);
type = Stem;
},
{
horizontal = 1;
place = (311, 49);
place = (311, 49);
type = Stem;
},
{
horizontal = 1;
place = (605, 45);
place = (605, 45);
type = Stem;
},
{
horizontal = 1;
place = (-2, 37);
place = (-2, 37);
type = Stem;
}
);
layerId = m01;
shapes = (
{
closed = 1;
nodes = (
(169,-2,o),
(389,-2,o),
(525,-2,c),
(536,-2,o),
(563,-4,o),
(565,12,c),
(568,40,o),
(578,88,o),
(579,159,c),
(577,163,o),
(567,164,o),
(558,163,c),
(554,162,o),
(550,160,o),
(548,152,c),
(539,116,o),
(525,88,o),
(511,71,c),
(494,51,o),
(478,47,o),
(403,47,c),
(323,47,l),
(250,47,o),
(248,51,o),
(248,128,c),
(248,296,l),
(248,306,o),
(255,310,o),
(262,312,c),
(377,311,l),
(456,310,o),
(460,306,o),
(471,237,c),
(472,232,o),
(481,231,o),
(489,232,c),
(498,233,o),
(501,238,o),
(501,246,c),
(502,290,o),
(504,373,o),
(502,424,c),
(501,429,o),
(499,438,o),
(494,439,c),
(486,440,o),
(473,437,o),
(472,434,c),
(462,362,o),
(458,360,o),
(380,360,c),
(262,360,l),
(256,360,o),
(248,370,o),
(248,381,c),
(248,583,l),
(248,590,o),
(258,605,o),
(267,605,c),
(309,607,o),
(367,605,o),
(401,604,c),
(482,603,o),
(496,594,o),
(509,511,c),
(509,506,o),
(510,501,o),
(516,500,c),
(525,497,o),
(539,496,o),
(540,503,c),
(538,532,o),
(540,567,o),
(531,640,c),
(531,647,o),
(521,650,o),
(512,650,c),
(415,652,o),
(199,651,o),
(66,650,c),
(60,650,o),
(53,652,o),
(49,645,c),
(46,639,o),
(42,630,o),
(45,624,c),
(52,612,o),
(62,615,o),
(73,615,c),
(147,615,o),
(151,595,o),
(151,514,c),
(151,134,l),
(151,48,o),
(142,37,o),
(77,35,c),
(62,35,o),
(49,36,o),
(34,34,c),
(24,33,o),
(21,14,o),
(25,4,c),
(27,-2,o),
(31,-2,o),
(37,-3,c)
);
}
);
width = 619;
}
);
unicode = 69;
},
{
glyphname = Eacute;
lastChange = "2023-05-15 06:06:40 +0000";
layers = (
{
hints = (
{
horizontal = 1;
place = (885, -20);
target = down;
type = TopGhost;
},
{
horizontal = 1;
place = (-2, 37);
place = (-2, 37);
type = Stem;
},
{
horizontal = 1;
place = (311, 49);
place = (311, 49);
type = Stem;
},
{
horizontal = 1;
place = (605, 45);
place = (605, 45);
type = Stem;
},
{
place = (151, 97);
place = (151, 97);
type = Stem;
},
{
horizontal = 1;
place = (884, -20);
target = down;
type = TopGhost;
},
{
horizontal = 1;
place = (-2, 49);
place = (-2, 49);
type = Stem;
}
);
layerId = m01;
shapes = (
{
closed = 1;
nodes = (
(169,-2,o),
(389,-2,o),
(525,-2,c),
(536,-2,o),
(563,-4,o),
(565,12,c),
(568,40,o),
(578,88,o),
(579,159,c),
(577,163,o),
(567,164,o),
(558,163,c),
(554,162,o),
(550,160,o),
(548,152,c),
(539,116,o),
(525,88,o),
(511,71,c),
(494,51,o),
(478,47,o),
(403,47,c),
(323,47,l),
(250,47,o),
(248,51,o),
(248,128,c),
(248,296,l),
(248,306,o),
(255,310,o),
(262,311,c),
(377,311,l),
(456,311,o),
(460,306,o),
(471,237,c),
(472,232,o),
(481,231,o),
(489,232,c),
(498,233,o),
(501,238,o),
(501,246,c),
(502,290,o),
(504,373,o),
(502,424,c),
(501,429,o),
(499,438,o),
(494,439,c),
(486,440,o),
(473,437,o),
(472,434,c),
(462,362,o),
(458,360,o),
(380,360,c),
(262,360,l),
(256,360,o),
(248,370,o),
(248,381,c),
(248,583,l),
(248,590,o),
(258,605,o),
(267,605,c),
(309,607,o),
(367,605,o),
(401,604,c),
(482,603,o),
(496,594,o),
(509,511,c),
(509,506,o),
(510,501,o),
(516,500,c),
(525,497,o),
(539,496,o),
(540,503,c),
(538,532,o),
(540,567,o),
(531,640,c),
(531,647,o),
(521,650,o),
(512,650,c),
(415,652,o),
(199,651,o),
(66,650,c),
(60,650,o),
(53,652,o),
(49,645,c),
(46,639,o),
(42,630,o),
(45,624,c),
(52,612,o),
(62,615,o),
(73,615,c),
(147,615,o),
(151,595,o),
(151,514,c),
(151,134,l),
(151,48,o),
(142,37,o),
(77,35,c),
(62,35,o),
(49,36,o),
(34,34,c),
(24,33,o),
(21,14,o),
(25,4,c),
(27,-2,o),
(31,-2,o),
(37,-3,c)
);
},
{
closed = 1;
nodes = (
(423,870,l),
(424,871,o),
(424,873,o),
(425,875,c),
(426,883,o),
(418,885,o),
(411,885,c),
(322,884,l),
(315,884,o),
(306,879,o),
(304,871,c),
(255,707,l),
(250,691,o),
(274,691,o),
(280,698,c)
);
}
);
width = 619;
}
);
unicode = 201;
},
{
glyphname = Ecircumflex;
lastChange = "2023-05-15 06:06:40 +0000";
layers = (
{
hints = (
{
horizontal = 1;
place = (-2, 49);
place = (-2, 49);
type = Stem;
},
{
place = (151, 97);
place = (151, 97);
type = Stem;
},
{
horizontal = 1;
place = (311, 49);
place = (311, 49);
type = Stem;
},
{
horizontal = 1;
place = (605, 45);
place = (605, 45);
type = Stem;
},
{
horizontal = 1;
place = (-2, 37);
place = (-2, 37);
type = Stem;
}
);
layerId = m01;
shapes = (
{
closed = 1;
nodes = (
(169,-2,o),
(389,-2,o),
(525,-2,c),
(536,-2,o),
(563,-4,o),
(565,12,c),
(568,40,o),
(578,88,o),
(579,159,c),
(577,163,o),
(567,164,o),
(558,163,c),
(554,162,o),
(550,160,o),
(548,152,c),
(539,116,o),
(525,88,o),
(511,71,c),
(494,51,o),
(478,47,o),
(403,47,c),
(323,47,l),
(250,47,o),
(248,51,o),
(248,128,c),
(248,296,l),
(248,306,o),
(255,310,o),
(262,311,c),
(377,311,l),
(456,311,o),
(460,306,o),
(471,237,c),
(472,232,o),
(481,231,o),
(489,232,c),
(498,233,o),
(501,238,o),
(501,246,c),
(502,290,o),
(504,373,o),
(502,424,c),
(501,429,o),
(499,438,o),
(494,439,c),
(486,440,o),
(473,437,o),
(472,434,c),
(462,362,o),
(458,360,o),
(380,360,c),
(262,360,l),
(256,360,o),
(248,370,o),
(248,381,c),
(248,583,l),
(248,590,o),
(258,605,o),
(267,605,c),
(309,607,o),
(367,605,o),
(401,604,c),
(482,603,o),
(496,594,o),
(509,511,c),
(509,506,o),
(510,501,o),
(516,500,c),
(525,497,o),
(539,496,o),
(540,503,c),
(538,532,o),
(540,567,o),
(531,640,c),
(531,647,o),
(521,650,o),
(512,650,c),
(415,652,o),
(199,651,o),
(66,650,c),
(60,650,o),
(53,652,o),
(49,645,c),
(46,639,o),
(42,630,o),
(45,624,c),
(52,612,o),
(62,615,o),
(73,615,c),
(147,615,o),
(151,595,o),
(151,514,c),
(151,134,l),
(151,48,o),
(142,37,o),
(77,35,c),
(62,35,o),
(49,36,o),
(34,34,c),
(24,33,o),
(21,14,o),
(25,4,c),
(27,-2,o),
(31,-2,o),
(37,-3,c)
);
},
{
closed = 1;
nodes = (
(456,697,o),
(454,704,o),
(451,709,c),
(363,861,l),
(359,869,o),
(357,870,o),
(346,871,c),
(333,872,o),
(279,871,o),
(271,870,c),
(266,868,o),
(261,865,o),
(258,860,c),
(170,704,l),
(165,696,o),
(185,691,o),
(193,698,c),
(308,802,l),
(430,698,l),
(433,695,o),
(443,694,o),
(450,696,c)
);
}
);
width = 619;
}
);
unicode = 202;
},
{
glyphname = Edieresis;
lastChange = "2023-05-15 06:06:40 +0000";
layers = (
{
hints = (
{
place = (338, 115);
place = (338, 115);
type = Stem;
},
{
horizontal = 1;
place = (707, 114);
place = (707, 114);
type = Stem;
},
{
place = (170, 114);
place = (170, 114);
type = Stem;
},
{
horizontal = 1;
place = (-2, 49);
place = (-2, 49);
type = Stem;
},
{
horizontal = 1;
place = (311, 49);
place = (311, 49);
type = Stem;
},
{
horizontal = 1;
place = (605, 45);
place = (605, 45);
type = Stem;
},
{
place = (151, 97);
place = (151, 97);
type = Stem;
},
{
horizontal = 1;
place = (-2, 37);
place = (-2, 37);
type = Stem;
}
);
layerId = m01;
shapes = (
{
closed = 1;
nodes = (
(169,-2,o),
(389,-2,o),
(525,-2,c),
(536,-2,o),
(563,-4,o),
(565,12,c),
(568,40,o),
(578,88,o),
(579,159,c),
(577,163,o),
(567,164,o),
(558,163,c),
(554,162,o),
(550,160,o),
(548,152,c),
(539,116,o),
(525,88,o),
(511,71,c),
(494,51,o),
(478,47,o),
(403,47,c),
(323,47,l),
(250,47,o),
(248,51,o),
(248,128,c),
(248,296,l),
(248,306,o),
(255,310,o),
(262,311,c),
(377,311,l),
(456,311,o),
(460,306,o),
(471,237,c),
(472,232,o),
(481,231,o),
(489,232,c),
(498,233,o),
(501,238,o),
(501,246,c),
(502,290,o),
(504,373,o),
(502,424,c),
(501,429,o),
(499,438,o),
(494,439,c),
(486,440,o),
(473,437,o),
(472,434,c),
(462,362,o),
(458,360,o),
(380,360,c),
(262,360,l),
(256,360,o),
(248,370,o),
(248,381,c),
(248,583,l),
(248,590,o),
(258,605,o),
(267,605,c),
(309,607,o),
(367,605,o),
(401,604,c),
(482,603,o),
(496,594,o),
(509,511,c),
(509,506,o),
(510,501,o),
(516,500,c),
(525,497,o),
(539,496,o),
(540,503,c),
(538,532,o),
(540,567,o),
(531,640,c),
(531,647,o),
(521,650,o),
(512,650,c),
(415,652,o),
(199,651,o),
(66,650,c),
(60,650,o),
(53,652,o),
(49,645,c),
(46,639,o),
(42,630,o),
(45,624,c),
(52,612,o),
(62,615,o),
(73,615,c),
(147,615,o),
(151,595,o),
(151,514,c),
(151,134,l),
(151,48,o),
(142,37,o),
(77,35,c),
(62,35,o),
(49,36,o),
(34,34,c),
(24,33,o),
(21,14,o),
(25,4,c),
(27,-2,o),
(31,-2,o),
(37,-3,c)
);
},
{
closed = 1;
nodes = (
(258,707,o),
(284,731,o),
(284,764,c),
(284,795,o),
(258,821,o),
(227,821,c),
(195,821,o),
(170,795,o),
(170,764,c),
(170,731,o),
(196,707,o),
(227,707,c)
);
},
{
closed = 1;
nodes = (
(428,707,o),
(453,733,o),
(453,764,c),
(453,795,o),
(428,821,o),
(395,821,c),
(364,821,o),
(338,795,o),
(338,764,c),
(338,733,o),
(364,707,o),
(395,707,c)
);
}
);
width = 619;
}
);
unicode = 203;
},
{
glyphname = Egrave;
lastChange = "2023-05-15 06:06:40 +0000";
layers = (
{
hints = (
{
horizontal = 1;
place = (881, -20);
target = down;
type = TopGhost;
},
{
horizontal = 1;
place = (-2, 37);
place = (-2, 37);
type = Stem;
},
{
horizontal = 1;
place = (311, 49);
place = (311, 49);
type = Stem;
},
{
horizontal = 1;
place = (605, 45);
place = (605, 45);
type = Stem;
},
{
place = (151, 97);
place = (151, 97);
type = Stem;
},
{
horizontal = 1;
place = (880, -20);
target = down;
type = TopGhost;
},
{
horizontal = 1;
place = (-2, 49);
place = (-2, 49);
type = Stem;
}
);
layerId = m01;
shapes = (
{
closed = 1;
nodes = (
(169,-2,o),
(389,-2,o),
(525,-2,c),
(536,-2,o),
(563,-4,o),
(565,12,c),
(568,40,o),
(578,88,o),
(579,159,c),
(577,163,o),
(567,164,o),
(558,163,c),
(554,162,o),
(550,160,o),
(548,152,c),
(539,116,o),
(525,88,o),
(511,71,c),
(494,51,o),
(478,47,o),
(403,47,c),
(323,47,l),
(250,47,o),
(248,51,o),
(248,128,c),
(248,296,l),
(248,306,o),
(255,310,o),
(262,311,c),
(377,311,l),
(456,311,o),
(460,306,o),
(471,237,c),
(472,232,o),
(481,231,o),
(489,232,c),
(498,233,o),
(501,238,o),
(501,246,c),
(502,290,o),
(504,373,o),
(502,424,c),
(501,429,o),
(499,438,o),
(494,439,c),
(486,440,o),
(473,437,o),
(472,434,c),
(462,362,o),
(458,360,o),
(380,360,c),
(262,360,l),
(256,360,o),
(248,370,o),
(248,381,c),
(248,583,l),
(248,590,o),
(258,605,o),
(267,605,c),
(309,607,o),
(367,605,o),
(401,604,c),
(482,603,o),
(496,594,o),
(509,511,c),
(509,506,o),
(510,501,o),
(516,500,c),
(525,497,o),
(539,496,o),
(540,503,c),
(538,532,o),
(540,567,o),
(531,640,c),
(531,647,o),
(521,650,o),
(512,650,c),
(415,652,o),
(199,651,o),
(66,650,c),
(60,650,o),
(53,652,o),
(49,645,c),
(46,639,o),
(42,630,o),
(45,624,c),
(52,612,o),
(62,615,o),
(73,615,c),
(147,615,o),
(151,595,o),
(151,514,c),
(151,134,l),
(151,48,o),
(142,37,o),
(77,35,c),
(62,35,o),
(49,36,o),
(34,34,c),
(24,33,o),
(21,14,o),
(25,4,c),
(27,-2,o),
(31,-2,o),
(37,-3,c)
);
},
{
closed = 1;
nodes = (
(348,696,o),
(366,697,o),
(366,710,c),
(356,753,o),
(333,828,o),
(317,873,c),
(312,881,o),
(306,881,o),
(298,881,c),
(221,880,l),
(208,880,o),
(201,867,o),
(206,861,c),
(250,814,o),
(309,745,o),
(341,703,c)
);
}
);
width = 619;
}
);
unicode = 200;
},
{
glyphname = F;
lastChange = "2023-05-15 06:06:40 +0000";
layers = (
{
hints = (
{
horizontal = 1;
place = (602, 48);
place = (602, 48);
type = Stem;
},
{
horizontal = 1;
place = (-3, 33);
place = (-3, 33);
type = Stem;
},
{
horizontal = 1;
place = (323, 49);
place = (323, 49);
type = Stem;
},
{
place = (120, 98);
place = (120, 98);
type = Stem;
},
{
place = (466, 30);
place = (466, 30);
type = Stem;
},
{
horizontal = 1;
place = (619, 31);
place = (619, 31);
type = Stem;
}
);
layerId = m01;
shapes = (
{
closed = 1;
nodes = (
(128,-1,o),
(228,-2,o),
(303,-3,c),
(308,-4,o),
(311,4,o),
(311,13,c),
(311,21,o),
(308,30,o),
(303,31,c),
(293,31,l),
(235,31,o),
(218,45,o),
(218,99,c),
(218,140,o),
(218,102,o),
(218,303,c),
(218,315,o),
(227,322,o),
(240,323,c),
(269,322,o),
(326,322,o),
(355,323,c),
(433,325,o),
(444,315,o),
(450,250,c),
(451,242,o),
(476,242,o),
(478,250,c),
(480,302,o),
(478,420,o),
(478,429,c),
(477,436,o),
(469,438,o),
(462,437,c),
(455,436,o),
(450,432,o),
(449,425,c),
(444,376,o),
(431,373,o),
(359,372,c),
(317,372,o),
(273,369,o),
(231,372,c),
(226,373,o),
(217,382,o),
(217,390,c),
(218,586,l),
(220,595,o),
(228,602,o),
(235,602,c),
(356,602,l),
(450,602,o),
(463,590,o),
(466,523,c),
(474,520,o),
(487,517,o),
(496,523,c),
(499,633,l),
(500,639,o),
(491,650,o),
(483,650,c),
(52,650,l),
(38,652,o),
(40,621,o),
(48,619,c),
(102,617,o),
(120,603,o),
(120,549,c),
(120,99,l),
(120,46,o),
(106,33,o),
(49,30,c),
(39,28,o),
(34,-3,o),
(51,-3,c)
);
}
);
width = 543;
}
);
unicode = 70;
},
{
glyphname = G;
lastChange = "2023-05-15 06:06:40 +0000";
layers = (
{
hints = (
{
horizontal = 1;
place = (-19, 38);
place = (-19, 38);
type = Stem;
},
{
horizontal = 1;
place = (251, 36);
place = (251, 36);
type = Stem;
},
{
horizontal = 1;
place = (631, 36);
place = (631, 36);
type = Stem;
},
{
place = (57, 109);
place = (57, 109);
type = Stem;
},
{
place = (560, 93);
place = (560, 93);
type = Stem;
}
);
layerId = m01;
shapes = (
{
closed = 1;
nodes = (
(471,-19,o),
(580,9,o),
(648,44,c),
(657,48,o),
(657,62,o),
(657,71,c),
(656,101,o),
(656,158,o),
(657,185,c),
(658,236,o),
(672,252,o),
(720,254,c),
(724,253,o),
(729,262,o),
(730,270,c),
(732,278,o),
(730,287,o),
(720,287,c),
(653,286,o),
(519,285,o),
(444,287,c),
(429,285,o),
(434,252,o),
(444,252,c),
(483,251,l),
(542,249,o),
(560,238,o),
(560,184,c),
(557,159,o),
(560,108,o),
(560,83,c),
(560,72,o),
(559,55,o),
(548,50,c),
(506,31,o),
(462,19,o),
(418,19,c),
(265,19,o),
(166,142,o),
(166,319,c),
(166,511,o),
(263,631,o),
(430,631,c),
(538,631,o),
(599,574,o),
(621,464,c),
(623,453,o),
(652,454,o),
(653,466,c),
(655,517,o),
(660,637,o),
(653,639,c),
(645,640,o),
(638,641,o),
(630,639,c),
(624,633,o),
(620,631,o),
(610,631,c),
(603,631,o),
(597,632,o),
(579,637,c),
(505,659,o),
(468,667,o),
(414,667,c),
(308,667,o),
(239,638,o),
(171,574,c),
(100,508,o),
(57,412,o),
(57,312,c),
(57,121,o),
(191,-19,o),
(386,-19,c)
);
}
);
width = 763;
}
);
unicode = 71;
},
{
glyphname = H;
lastChange = "2023-05-15 06:06:40 +0000";
layers = (
{
hints = (
{
horizontal = 1;
place = (-3, 36);
place = (-3, 36);
type = Stem;
},
{
place = (572, 98);
place = (572, 98);
type = Stem;
},
{
horizontal = 1;
place = (618, 32);
place = (618, 32);
type = Stem;
},
{
horizontal = 1;
place = (304, 47);
place = (304, 47);
type = Stem;
},
{
place = (117, 98);
place = (117, 98);
type = Stem;
},
{
horizontal = 1;
place = (653, -20);
target = down;
type = TopGhost;
}
);
layerId = m01;
shapes = (
{
closed = 1;
nodes = (
(105,-3,o),
(232,-1,o),
(296,-3,c),
(316,0,o),
(310,35,o),
(296,33,c),
(291,33,l),
(286,33,l),
(231,33,o),
(215,46,o),
(215,99,c),
(215,279,l),
(215,295,o),
(228,304,o),
(233,304,c),
(326,301,o),
(455,300,o),
(553,304,c),
(564,304,o),
(571,296,o),
(572,286,c),
(572,110,o),
(572,145,o),
(572,99,c),
(572,48,o),
(548,32,o),
(495,32,c),
(471,32,l),
(460,32,o),
(455,18,o),
(459,6,c),
(460,0,o),
(464,-3,o),
(472,-3,c),
(607,-3,o),
(686,-1,o),
(756,-3,c),
(768,-3,o),
(773,14,o),
(768,25,c),
(765,33,o),
(753,33,o),
(746,33,c),
(687,33,o),
(670,52,o),
(670,99,c),
(670,196,o),
(666,397,o),
(670,549,c),
(671,597,o),
(687,613,o),
(736,617,c),
(740,617,o),
(748,617,o),
(750,622,c),
(755,632,o),
(752,651,o),
(737,650,c),
(677,648,o),
(559,655,o),
(486,653,c),
(472,653,o),
(470,648,o),
(468,644,c),
(465,635,o),
(465,620,o),
(475,618,c),
(495,618,l),
(556,618,o),
(572,596,o),
(572,549,c),
(572,489,o),
(573,428,o),
(572,367,c),
(572,358,o),
(550,351,o),
(542,351,c),
(431,349,o),
(315,349,o),
(233,351,c),
(220,351,o),
(215,361,o),
(215,366,c),
(215,430,o),
(215,486,o),
(215,549,c),
(215,597,o),
(232,618,o),
(291,618,c),
(299,619,o),
(302,619,o),
(303,624,c),
(305,632,o),
(307,641,o),
(302,646,c),
(299,648,o),
(296,650,o),
(292,650,c),
(235,647,o),
(116,647,o),
(51,650,c),
(41,651,o),
(41,622,o),
(49,618,c),
(100,615,o),
(117,603,o),
(117,549,c),
(117,99,l),
(117,50,o),
(102,36,o),
(56,33,c),
(47,33,o),
(41,34,o),
(31,32,c),
(22,26,o),
(23,13,o),
(26,4,c),
(29,-3,o),
(36,-3,o),
(42,-3,c)
);
}
);
width = 788;
}
);
unicode = 72;
},
{
glyphname = I;
lastChange = "2023-05-15 06:06:40 +0000";
layers = (
{
hints = (
{
horizontal = 1;
place = (-3, 36);
place = (-3, 36);
type = Stem;
},
{
horizontal = 1;
place = (617, 34);
place = (617, 34);
type = Stem;
},
{
place = (132, 97);
place = (132, 97);
type = Stem;
}
);
layerId = m01;
shapes = (
{
closed = 1;
nodes = (
(127,-1,o),
(249,-1,o),
(312,-3,c),
(320,-3,o),
(326,24,o),
(313,32,c),
(309,33,o),
(304,33,o),
(298,33,c),
(244,34,o),
(229,47,o),
(229,99,c),
(229,514,l),
(229,606,o),
(237,616,o),
(298,617,c),
(303,617,o),
(308,619,o),
(312,619,c),
(318,619,o),
(318,632,o),
(317,640,c),
(316,650,o),
(310,651,o),
(301,651,c),
(179,645,o),
(153,651,o),
(71,651,c),
(64,651,o),
(60,652,o),
(57,644,c),
(51,625,o),
(60,620,o),
(68,619,c),
(122,613,o),
(130,601,o),
(131,549,c),
(132,514,l),
(132,134,l),
(131,99,l),
(129,45,o),
(124,37,o),
(61,31,c),
(56,31,o),
(52,20,o),
(52,12,c),
(52,2,o),
(58,-3,o),
(64,-3,c)
);
}
);
width = 363;
}
);
unicode = 73;
},
{
glyphname = Iacute;
lastChange = "2023-05-15 06:06:40 +0000";
layers = (
{
hints = (
{
horizontal = 1;
place = (885, -20);
target = down;
type = TopGhost;
},
{
horizontal = 1;
place = (-3, 36);
place = (-3, 36);
type = Stem;
},
{
horizontal = 1;
place = (617, 34);
place = (617, 34);
type = Stem;
},
{
place = (132, 97);
place = (132, 97);
type = Stem;
},
{
horizontal = 1;
place = (884, -20);
target = down;
type = TopGhost;
}
);
layerId = m01;
shapes = (
{
closed = 1;
nodes = (
(127,-1,o),
(249,-1,o),
(312,-3,c),
(320,-3,o),
(326,24,o),
(313,32,c),
(309,33,o),
(304,33,o),
(298,33,c),
(244,34,o),
(229,47,o),
(229,99,c),
(229,514,l),
(229,606,o),
(237,616,o),
(298,617,c),
(303,617,o),
(308,618,o),
(312,618,c),
(318,619,o),
(318,632,o),
(317,640,c),
(316,650,o),
(310,651,o),
(301,651,c),
(179,645,o),
(154,651,o),
(71,651,c),
(64,651,o),
(60,652,o),
(57,644,c),
(51,625,o),
(60,620,o),
(68,619,c),
(122,613,o),
(130,601,o),
(131,549,c),
(132,514,l),
(132,134,l),
(131,99,l),
(129,45,o),
(124,37,o),
(61,31,c),
(56,31,o),
(52,20,o),
(52,12,c),
(52,2,o),
(58,-3,o),
(64,-3,c)
);
},
{
closed = 1;
nodes = (
(287,870,l),
(287,871,o),
(288,873,o),
(288,875,c),
(290,883,o),
(281,885,o),
(274,885,c),
(186,884,l),
(179,884,o),
(171,879,o),
(167,871,c),
(118,707,l),
(113,691,o),
(138,691,o),
(144,698,c)
);
}
);
width = 363;
}
);
unicode = 205;
},
{
glyphname = Icircumflex;
lastChange = "2023-05-15 06:06:40 +0000";
layers = (
{
hints = (
{
horizontal = 1;
place = (-3, 36);
place = (-3, 36);
type = Stem;
},
{
horizontal = 1;
place = (617, 34);
place = (617, 34);
type = Stem;
},
{
place = (132, 96);
place = (132, 96);
type = Stem;
}
);
layerId = m01;
shapes = (
{
closed = 1;
nodes = (
(126,-1,o),
(249,-1,o),
(312,-3,c),
(319,-3,o),
(326,24,o),
(312,32,c),
(308,33,o),
(303,33,o),
(297,33,c),
(244,34,o),
(228,47,o),
(228,99,c),
(228,514,l),
(228,606,o),
(237,616,o),
(298,617,c),
(302,617,o),
(307,618,o),
(312,618,c),
(317,619,o),
(318,632,o),
(317,640,c),
(316,650,o),
(309,651,o),
(301,651,c),
(178,645,o),
(153,651,o),
(70,651,c),
(63,651,o),
(59,652,o),
(56,644,c),
(50,625,o),
(59,620,o),
(67,619,c),
(122,613,o),
(130,601,o),
(131,549,c),
(132,514,l),
(132,134,l),
(131,99,l),
(129,45,o),
(123,37,o),
(60,31,c),
(56,31,o),
(51,20,o),
(51,12,c),
(51,2,o),
(57,-3,o),
(64,-3,c)
);
},
{
closed = 1;
nodes = (
(319,697,o),
(317,704,o),
(314,709,c),
(226,861,l),
(222,869,o),
(219,870,o),
(209,871,c),
(196,872,o),
(142,871,o),
(134,870,c),
(129,868,o),
(124,865,o),
(121,860,c),
(33,704,l),
(28,696,o),
(48,691,o),
(56,698,c),
(171,802,l),
(293,698,l),
(296,695,o),
(306,694,o),
(313,696,c)
);
}
);
width = 362;
}
);
unicode = 206;
},
{
glyphname = Idieresis;
lastChange = "2023-05-15 06:06:40 +0000";
layers = (
{
hints = (
{
place = (204, 121);
place = (204, 121);
type = Stem;
},
{
horizontal = 1;
place = (704, 120);
place = (704, 120);
type = Stem;
},
{
place = (27, 120);
place = (27, 120);
type = Stem;
},
{
horizontal = 1;
place = (617, 34);
place = (617, 34);
type = Stem;
},
{
horizontal = 1;
place = (-3, 36);
place = (-3, 36);
type = Stem;
},
{
place = (132, 97);
place = (132, 97);
type = Stem;
}
);
layerId = m01;
shapes = (
{
closed = 1;
nodes = (
(127,-1,o),
(249,-1,o),
(312,-3,c),
(320,-3,o),
(326,24,o),
(313,32,c),
(309,33,o),
(304,33,o),
(298,33,c),
(244,34,o),
(229,47,o),
(229,99,c),
(229,514,l),
(229,606,o),
(237,616,o),
(298,617,c),
(303,617,o),
(308,618,o),
(312,618,c),
(318,619,o),
(318,632,o),
(317,640,c),
(316,650,o),
(310,651,o),
(301,651,c),
(179,645,o),
(153,651,o),
(71,651,c),
(64,651,o),
(60,652,o),
(57,644,c),
(51,625,o),
(60,620,o),
(68,619,c),
(122,613,o),
(130,601,o),
(131,549,c),
(132,514,l),
(132,134,l),
(131,99,l),
(129,45,o),
(124,37,o),
(61,31,c),
(56,31,o),
(52,20,o),
(52,12,c),
(52,2,o),
(58,-3,o),
(64,-3,c)
);
},
{
closed = 1;
nodes = (
(120,704,o),
(147,730,o),
(147,764,c),
(147,797,o),
(120,824,o),
(87,824,c),
(54,824,o),
(27,797,o),
(27,764,c),
(27,730,o),
(54,704,o),
(87,704,c)
);
},
{
closed = 1;
nodes = (
(299,704,o),
(325,731,o),
(325,764,c),
(325,797,o),
(299,824,o),
(264,824,c),
(231,824,o),
(204,797,o),
(204,764,c),
(204,731,o),
(231,704,o),
(264,704,c)
);
}
);
width = 363;
}
);
unicode = 207;
},
{
glyphname = Igrave;
lastChange = "2023-05-15 06:06:40 +0000";
layers = (
{
hints = (
{
place = (132, 97);
place = (132, 97);
type = Stem;
},
{
horizontal = 1;
place = (881, -20);
target = down;
type = TopGhost;
},
{
horizontal = 1;
place = (-3, 36);
place = (-3, 36);
type = Stem;
},
{
horizontal = 1;
place = (617, 34);
place = (617, 34);
type = Stem;
},
{
horizontal = 1;
place = (880, -20);
target = down;
type = TopGhost;
}
);
layerId = m01;
shapes = (
{
closed = 1;
nodes = (
(127,-1,o),
(249,-1,o),
(312,-3,c),
(320,-3,o),
(326,24,o),
(313,32,c),
(309,33,o),
(304,33,o),
(298,33,c),
(244,34,o),
(229,47,o),
(229,99,c),
(229,514,l),
(229,606,o),
(237,616,o),
(298,617,c),
(303,617,o),
(308,618,o),
(312,618,c),
(318,619,o),
(318,632,o),
(317,640,c),
(316,650,o),
(310,651,o),
(301,651,c),
(179,645,o),
(153,651,o),
(71,651,c),
(64,651,o),
(60,652,o),
(57,644,c),
(51,625,o),
(60,620,o),
(68,619,c),
(122,613,o),
(130,601,o),
(131,549,c),
(132,514,l),
(132,134,l),
(131,99,l),
(129,45,o),
(124,37,o),
(61,31,c),
(56,31,o),
(52,20,o),
(52,12,c),
(52,2,o),
(58,-3,o),
(64,-3,c)
);
},
{
closed = 1;
nodes = (
(212,696,o),
(230,697,o),
(229,710,c),
(219,753,o),
(197,828,o),
(180,873,c),
(175,881,o),
(170,881,o),
(161,881,c),
(84,880,l),
(72,880,o),
(64,867,o),
(70,861,c),
(113,814,o),
(172,745,o),
(204,703,c)
);
}
);
width = 363;
}
);
unicode = 204;
},
{
glyphname = J;
lastChange = "2023-05-15 06:06:40 +0000";
layers = (
{
hints = (
{
horizontal = 1;
place = (-289, 109);
place = (-289, 109);
type = Stem;
},
{
horizontal = 1;
place = (617, 33);
place = (617, 33);
type = Stem;
},
{
place = (117, 97);
place = (117, 97);
type = Stem;
}
);
layerId = m01;
shapes = (
{
closed = 1;
nodes = (
(67,-289,o),
(112,-255,o),
(148,-200,c),
(172,-163,o),
(190,-108,o),
(200,-60,c),
(209,-20,o),
(214,32,o),
(214,73,c),
(214,549,l),
(214,601,o),
(227,614,o),
(283,618,c),
(287,618,o),
(290,617,o),
(294,619,c),
(301,620,o),
(302,636,o),
(298,644,c),
(295,651,o),
(290,650,o),
(284,650,c),
(224,648,o),
(100,646,o),
(35,650,c),
(29,650,o),
(24,652,o),
(20,645,c),
(16,637,o),
(16,619,o),
(27,618,c),
(30,618,o),
(35,616,o),
(39,617,c),
(97,617,o),
(114,604,o),
(116,549,c),
(117,507,o),
(117,609,o),
(117,7,c),
(117,-132,o),
(113,-170,o),
(91,-202,c),
(77,-221,o),
(45,-237,o),
(22,-224,c),
(13,-219,o),
(5,-212,o),
(-3,-206,c),
(-15,-197,o),
(-30,-180,o),
(-46,-180,c),
(-70,-180,o),
(-90,-202,o),
(-90,-227,c),
(-90,-263,o),
(-50,-289,o),
(7,-289,c)
);
}
);
width = 324;
}
);
unicode = 74;
},
{
glyphname = K;
lastChange = "2023-05-15 06:06:40 +0000";
layers = (
{
hints = (
{
horizontal = 1;
place = (-4, 37);
place = (-4, 37);
type = Stem;
},
{
horizontal = 1;
place = (617, 33);
place = (617, 33);
type = Stem;
},
{
place = (129, 97);
place = (129, 97);
type = Stem;
},
{
horizontal = 1;
place = (651, -20);
target = down;
type = TopGhost;
},
{
horizontal = 1;
place = (652, -20);
target = down;
type = TopGhost;
}
);
layerId = m01;
shapes = (
{
closed = 1;
nodes = (
(100,-2,o),
(233,-1,o),
(308,-4,c),
(314,-4,o),
(320,-4,o),
(322,0,c),
(325,6,o),
(325,19,o),
(322,25,c),
(318,34,o),
(311,32,o),
(303,32,c),
(243,32,o),
(226,52,o),
(226,99,c),
(226,281,l),
(226,294,o),
(229,298,o),
(242,297,c),
(254,295,o),
(264,291,o),
(277,282,c),
(351,228,o),
(405,152,o),
(461,81,c),
(471,68,o),
(474,60,o),
(474,52,c),
(474,39,o),
(466,29,o),
(410,29,c),
(399,27,o),
(400,10,o),
(403,2,c),
(406,-3,o),
(411,-3,o),
(416,-4,c),
(484,-3,o),
(622,2,o),
(703,-3,c),
(718,0,o),
(716,17,o),
(711,27,c),
(708,34,o),
(703,33,o),
(697,33,c),
(635,33,o),
(613,42,o),
(569,95,c),
(513,163,o),
(462,236,o),
(397,298,c),
(368,326,o),
(354,337,o),
(340,343,c),
(348,349,o),
(352,355,o),
(357,361,c),
(396,411,o),
(435,461,o),
(469,514,c),
(487,541,o),
(508,579,o),
(534,597,c),
(556,613,o),
(579,619,o),
(636,620,c),
(650,617,o),
(655,651,o),
(636,650,c),
(588,648,o),
(484,647,o),
(385,650,c),
(380,651,o),
(374,649,o),
(373,645,c),
(370,639,o),
(368,625,o),
(376,619,c),
(386,618,l),
(435,613,o),
(443,610,o),
(443,593,c),
(443,536,o),
(329,399,o),
(279,355,c),
(267,344,o),
(256,337,o),
(243,332,c),
(236,330,o),
(227,328,o),
(226,339,c),
(226,549,l),
(226,603,o),
(243,617,o),
(303,617,c),
(314,617,o),
(321,622,o),
(321,635,c),
(321,649,o),
(312,651,o),
(307,651,c),
(253,649,o),
(160,649,o),
(38,652,c),
(32,652,o),
(26,652,o),
(24,645,c),
(19,637,o),
(23,618,o),
(32,617,c),
(52,617,l),
(111,617,o),
(129,603,o),
(129,549,c),
(129,99,l),
(129,55,o),
(112,35,o),
(52,35,c),
(46,36,o),
(39,37,o),
(33,35,c),
(17,29,o),
(18,9,o),
(24,0,c),
(28,-5,o),
(38,-4,o),
(43,-4,c)
);
}
);
width = 740;
}
);
unicode = 75;
},
{
glyphname = L;
lastChange = "2023-05-15 06:06:40 +0000";
layers = (
{
hints = (
{
horizontal = 1;
place = (-4, 51);
place = (-4, 51);
type = Stem;
},
{
horizontal = 1;
place = (614, 38);
place = (614, 38);
type = Stem;
},
{
place = (124, 97);
place = (124, 97);
type = Stem;
}
);
layerId = m01;
shapes = (
{
closed = 1;
nodes = (
(493,-4,o),
(501,5,o),
(508,15,c),
(521,36,o),
(548,91,o),
(572,148,c),
(573,150,o),
(574,157,o),
(568,160,c),
(563,164,o),
(555,163,o),
(547,160,c),
(512,114,l),
(463,49,o),
(447,47,o),
(372,47,c),
(278,47,l),
(237,47,o),
(221,59,o),
(221,101,c),
(221,559,l),
(221,611,o),
(225,612,o),
(300,614,c),
(311,614,o),
(322,615,o),
(332,616,c),
(346,617,o),
(349,628,o),
(345,643,c),
(343,651,o),
(337,652,o),
(331,652,c),
(215,650,o),
(145,649,o),
(45,651,c),
(41,652,o),
(33,652,o),
(30,646,c),
(25,639,o),
(25,619,o),
(35,618,c),
(47,618,l),
(106,618,o),
(124,603,o),
(124,549,c),
(124,138,l),
(124,97,o),
(123,78,o),
(122,67,c),
(115,32,o),
(64,34,o),
(38,34,c),
(35,33,o),
(33,33,o),
(30,32,c),
(22,29,o),
(20,13,o),
(23,6,c),
(24,1,o),
(30,-4,o),
(37,-3,c),
(67,-2,o),
(295,-1,o),
(477,-4,c)
);
}
);
width = 595;
}
);
unicode = 76;
},
{
glyphname = Lslash;
lastChange = "2023-05-15 06:06:40 +0000";
layers = (
{
hints = (
{
horizontal = 1;
place = (-5, 49);
place = (-5, 49);
type = Stem;
},
{
horizontal = 1;
place = (621, 38);
place = (621, 38);
type = Stem;
},
{
place = (121, 97);
place = (121, 97);
type = Stem;
}
);
layerId = m01;
shapes = (
{
closed = 1;
nodes = (
(94,-3,o),
(362,-5,o),
(468,-5,c),
(489,-5,o),
(498,1,o),
(502,8,c),
(538,79,o),
(561,117,o),
(572,137,c),
(582,157,o),
(580,159,o),
(566,159,c),
(548,159,l),
(514,113,l),
(465,46,o),
(456,44,o),
(382,44,c),
(286,44,l),
(240,44,o),
(218,45,o),
(218,99,c),
(218,310,l),
(218,325,o),
(228,340,o),
(235,346,c),
(344,438,l),
(344,509,l),
(344,521,o),
(339,532,o),
(329,523,c),
(236,445,l),
(228,444,o),
(218,446,o),
(218,461,c),
(218,564,l),
(218,617,o),
(223,619,o),
(298,621,c),
(309,621,o),
(318,622,o),
(324,622,c),
(364,625,o),
(345,659,o),
(333,659,c),
(291,659,o),
(90,663,o),
(43,661,c),
(32,659,o),
(27,656,o),
(25,652,c),
(24,650,o),
(23,648,o),
(23,645,c),
(23,642,o),
(24,639,o),
(24,636,c),
(25,625,o),
(35,623,o),
(44,623,c),
(103,623,o),
(121,610,o),
(121,555,c),
(121,350,l),
(-3,246,l),
(-3,173,l),
(-3,148,o),
(12,160,o),
(18,166,c),
(103,236,l),
(120,250,o),
(121,240,o),
(121,221,c),
(121,137,l),
(121,115,o),
(121,97,o),
(121,84,c),
(120,70,o),
(118,60,o),
(114,52,c),
(106,37,o),
(87,33,o),
(47,33,c),
(27,33,o),
(17,31,o),
(17,8,c),
(21,-4,o),
(34,-10,o),
(44,-7,c)
);
}
);
width = 578;
}
);
unicode = 321;
},
{
glyphname = M;
lastChange = "2023-05-15 06:06:40 +0000";
layers = (
{
hints = (
{
horizontal = 1;
place = (-2, 35);
place = (-2, 35);
type = Stem;
},
{
place = (699, 120);
place = (699, 120);
type = Stem;
},
{
horizontal = 1;
place = (650, -20);
target = down;
type = TopGhost;
},
{
place = (145, 40);
place = (145, 40);
type = Stem;
},
{
place = (119, 53);
place = (119, 53);
type = Stem;
},
{
place = (699, 106);
place = (699, 106);
type = Stem;
},
{
horizontal = 1;
place = (-3, 21);
target = up;
type = BottomGhost;
}
);
layerId = m01;
shapes = (
{
closed = 1;
nodes = (
(901,-3,o),
(912,-1,o),
(913,5,c),
(913,10,o),
(914,18,o),
(913,22,c),
(911,34,o),
(904,33,o),
(895,33,c),
(832,33,o),
(826,40,o),
(819,136,c),
(792,532,l),
(791,547,o),
(789,558,o),
(789,574,c),
(789,599,o),
(792,611,o),
(844,616,c),
(855,617,l),
(862,618,o),
(861,635,o),
(860,642,c),
(858,652,o),
(854,650,o),
(845,650,c),
(808,649,o),
(756,649,o),
(714,650,c),
(708,650,o),
(694,647,o),
(689,638,c),
(484,165,l),
(482,161,o),
(469,143,o),
(465,153,c),
(251,640,l),
(246,651,o),
(236,650,o),
(227,650,c),
(195,649,o),
(131,649,o),
(96,651,c),
(88,652,o),
(79,647,o),
(77,638,c),
(75,627,o),
(73,616,o),
(90,614,c),
(133,610,o),
(145,604,o),
(145,572,c),
(145,426,o),
(128,280,o),
(119,134,c),
(114,64,o),
(117,27,o),
(40,31,c),
(33,32,o),
(31,31,o),
(28,24,c),
(24,15,o),
(23,0,o),
(33,-2,c),
(115,-3,o),
(191,-3,o),
(241,-2,c),
(245,-1,o),
(250,-1,o),
(253,2,c),
(257,6,o),
(257,14,o),
(255,22,c),
(253,30,o),
(249,31,o),
(242,31,c),
(186,36,o),
(172,51,o),
(172,89,c),
(172,100,o),
(173,119,o),
(174,139,c),
(197,512,l),
(197,519,o),
(207,515,o),
(209,510,c),
(435,-1,l),
(438,-7,o),
(465,-7,o),
(467,-1,c),
(687,511,l),
(690,519,o),
(699,526,o),
(699,519,c),
(723,160,o),
(722,148,o),
(723,131,c),
(729,62,o),
(724,32,o),
(647,32,c),
(639,32,o),
(630,28,o),
(630,24,c),
(629,18,o),
(629,10,o),
(630,5,c),
(631,1,o),
(636,-2,o),
(639,-2,c),
(692,-3,o),
(823,-5,o),
(898,-3,c)
);
}
);
width = 942;
}
);
unicode = 77;
},
{
glyphname = N;
lastChange = "2023-05-15 06:06:40 +0000";
layers = (
{
hints = (
{
horizontal = 1;
place = (618, 34);
place = (618, 34);
type = Stem;
},
{
horizontal = 1;
place = (-3, 37);
place = (-3, 37);
type = Stem;
},
{
place = (129, 59);
place = (129, 59);
type = Stem;
},
{
place = (649, 59);
place = (649, 59);
type = Stem;
},
{
horizontal = 1;
place = (651, -20);
target = down;
type = TopGhost;
}
);
layerId = m01;
shapes = (
{
closed = 1;
nodes = (
(674,-14,o),
(708,-15,o),
(708,4,c),
(708,532,l),
(708,610,o),
(714,616,o),
(791,618,c),
(803,618,o),
(806,620,o),
(805,633,c),
(805,637,o),
(805,652,o),
(799,652,c),
(708,650,o),
(631,648,o),
(553,651,c),
(538,652,o),
(541,618,o),
(553,617,c),
(576,616,o),
(594,615,o),
(608,613,c),
(621,611,o),
(630,607,o),
(636,601,c),
(649,589,o),
(649,565,o),
(649,515,c),
(649,185,l),
(649,177,o),
(638,162,o),
(632,171,c),
(223,639,l),
(217,646,o),
(204,651,o),
(199,651,c),
(173,650,o),
(127,649,o),
(56,651,c),
(46,651,o),
(40,648,o),
(40,635,c),
(40,627,o),
(43,617,o),
(48,618,c),
(85,617,o),
(110,611,o),
(129,597,c),
(129,92,l),
(129,45,o),
(96,34,o),
(52,34,c),
(46,34,o),
(41,33,o),
(37,27,c),
(32,20,o),
(32,-5,o),
(44,-4,c),
(105,-1,o),
(219,-2,o),
(281,-3,c),
(298,-3,o),
(298,17,o),
(293,29,c),
(288,39,o),
(253,35,o),
(242,36,c),
(214,38,o),
(200,52,o),
(194,71,c),
(187,91,o),
(188,118,o),
(188,139,c),
(188,508,l),
(188,524,o),
(193,532,o),
(199,529,c),
(199,529,o),
(314,398,o),
(431,265,c),
(547,133,o),
(666,-1,o),
(670,-6,c)
);
}
);
width = 834;
}
);
unicode = 78;
},
{
glyphname = Ntilde;
lastChange = "2023-05-15 06:06:40 +0000";
layers = (
{
hints = (
{
horizontal = 1;
place = (618, 34);
place = (618, 34);
type = Stem;
},
{
horizontal = 1;
place = (-3, 37);
place = (-3, 37);
type = Stem;
},
{
horizontal = 1;
place = (697, 71);
place = (697, 71);
type = Stem;
},
{
horizontal = 1;
place = (840, -20);
target = down;
type = TopGhost;
},
{
place = (129, 59);
place = (129, 59);
type = Stem;
},
{
place = (649, 59);
place = (649, 59);
type = Stem;
},
{
horizontal = 1;
place = (651, -20);
target = down;
type = TopGhost;
},
{
horizontal = 1;
place = (765, 70);
place = (765, 70);
type = Stem;
}
);
layerId = m01;
shapes = (
{
closed = 1;
nodes = (
(674,-14,o),
(708,-15,o),
(708,4,c),
(708,532,l),
(708,610,o),
(714,616,o),
(791,618,c),
(803,618,o),
(806,620,o),
(805,633,c),
(804,636,o),
(804,652,o),
(799,652,c),
(708,650,o),
(631,648,o),
(553,651,c),
(538,652,o),
(541,618,o),
(553,617,c),
(576,616,o),
(594,615,o),
(608,613,c),
(621,611,o),
(630,607,o),
(636,601,c),
(649,589,o),
(649,564,o),
(649,515,c),
(649,185,l),
(649,177,o),
(638,162,o),
(632,171,c),
(223,639,l),
(217,646,o),
(204,651,o),
(199,651,c),
(173,650,o),
(127,649,o),
(56,651,c),
(46,651,o),
(40,648,o),
(40,635,c),
(40,627,o),
(43,617,o),
(48,618,c),
(85,617,o),
(110,611,o),
(129,597,c),
(129,92,l),
(129,45,o),
(96,34,o),
(52,34,c),
(46,34,o),
(41,33,o),
(37,27,c),
(32,20,o),
(32,-5,o),
(44,-4,c),
(105,-1,o),
(219,-2,o),
(281,-3,c),
(298,-3,o),
(298,17,o),
(293,29,c),
(288,39,o),
(253,35,o),
(242,36,c),
(214,38,o),
(200,52,o),
(194,71,c),
(187,91,o),
(188,118,o),
(188,139,c),
(188,508,l),
(188,524,o),
(193,532,o),
(199,529,c),
(199,529,o),
(314,398,o),
(431,265,c),
(547,133,o),
(665,-1,o),
(670,-6,c)
);
},
{
closed = 1;
nodes = (
(551,697,o),
(592,750,o),
(592,821,c),
(592,824,o),
(592,828,o),
(590,834,c),
(590,838,o),
(584,841,o),
(578,840,c),
(572,840,o),
(565,838,o),
(565,834,c),
(557,780,o),
(546,768,o),
(525,768,c),
(513,768,o),
(497,774,o),
(466,795,c),
(421,826,o),
(398,835,o),
(368,835,c),
(307,835,o),
(274,786,o),
(270,700,c),
(272,687,o),
(293,692,o),
(297,700,c),
(298,710,o),
(300,714,o),
(300,718,c),
(308,754,o),
(318,765,o),
(337,765,c),
(350,765,o),
(359,762,o),
(396,736,c),
(434,710,o),
(466,697,o),
(493,697,c)
);
}
);
width = 834;
}
);
unicode = 209;
},
{
glyphname = O;
lastChange = "2023-05-15 06:06:40 +0000";
layers = (
{
hints = (
{
horizontal = 1;
place = (-19, 37);
place = (-19, 37);
type = Stem;
},
{
horizontal = 1;
place = (631, 36);
place = (631, 36);
type = Stem;
},
{
place = (53, 108);
place = (53, 108);
type = Stem;
},
{
place = (661, 108);
place = (661, 108);
type = Stem;
}
);
layerId = m01;
shapes = (
{
closed = 1;
nodes = (
(619,-19,o),
(769,138,o),
(769,339,c),
(769,527,o),
(624,667,o),
(415,667,c),
(202,667,o),
(53,515,o),
(53,312,c),
(53,125,o),
(204,-19,o),
(413,-19,c)
);
},
{
closed = 1;
nodes = (
(272,18,o),
(161,157,o),
(161,338,c),
(161,510,o),
(249,631,o),
(387,631,c),
(552,631,o),
(661,496,o),
(661,309,c),
(661,157,o),
(606,18,o),
(430,18,c)
);
}
);
width = 827;
}
);
unicode = 79;
},
{
glyphname = Oacute;
lastChange = "2023-05-15 06:06:40 +0000";
layers = (
{
hints = (
{
horizontal = 1;
place = (885, -20);
target = down;
type = TopGhost;
},
{
horizontal = 1;
place = (-19, 37);
place = (-19, 37);
type = Stem;
},
{
horizontal = 1;
place = (631, 36);
place = (631, 36);
type = Stem;
},
{
place = (53, 108);
place = (53, 108);
type = Stem;
},
{
place = (661, 108);
place = (661, 108);
type = Stem;
},
{
horizontal = 1;
place = (884, -20);
target = down;
type = TopGhost;
}
);
layerId = m01;
shapes = (
{
closed = 1;
nodes = (
(619,-19,o),
(769,138,o),
(769,339,c),
(769,527,o),
(624,667,o),
(415,667,c),
(202,667,o),
(53,515,o),
(53,312,c),
(53,125,o),
(204,-19,o),
(413,-19,c)
);
},
{
closed = 1;
nodes = (
(272,18,o),
(161,157,o),
(161,338,c),
(161,510,o),
(249,631,o),
(387,631,c),
(552,631,o),
(661,496,o),
(661,309,c),
(661,157,o),
(606,18,o),
(430,18,c)
);
},
{
closed = 1;
nodes = (
(542,870,l),
(543,871,o),
(543,873,o),
(543,875,c),
(545,883,o),
(537,885,o),
(529,885,c),
(441,884,l),
(434,884,o),
(425,879,o),
(423,871,c),
(374,707,l),
(369,691,o),
(393,691,o),
(399,698,c)
);
}
);
width = 827;
}
);
unicode = 211;
},
{
glyphname = Ocircumflex;
lastChange = "2023-05-15 06:06:40 +0000";
layers = (
{
hints = (
{
horizontal = 1;
place = (-19, 37);
place = (-19, 37);
type = Stem;
},
{
horizontal = 1;
place = (631, 36);
place = (631, 36);
type = Stem;
},
{
place = (53, 108);
place = (53, 108);
type = Stem;
},
{
place = (661, 108);
place = (661, 108);
type = Stem;
}
);
layerId = m01;
shapes = (
{
closed = 1;
nodes = (
(619,-19,o),
(769,138,o),
(769,339,c),
(769,527,o),
(623,667,o),
(414,667,c),
(202,667,o),
(53,515,o),
(53,312,c),
(53,125,o),
(203,-19,o),
(412,-19,c)
);
},
{
closed = 1;
nodes = (
(272,18,o),
(161,157,o),
(161,338,c),
(161,510,o),
(249,631,o),
(387,631,c),
(552,631,o),
(661,496,o),
(661,309,c),
(661,157,o),
(606,18,o),
(430,18,c)
);
},
{
closed = 1;
nodes = (
(575,697,o),
(572,704,o),
(569,709,c),
(482,861,l),
(477,869,o),
(475,870,o),
(465,871,c),
(452,872,o),
(397,871,o),
(390,870,c),
(385,868,o),
(380,865,o),
(377,860,c),
(288,704,l),
(284,696,o),
(304,691,o),
(312,698,c),
(427,802,l),
(549,698,l),
(551,695,o),
(562,694,o),
(569,696,c)
);
}
);
width = 827;
}
);
unicode = 212;
},
{
glyphname = Odieresis;
lastChange = "2023-05-15 06:06:40 +0000";
layers = (
{
hints = (
{
horizontal = 1;
place = (-19, 37);
place = (-19, 37);
type = Stem;
},
{
horizontal = 1;
place = (631, 36);
place = (631, 36);
type = Stem;
},
{
horizontal = 1;
place = (704, 120);
place = (704, 120);
type = Stem;
},
{
place = (53, 108);
place = (53, 108);
type = Stem;
},
{
place = (265, 121);
place = (265, 121);
type = Stem;
},
{
place = (443, 121);
place = (443, 121);
type = Stem;
},
{
place = (661, 108);
place = (661, 108);
type = Stem;
}
);
layerId = m01;
shapes = (
{
closed = 1;
nodes = (
(619,-19,o),
(769,138,o),
(769,339,c),
(769,527,o),
(624,667,o),
(415,667,c),
(202,667,o),
(53,515,o),
(53,312,c),
(53,125,o),
(204,-19,o),
(413,-19,c)
);
},
{
closed = 1;
nodes = (
(272,18,o),
(161,157,o),
(161,338,c),
(161,510,o),
(249,631,o),
(387,631,c),
(552,631,o),
(661,496,o),
(661,309,c),
(661,157,o),
(606,18,o),
(430,18,c)
);
},
{
closed = 1;
nodes = (
(359,704,o),
(386,730,o),
(386,764,c),
(386,797,o),
(359,824,o),
(326,824,c),
(293,824,o),
(265,797,o),
(265,764,c),
(265,730,o),
(293,704,o),
(326,704,c)
);
},
{
closed = 1;
nodes = (
(537,704,o),
(564,731,o),
(564,764,c),
(564,797,o),
(537,824,o),
(503,824,c),
(470,824,o),
(443,797,o),
(443,764,c),
(443,731,o),
(470,704,o),
(503,704,c)
);
}
);
width = 827;
}
);
unicode = 214;
},
{
glyphname = Ograve;
lastChange = "2023-05-15 06:06:40 +0000";
layers = (
{
hints = (
{
horizontal = 1;
place = (881, -20);
target = down;
type = TopGhost;
},
{
horizontal = 1;
place = (-19, 37);
place = (-19, 37);
type = Stem;
},
{
horizontal = 1;
place = (631, 36);
place = (631, 36);
type = Stem;
},
{
place = (53, 108);
place = (53, 108);
type = Stem;
},
{
place = (661, 108);
place = (661, 108);
type = Stem;
},
{
horizontal = 1;
place = (880, -20);
target = down;
type = TopGhost;
}
);
layerId = m01;
shapes = (
{
closed = 1;
nodes = (
(619,-19,o),
(769,138,o),
(769,339,c),
(769,527,o),
(624,667,o),
(415,667,c),
(202,667,o),
(53,515,o),
(53,312,c),
(53,125,o),
(204,-19,o),
(413,-19,c)
);
},
{
closed = 1;
nodes = (
(272,18,o),
(161,157,o),
(161,338,c),
(161,510,o),
(249,631,o),
(387,631,c),
(552,631,o),
(661,496,o),
(661,309,c),
(661,157,o),
(606,18,o),
(430,18,c)
);
},
{
closed = 1;
nodes = (
(467,696,o),
(485,697,o),
(485,710,c),
(474,753,o),
(452,828,o),
(435,873,c),
(431,881,o),
(425,881,o),
(416,881,c),
(340,880,l),
(327,880,o),
(319,867,o),
(325,861,c),
(368,814,o),
(427,745,o),
(459,703,c)
);
}
);
width = 827;
}
);
unicode = 210;
},
{
glyphname = Oslash;
lastChange = "2023-05-15 06:06:40 +0000";
layers = (
{
hints = (
{
horizontal = 1;
place = (-21, 36);
place = (-21, 36);
type = Stem;
},
{
horizontal = 1;
place = (639, 36);
place = (639, 36);
type = Stem;
},
{
place = (50, 109);
place = (50, 109);
type = Stem;
},
{
place = (696, 109);
place = (696, 109);
type = Stem;
}
);
layerId = m01;
shapes = (
{
closed = 1;
nodes = (
(106,-75,o),
(111,-69,o),
(117,-62,c),
(192,27,l),
(202,39,o),
(212,37,o),
(221,32,c),
(283,-2,o),
(356,-21,o),
(429,-21,c),
(641,-21,o),
(805,137,o),
(805,342,c),
(805,441,o),
(770,518,o),
(695,583,c),
(688,589,o),
(683,594,o),
(691,603,c),
(750,670,l),
(757,678,o),
(763,687,o),
(754,693,c),
(746,699,l),
(738,705,o),
(731,701,o),
(728,698,c),
(667,624,l),
(659,615,o),
(654,613,o),
(646,618,c),
(580,658,o),
(509,675,o),
(432,675,c),
(216,675,o),
(50,520,o),
(50,317,c),
(50,217,o),
(93,129,o),
(168,67,c),
(172,64,o),
(174,53,o),
(166,44,c),
(88,-43,l),
(78,-55,o),
(89,-61,o),
(98,-68,c)
);
},
{
closed = 1;
nodes = (
(381,15,o),
(323,37,o),
(270,82,c),
(266,86,o),
(257,98,o),
(267,110,c),
(354,211,o),
(528,414,o),
(616,516,c),
(624,525,o),
(633,523,o),
(636,519,c),
(676,461,o),
(696,390,o),
(696,310,c),
(696,235,o),
(676,168,o),
(638,114,c),
(591,46,o),
(531,15,o),
(447,15,c)
);
},
{
closed = 1;
nodes = (
(238,128,o),
(229,125,o),
(219,139,c),
(180,195,o),
(159,264,o),
(159,342,c),
(159,516,o),
(262,639,o),
(403,639,c),
(477,639,o),
(543,613,o),
(594,566,c),
(605,556,o),
(599,548,o),
(592,542,c),
(504,445,o),
(332,242,o),
(245,136,c)
);
}
);
width = 851;
}
);
unicode = 216;
},
{
glyphname = Otilde;
lastChange = "2023-05-15 06:06:40 +0000";
layers = (
{
hints = (
{
place = (661, 108);
place = (661, 108);
type = Stem;
},
{
horizontal = 1;
place = (631, 36);
place = (631, 36);
type = Stem;
},
{
place = (53, 108);
place = (53, 108);
type = Stem;
},
{
horizontal = 1;
place = (-19, 37);
place = (-19, 37);
type = Stem;
},
{
horizontal = 1;
place = (840, -20);
target = down;
type = TopGhost;
},
{
horizontal = 1;
place = (697, 71);
place = (697, 71);
type = Stem;
},
{
horizontal = 1;
place = (765, 70);
place = (765, 70);
type = Stem;
}
);
layerId = m01;
shapes = (
{
closed = 1;
nodes = (
(619,-19,o),
(769,138,o),
(769,339,c),
(769,527,o),
(624,667,o),
(415,667,c),
(202,667,o),
(53,515,o),
(53,312,c),
(53,125,o),
(204,-19,o),
(413,-19,c)
);
},
{
closed = 1;
nodes = (
(272,18,o),
(161,157,o),
(161,338,c),
(161,510,o),
(249,631,o),
(387,631,c),
(552,631,o),
(661,496,o),
(661,309,c),
(661,157,o),
(606,18,o),
(430,18,c)
);
},
{
closed = 1;
nodes = (
(526,697,o),
(567,750,o),
(567,821,c),
(567,824,o),
(567,828,o),
(565,834,c),
(565,838,o),
(559,841,o),
(553,840,c),
(547,840,o),
(540,838,o),
(540,834,c),
(532,780,o),
(521,768,o),
(500,768,c),
(488,768,o),
(472,774,o),
(441,795,c),
(396,826,o),
(373,835,o),
(343,835,c),
(282,835,o),
(249,786,o),
(245,700,c),
(247,687,o),
(268,692,o),
(272,700,c),
(273,710,o),
(275,714,o),
(275,718,c),
(283,754,o),
(293,765,o),
(312,765,c),
(325,765,o),
(334,762,o),
(371,736,c),
(409,710,o),
(441,697,o),
(468,697,c)
);
}
);
width = 827;
}
);
unicode = 213;
},
{
glyphname = OE;
lastChange = "2023-05-15 06:06:40 +0000";
layers = (
{
hints = (
{
horizontal = 1;
place = (-12, 57);
place = (-12, 57);
type = Stem;
},
{
place = (547, 98);
place = (547, 98);
type = Stem;
},
{
horizontal = 1;
place = (314, 49);
place = (314, 49);
type = Stem;
},
{
horizontal = 1;
place = (609, 49);
place = (609, 49);
type = Stem;
},
{
place = (60, 102);
place = (60, 102);
type = Stem;
},
{
horizontal = 1;
place = (657, -20);
target = down;
type = TopGhost;
},
{
horizontal = 1;
place = (-12, 37);
place = (-12, 37);
type = Stem;
},
{
horizontal = 1;
place = (664, -20);
target = down;
type = TopGhost;
},
{
horizontal = 1;
place = (-3, 21);
target = up;
type = BottomGhost;
},
{
horizontal = 1;
place = (-4, 21);
target = up;
type = BottomGhost;
},
{
horizontal = 1;
place = (628, 30);
place = (628, 30);
type = Stem;
}
);
layerId = m01;
shapes = (
{
closed = 1;
nodes = (
(459,-12,o),
(526,-3,o),
(594,-3,c),
(715,-3,o),
(826,-4,o),
(947,-4,c),
(964,-4,o),
(976,-4,o),
(979,15,c),
(984,51,o),
(993,105,o),
(993,145,c),
(994,156,o),
(993,161,o),
(985,161,c),
(974,161,l),
(961,161,o),
(965,156,o),
(962,146,c),
(953,112,o),
(943,92,o),
(929,74,c),
(908,49,o),
(895,45,o),
(817,45,c),
(671,45,l),
(662,45,o),
(645,55,o),
(645,62,c),
(645,297,l),
(645,304,o),
(651,314,o),
(663,314,c),
(801,314,l),
(855,314,o),
(868,305,o),
(873,247,c),
(874,240,o),
(875,232,o),
(883,232,c),
(897,232,l),
(906,232,o),
(905,248,o),
(905,254,c),
(906,307,o),
(907,389,o),
(905,433,c),
(904,439,o),
(905,444,o),
(897,444,c),
(883,444,l),
(876,444,o),
(874,438,o),
(873,433,c),
(871,417,o),
(867,387,o),
(856,375,c),
(846,366,o),
(830,363,o),
(792,363,c),
(674,363,l),
(665,363,o),
(645,362,o),
(645,375,c),
(645,594,l),
(645,603,o),
(658,609,o),
(664,609,c),
(839,609,l),
(893,609,o),
(901,602,o),
(918,535,c),
(923,515,l),
(927,499,o),
(931,505,o),
(945,505,c),
(954,505,o),
(954,510,o),
(954,517,c),
(955,547,o),
(951,601,o),
(947,640,c),
(945,656,o),
(942,658,o),
(927,658,c),
(639,658,l),
(607,658,o),
(596,657,o),
(585,657,c),
(574,657,o),
(562,658,o),
(528,660,c),
(491,662,o),
(455,664,o),
(417,664,c),
(344,664,o),
(296,654,o),
(247,630,c),
(133,574,o),
(60,454,o),
(60,321,c),
(60,135,o),
(207,-12,o),
(392,-12,c)
);
},
{
closed = 1;
nodes = (
(272,25,o),
(162,162,o),
(162,341,c),
(162,522,o),
(253,628,o),
(404,628,c),
(502,628,o),
(547,589,o),
(547,510,c),
(547,226,l),
(547,104,o),
(541,81,o),
(506,54,c),
(481,35,o),
(449,25,o),
(412,25,c)
);
}
);
width = 1036;
}
);
unicode = 338;
},
{
glyphname = P;
lastChange = "2023-05-15 06:06:40 +0000";
layers = (
{
hints = (
{
place = (431, 106);
place = (431, 106);
type = Stem;
},
{
horizontal = 1;
place = (659, -20);
target = down;
type = TopGhost;
},
{
horizontal = 1;
place = (-4, 41);
place = (-4, 41);
type = Stem;
},
{
horizontal = 1;
place = (269, 32);
place = (269, 32);
type = Stem;
},
{
place = (131, 97);
place = (131, 97);
type = Stem;
},
{
horizontal = 1;
place = (650, -20);
target = down;
type = TopGhost;
}
);
layerId = m01;
shapes = (
{
closed = 1;
nodes = (
(353,-8,o),
(357,32,o),
(340,37,c),
(327,40,o),
(318,37,o),
(305,37,c),
(245,36,o),
(228,45,o),
(228,99,c),
(228,252,l),
(229,261,o),
(232,275,o),
(238,274,c),
(257,271,o),
(264,269,o),
(288,269,c),
(445,269,o),
(537,347,o),
(537,472,c),
(537,555,o),
(483,623,o),
(396,646,c),
(357,656,o),
(333,659,o),
(263,659,c),
(185,659,o),
(113,660,o),
(33,650,c),
(27,650,o),
(25,641,o),
(25,633,c),
(26,626,o),
(29,618,o),
(33,619,c),
(83,620,l),
(123,621,o),
(131,603,o),
(131,539,c),
(131,78,l),
(131,40,o),
(117,37,o),
(70,37,c),
(55,37,o),
(41,34,o),
(40,15,c),
(40,10,o),
(41,6,o),
(43,2,c),
(45,-1,o),
(47,-4,o),
(61,-4,c),
(132,-2,o),
(261,-2,o),
(339,-5,c)
);
},
{
closed = 1;
nodes = (
(264,301,o),
(258,302,o),
(242,305,c),
(235,307,o),
(228,313,o),
(228,322,c),
(228,604,l),
(228,612,o),
(230,626,o),
(238,627,c),
(282,633,o),
(323,632,o),
(363,610,c),
(405,588,o),
(431,539,o),
(431,475,c),
(431,371,o),
(384,301,o),
(281,301,c)
);
}
);
width = 577;
}
);
unicode = 80;
},
{
glyphname = Thorn;
lastChange = "2023-05-15 06:06:40 +0000";
layers = (
{
hints = (
{
place = (446, 108);
place = (446, 108);
type = Stem;
},
{
horizontal = 1;
place = (506, 29);
place = (506, 29);
type = Stem;
},
{
place = (120, 97);
place = (120, 97);
type = Stem;
},
{
horizontal = 1;
place = (626, 32);
place = (626, 32);
type = Stem;
},
{
horizontal = 1;
place = (-5, 34);
place = (-5, 34);
type = Stem;
},
{
horizontal = 1;
place = (139, 33);
place = (139, 33);
type = Stem;
},
{
horizontal = 1;
place = (659, -20);
target = down;
type = TopGhost;
},
{
horizontal = 1;
place = (-4, 21);
target = up;
type = BottomGhost;
}
);
layerId = m01;
shapes = (
{
closed = 1;
nodes = (
(120,-2,o),
(253,-2,o),
(322,-4,c),
(340,-4,o),
(339,9,o),
(338,19,c),
(338,26,o),
(327,28,o),
(317,29,c),
(307,30,o),
(297,29,o),
(296,29,c),
(236,29,o),
(217,43,o),
(217,98,c),
(217,132,l),
(217,136,o),
(218,146,o),
(227,144,c),
(252,140,o),
(274,139,o),
(299,139,c),
(456,139,o),
(554,218,o),
(554,345,c),
(554,402,o),
(534,446,o),
(490,481,c),
(466,500,o),
(438,513,o),
(411,520,c),
(374,529,o),
(325,535,o),
(269,535,c),
(260,535,o),
(253,535,o),
(237,535,c),
(226,534,o),
(217,546,o),
(217,554,c),
(217,576,l),
(217,596,o),
(219,603,o),
(224,611,c),
(230,621,o),
(239,623,o),
(281,626,c),
(285,626,o),
(289,626,o),
(291,626,c),
(294,626,o),
(296,626,o),
(297,627,c),
(300,627,o),
(301,630,o),
(301,638,c),
(301,649,l),
(301,656,o),
(299,658,o),
(286,658,c),
(220,655,o),
(88,658,o),
(33,659,c),
(24,659,o),
(19,658,o),
(19,649,c),
(19,640,l),
(19,632,o),
(22,629,o),
(27,628,c),
(29,627,o),
(32,627,o),
(36,627,c),
(40,627,o),
(45,627,o),
(50,627,c),
(56,627,l),
(56,627,l),
(62,626,o),
(79,625,o),
(79,625,c),
(84,625,o),
(88,625,o),
(91,624,c),
(100,623,o),
(108,622,o),
(113,613,c),
(119,603,o),
(120,584,o),
(120,545,c),
(120,126,l),
(120,77,l),
(120,57,o),
(118,51,o),
(113,43,c),
(107,33,o),
(98,27,o),
(56,27,c),
(47,27,o),
(41,25,o),
(39,22,c),
(36,18,o),
(35,12,o),
(34,7,c),
(33,-4,o),
(39,-5,o),
(50,-5,c)
);
},
{
closed = 1;
nodes = (
(255,172,o),
(243,173,o),
(230,175,c),
(221,177,o),
(217,187,o),
(217,199,c),
(217,486,l),
(217,498,o),
(231,502,o),
(239,504,c),
(256,506,o),
(258,506,o),
(275,506,c),
(322,506,o),
(353,498,o),
(378,485,c),
(420,463,o),
(446,412,o),
(446,348,c),
(446,243,o),
(375,172,o),
(271,172,c)
);
}
);
width = 589;
}
);
unicode = 222;
},
{
glyphname = Q;
lastChange = "2023-05-15 06:06:40 +0000";
layers = (
{
hints = (
{
horizontal = 1;
place = (-211, 39);
place = (-211, 39);
type = Stem;
},
{
horizontal = 1;
place = (631, 36);
place = (631, 36);
type = Stem;
},
{
place = (45, 108);
place = (45, 108);
type = Stem;
},
{
place = (651, 108);
place = (651, 108);
type = Stem;
}
);
layerId = m01;
shapes = (
{
closed = 1;
nodes = (
(752,-211,o),
(765,-209,o),
(784,-205,c),
(795,-202,o),
(817,-175,o),
(806,-172,c),
(742,-169,o),
(708,-152,o),
(647,-100,c),
(606,-65,o),
(561,-29,o),
(510,-9,c),
(503,-6,o),
(508,-1,o),
(511,0,c),
(660,49,o),
(759,182,o),
(759,339,c),
(759,527,o),
(622,667,o),
(412,667,c),
(198,667,o),
(45,514,o),
(45,314,c),
(45,135,o),
(175,0,o),
(375,-18,c),
(399,-27,o),
(411,-32,o),
(426,-43,c),
(441,-54,o),
(459,-70,o),
(496,-101,c),
(563,-158,o),
(641,-211,o),
(733,-211,c)
);
},
{
closed = 1;
nodes = (
(267,17,o),
(153,156,o),
(153,338,c),
(153,510,o),
(244,631,o),
(384,631,c),
(549,631,o),
(651,497,o),
(651,309,c),
(651,176,o),
(577,17,o),
(426,17,c)
);
}
);
width = 822;
}
);
unicode = 81;
},
{
glyphname = R;
lastChange = "2023-05-15 06:48:58 +0000";
layers = (
{
hints = (
{
place = (435, 108);
place = (435, 108);
type = Stem;
},
{
horizontal = 1;
place = (628, 31);
place = (628, 31);
type = Stem;
},
{
place = (126, 98);
place = (126, 98);
type = Stem;
},
{
horizontal = 1;
place = (-5, 39);
place = (-5, 39);
type = Stem;
},
{
horizontal = 1;
place = (-3, 21);
target = up;
type = BottomGhost;
},
{
horizontal = 1;
place = (-15, 21);
target = up;
type = BottomGhost;
},
{
horizontal = 1;
place = (-13, 21);
target = up;
type = BottomGhost;
}
);
layerId = m01;
shapes = (
{
closed = 1;
nodes = (
(653,-15,o),
(663,-13,o),
(673,-13,c),
(679,-9,l),
(685,0,o),
(681,10,o),
(673,16,c),
(648,21,o),
(633,29,o),
(619,40,c),
(587,65,o),
(578,73,o),
(556,107,c),
(500,191,l),
(480,221,o),
(464,250,o),
(441,287,c),
(437,293,o),
(435,297,o),
(443,300,c),
(503,331,o),
(543,397,o),
(543,471,c),
(543,519,o),
(523,564,o),
(488,596,c),
(438,641,o),
(399,659,o),
(278,659,c),
(221,659,o),
(105,659,o),
(40,652,c),
(30,651,l),
(16,644,o),
(21,618,o),
(30,618,c),
(124,617,o),
(126,612,o),
(126,515,c),
(126,134,l),
(126,99,l),
(126,45,o),
(109,34,o),
(50,34,c),
(41,34,o),
(24,36,o),
(20,26,c),
(18,20,o),
(17,11,o),
(20,5,c),
(24,-3,o),
(24,-2,o),
(33,-5,c),
(121,-4,o),
(245,-1,o),
(321,-3,c),
(323,-3,o),
(334,1,o),
(335,5,c),
(336,11,o),
(335,22,o),
(334,27,c),
(329,41,o),
(311,35,o),
(300,34,c),
(241,34,o),
(227,45,o),
(225,99,c),
(224,151,o),
(224,196,o),
(224,247,c),
(224,255,o),
(235,263,o),
(244,263,c),
(278,261,o),
(307,265,o),
(340,269,c),
(354,270,o),
(364,246,o),
(370,236,c),
(383,212,o),
(396,189,o),
(410,166,c),
(436,125,o),
(463,83,o),
(495,46,c),
(521,16,o),
(555,-15,o),
(643,-15,c)
);
},
{
closed = 1;
nodes = (
(230,300,o),
(224,305,o),
(224,320,c),
(224,605,l),
(224,624,o),
(252,628,o),
(268,628,c),
(401,628,o),
(435,560,o),
(435,464,c),
(435,394,o),
(400,327,o),
(332,304,c),
(308,296,o),
(265,298,o),
(234,300,c)
);
}
);
width = 696;
}
);
unicode = 82;
},
{
glyphname = S;
lastChange = "2023-05-15 06:06:40 +0000";
layers = (
{
hints = (
{
horizontal = 1;
place = (-19, 40);
place = (-19, 40);
type = Stem;
},
{
horizontal = 1;
place = (631, 36);
place = (631, 36);
type = Stem;
},
{
place = (61, 88);
place = (61, 88);
type = Stem;
},
{
place = (370, 89);
place = (370, 89);
type = Stem;
}
);
layerId = m01;
shapes = (
{
closed = 1;
nodes = (
(377,-19,o),
(459,59,o),
(459,164,c),
(459,303,o),
(295,361,o),
(206,441,c),
(174,469,o),
(149,502,o),
(149,540,c),
(149,593,o),
(184,631,o),
(248,631,c),
(316,631,o),
(360,585,o),
(390,509,c),
(393,503,o),
(416,500,o),
(417,514,c),
(414,541,o),
(404,634,o),
(398,650,c),
(393,652,o),
(382,652,o),
(375,650,c),
(366,642,o),
(364,641,o),
(359,641,c),
(353,641,o),
(344,643,o),
(322,650,c),
(289,661,o),
(275,667,o),
(239,667,c),
(132,667,o),
(61,602,o),
(61,511,c),
(61,417,o),
(139,362,o),
(216,311,c),
(277,271,o),
(370,218,o),
(370,134,c),
(370,70,o),
(321,21,o),
(244,21,c),
(208,21,o),
(189,30,o),
(160,50,c),
(123,76,o),
(105,104,o),
(85,165,c),
(80,171,o),
(55,170,o),
(56,160,c),
(62,89,o),
(76,5,o),
(78,-2,c),
(84,-4,o),
(95,-6,o),
(104,-2,c),
(110,7,o),
(113,9,o),
(119,9,c),
(124,9,o),
(128,8,o),
(149,2,c),
(183,-8,o),
(217,-19,o),
(253,-19,c)
);
}
);
width = 513;
}
);
unicode = 83;
},
{
glyphname = Scaron;
lastChange = "2023-05-15 06:06:40 +0000";
layers = (
{
hints = (
{
horizontal = 1;
place = (885, -20);
target = down;
type = TopGhost;
},
{
horizontal = 1;
place = (-19, 40);
place = (-19, 40);
type = Stem;
},
{
horizontal = 1;
place = (631, 36);
place = (631, 36);
type = Stem;
},
{
horizontal = 1;
place = (667, 37);
place = (667, 37);
type = Stem;
},
{
place = (61, 88);
place = (61, 88);
type = Stem;
},
{
place = (370, 89);
place = (370, 89);
type = Stem;
},
{
horizontal = 1;
place = (886, -20);
target = down;
type = TopGhost;
}
);
layerId = m01;
shapes = (
{
closed = 1;
nodes = (
(377,-19,o),
(459,59,o),
(459,164,c),
(459,303,o),
(295,361,o),
(206,441,c),
(174,469,o),
(149,502,o),
(149,540,c),
(149,593,o),
(184,631,o),
(248,631,c),
(316,631,o),
(360,585,o),
(390,509,c),
(393,503,o),
(416,500,o),
(417,514,c),
(414,541,o),
(404,634,o),
(398,650,c),
(393,652,o),
(382,652,o),
(375,650,c),
(366,642,o),
(364,641,o),
(359,641,c),
(352,641,o),
(344,643,o),
(322,650,c),
(289,661,o),
(275,667,o),
(239,667,c),
(132,667,o),
(61,602,o),
(61,511,c),
(61,417,o),
(139,362,o),
(216,311,c),
(277,271,o),
(370,218,o),
(370,134,c),
(370,70,o),
(321,21,o),
(244,21,c),
(208,21,o),
(189,30,o),
(160,50,c),
(123,76,o),
(105,104,o),
(85,165,c),
(80,171,o),
(55,170,o),
(56,160,c),
(62,89,o),
(76,5,o),
(78,-2,c),
(84,-4,o),
(95,-6,o),
(104,-2,c),
(110,7,o),
(113,9,o),
(119,9,c),
(124,9,o),
(128,8,o),
(149,2,c),
(183,-8,o),
(217,-19,o),
(253,-19,c)
);
},
{
closed = 1;
nodes = (
(297,704,l),
(305,704,o),
(307,705,o),
(311,709,c),
(408,880,l),
(409,883,o),
(403,885,o),
(396,885,c),
(391,885,o),
(384,883,o),
(381,881,c),
(268,776,l),
(134,881,l),
(131,885,o),
(123,886,o),
(117,886,c),
(114,886,o),
(111,886,o),
(109,885,c),
(107,884,o),
(105,882,o),
(107,879,c),
(204,712,l),
(205,708,o),
(210,704,o),
(221,704,c)
);
}
);
width = 513;
}
);
unicode = 352;
},
{
glyphname = T;
lastChange = "2023-05-15 06:48:58 +0000";
layers = (
{
hints = (
{
horizontal = 1;
place = (602, 48);
place = (602, 48);
type = Stem;
},
{
place = (294, 98);
place = (294, 98);
type = Stem;
},
{
horizontal = 1;
place = (-4, 39);
place = (-4, 39);
type = Stem;
},
{
horizontal = 1;
place = (-3, 21);
target = up;
type = BottomGhost;
}
);
layerId = m01;
shapes = (
{
closed = 1;
nodes = (
(264,-2,o),
(415,0,o),
(495,-3,c),
(503,-3,o),
(508,-3,o),
(511,5,c),
(513,11,o),
(513,19,o),
(511,24,c),
(508,32,o),
(504,37,o),
(497,37,c),
(468,37,l),
(410,37,o),
(392,45,o),
(392,99,c),
(392,134,l),
(392,246,o),
(391,471,o),
(392,584,c),
(392,590,o),
(399,602,o),
(406,602,c),
(552,602,l),
(587,602,o),
(603,584,o),
(620,499,c),
(622,490,o),
(622,484,o),
(639,484,c),
(645,484,o),
(653,486,o),
(652,494,c),
(636,667,l),
(631,670,o),
(609,674,o),
(606,667,c),
(599,651,o),
(598,649,o),
(548,650,c),
(449,651,o),
(243,652,o),
(136,650,c),
(119,650,o),
(88,649,o),
(80,667,c),
(78,672,o),
(60,678,o),
(50,667,c),
(44,622,o),
(36,536,o),
(34,495,c),
(33,484,o),
(55,483,o),
(64,489,c),
(82,582,o),
(98,602,o),
(135,602,c),
(156,602,l),
(271,602,l),
(281,602,o),
(294,592,o),
(294,586,c),
(293,462,o),
(294,258,o),
(294,134,c),
(294,106,l),
(294,54,o),
(279,35,o),
(228,35,c),
(216,37,o),
(202,36,o),
(190,36,c),
(185,35,o),
(180,32,o),
(177,27,c),
(175,21,o),
(175,9,o),
(177,3,c),
(178,0,o),
(180,-4,o),
(189,-4,c)
);
}
);
width = 681;
}
);
unicode = 84;
},
{
glyphname = U;
lastChange = "2023-05-15 06:48:58 +0000";
layers = (
{
hints = (
{
horizontal = 1;
place = (-19, 66);
place = (-19, 66);
type = Stem;
},
{
horizontal = 1;
place = (617, 33);
place = (617, 33);
type = Stem;
},
{
place = (118, 97);
place = (118, 97);
type = Stem;
},
{
place = (634, 58);
place = (634, 58);
type = Stem;
}
);
layerId = m01;
shapes = (
{
closed = 1;
nodes = (
(500,-19,o),
(551,4,o),
(608,55,c),
(691,128,o),
(692,201,o),
(692,305,c),
(692,489,l),
(692,597,o),
(707,616,o),
(784,619,c),
(790,620,o),
(793,628,o),
(793,635,c),
(793,642,o),
(790,650,o),
(784,650,c),
(722,651,o),
(588,651,o),
(537,650,c),
(522,650,o),
(527,619,o),
(537,619,c),
(544,617,l),
(622,615,o),
(634,596,o),
(634,485,c),
(634,304,l),
(634,256,o),
(635,211,o),
(618,166,c),
(590,91,o),
(532,47,o),
(425,47,c),
(259,47,o),
(215,164,o),
(215,310,c),
(215,431,o),
(215,481,o),
(215,505,c),
(215,520,o),
(216,534,o),
(216,549,c),
(218,604,o),
(233,618,o),
(292,618,c),
(302,618,l),
(312,616,o),
(316,650,o),
(302,650,c),
(219,652,o),
(60,652,o),
(32,650,c),
(18,649,o),
(22,618,o),
(32,618,c),
(107,617,o),
(118,610,o),
(118,556,c),
(118,295,l),
(118,198,o),
(121,176,o),
(141,131,c),
(185,35,o),
(266,-19,o),
(402,-19,c)
);
}
);
width = 815;
}
);
unicode = 85;
},
{
glyphname = Uacute;
lastChange = "2023-05-15 06:06:40 +0000";
layers = (
{
hints = (
{
horizontal = 1;
place = (885, -20);
target = down;
type = TopGhost;
},
{
horizontal = 1;
place = (-19, 66);
place = (-19, 66);
type = Stem;
},
{
horizontal = 1;
place = (617, 33);
place = (617, 33);
type = Stem;
},
{
place = (118, 97);
place = (118, 97);
type = Stem;
},
{
place = (634, 58);
place = (634, 58);
type = Stem;
},
{
horizontal = 1;
place = (884, -20);
target = down;
type = TopGhost;
}
);
layerId = m01;
shapes = (
{
closed = 1;
nodes = (
(500,-19,o),
(551,4,o),
(608,55,c),
(691,128,o),
(692,201,o),
(692,305,c),
(692,489,l),
(692,597,o),
(707,616,o),
(784,619,c),
(790,620,o),
(793,628,o),
(793,635,c),
(793,642,o),
(790,650,o),
(784,650,c),
(722,651,o),
(588,651,o),
(537,650,c),
(522,650,o),
(527,619,o),
(537,619,c),
(544,617,l),
(622,615,o),
(634,596,o),
(634,485,c),
(634,304,l),
(634,256,o),
(635,211,o),
(618,166,c),
(590,91,o),
(532,47,o),
(425,47,c),
(259,47,o),
(215,164,o),
(215,310,c),
(215,431,o),
(215,481,o),
(215,505,c),
(215,520,o),
(216,534,o),
(216,549,c),
(218,603,o),
(233,618,o),
(292,618,c),
(302,618,l),
(312,616,o),
(316,650,o),
(302,650,c),
(219,652,o),
(60,652,o),
(32,650,c),
(18,649,o),
(22,618,o),
(32,618,c),
(107,617,o),
(118,610,o),
(118,555,c),
(118,295,l),
(118,198,o),
(121,176,o),
(141,131,c),
(185,35,o),
(266,-19,o),
(402,-19,c)
);
},
{
closed = 1;
nodes = (
(527,870,l),
(527,871,o),
(528,873,o),
(528,875,c),
(529,883,o),
(521,885,o),
(514,885,c),
(425,884,l),
(418,884,o),
(409,879,o),
(407,871,c),
(358,707,l),
(353,691,o),
(377,691,o),
(383,698,c)
);
}
);
width = 815;
}
);
unicode = 218;
},
{
glyphname = Ucircumflex;
lastChange = "2023-05-15 06:06:40 +0000";
layers = (
{
hints = (
{
horizontal = 1;
place = (-19, 66);
place = (-19, 66);
type = Stem;
},
{
horizontal = 1;
place = (617, 33);
place = (617, 33);
type = Stem;
},
{
place = (118, 97);
place = (118, 97);
type = Stem;
},
{
place = (634, 58);
place = (634, 58);
type = Stem;
}
);
layerId = m01;
shapes = (
{
closed = 1;
nodes = (
(500,-19,o),
(551,4,o),
(608,55,c),
(691,128,o),
(692,201,o),
(692,305,c),
(692,489,l),
(692,597,o),
(707,616,o),
(784,619,c),
(790,620,o),
(793,628,o),
(793,635,c),
(793,642,o),
(790,650,o),
(784,650,c),
(722,651,o),
(588,651,o),
(537,650,c),
(522,650,o),
(527,619,o),
(537,619,c),
(544,617,l),
(622,615,o),
(634,596,o),
(634,485,c),
(634,304,l),
(634,256,o),
(635,211,o),
(618,166,c),
(590,91,o),
(532,47,o),
(425,47,c),
(259,47,o),
(215,164,o),
(215,310,c),
(215,431,o),
(215,481,o),
(215,505,c),
(215,520,o),
(216,534,o),
(216,549,c),
(218,603,o),
(233,618,o),
(292,618,c),
(302,618,l),
(312,616,o),
(316,650,o),
(302,650,c),
(219,652,o),
(60,652,o),
(32,650,c),
(18,649,o),
(22,618,o),
(32,618,c),
(107,617,o),
(118,610,o),
(118,555,c),
(118,295,l),
(118,198,o),
(121,176,o),
(141,131,c),
(185,35,o),
(266,-19,o),
(402,-19,c)
);
},
{
closed = 1;
nodes = (
(559,697,o),
(557,704,o),
(554,709,c),
(466,861,l),
(462,869,o),
(460,870,o),
(450,871,c),
(436,872,o),
(382,871,o),
(374,870,c),
(369,868,o),
(364,865,o),
(361,860,c),
(273,704,l),
(268,696,o),
(289,691,o),
(296,698,c),
(411,802,l),
(533,698,l),
(536,695,o),
(546,694,o),
(553,696,c)
);
}
);
width = 815;
}
);
unicode = 219;
},
{
glyphname = Udieresis;
lastChange = "2023-05-15 06:06:40 +0000";
layers = (
{
hints = (
{
horizontal = 1;
place = (-19, 66);
place = (-19, 66);
type = Stem;
},
{
horizontal = 1;
place = (617, 33);
place = (617, 33);
type = Stem;
},
{
horizontal = 1;
place = (704, 120);
place = (704, 120);
type = Stem;
},
{
place = (118, 97);
place = (118, 97);
type = Stem;
},
{
place = (265, 121);
place = (265, 121);
type = Stem;
},
{
place = (442, 121);
place = (442, 121);
type = Stem;
},
{
place = (634, 58);
place = (634, 58);
type = Stem;
}
);
layerId = m01;
shapes = (
{
closed = 1;
nodes = (
(500,-19,o),
(551,4,o),
(608,55,c),
(691,128,o),
(692,201,o),
(692,305,c),
(692,489,l),
(692,597,o),
(707,616,o),
(784,619,c),
(790,620,o),
(793,628,o),
(793,635,c),
(793,642,o),
(790,650,o),
(784,650,c),
(722,651,o),
(588,651,o),
(537,650,c),
(522,650,o),
(527,619,o),
(537,619,c),
(544,617,l),
(622,615,o),
(634,596,o),
(634,485,c),
(634,304,l),
(634,256,o),
(635,211,o),
(618,166,c),
(590,91,o),
(532,47,o),
(425,47,c),
(259,47,o),
(215,164,o),
(215,310,c),
(215,431,o),
(215,481,o),
(215,505,c),
(215,520,o),
(216,534,o),
(216,549,c),
(218,603,o),
(233,618,o),
(292,618,c),
(302,618,l),
(312,616,o),
(316,650,o),
(302,650,c),
(219,652,o),
(60,652,o),
(32,650,c),
(18,649,o),
(22,618,o),
(32,618,c),
(107,617,o),
(118,610,o),
(118,555,c),
(118,295,l),
(118,198,o),
(121,176,o),
(141,131,c),
(185,35,o),
(266,-19,o),
(402,-19,c)
);
},
{
closed = 1;
nodes = (
(359,704,o),
(386,730,o),
(386,764,c),
(386,797,o),
(359,824,o),
(326,824,c),
(292,824,o),
(265,797,o),
(265,764,c),
(265,730,o),
(293,704,o),
(326,704,c)
);
},
{
closed = 1;
nodes = (
(537,704,o),
(563,731,o),
(563,764,c),
(563,797,o),
(537,824,o),
(503,824,c),
(470,824,o),
(442,797,o),
(442,764,c),
(442,731,o),
(470,704,o),
(503,704,c)
);
}
);
width = 815;
}
);
unicode = 220;
},
{
glyphname = Ugrave;
lastChange = "2023-05-15 06:06:40 +0000";
layers = (
{
hints = (
{
horizontal = 1;
place = (881, -20);
target = down;
type = TopGhost;
},
{
horizontal = 1;
place = (-19, 66);
place = (-19, 66);
type = Stem;
},
{
horizontal = 1;
place = (617, 33);
place = (617, 33);
type = Stem;
},
{
place = (118, 97);
place = (118, 97);
type = Stem;
},
{
place = (634, 58);
place = (634, 58);
type = Stem;
},
{
horizontal = 1;
place = (880, -20);
target = down;
type = TopGhost;
}
);
layerId = m01;
shapes = (
{
closed = 1;
nodes = (
(500,-19,o),
(551,4,o),
(608,55,c),
(691,128,o),
(692,201,o),
(692,305,c),
(692,489,l),
(692,597,o),
(707,616,o),
(784,619,c),
(790,620,o),
(793,628,o),
(793,635,c),
(793,642,o),
(790,650,o),
(784,650,c),
(722,651,o),
(588,651,o),
(537,650,c),
(522,650,o),
(527,619,o),
(537,619,c),
(544,617,l),
(622,615,o),
(634,596,o),
(634,485,c),
(634,304,l),
(634,256,o),
(635,211,o),
(618,166,c),
(590,91,o),
(532,47,o),
(425,47,c),
(259,47,o),
(215,164,o),
(215,310,c),
(215,431,o),
(215,481,o),
(215,505,c),
(215,520,o),
(216,534,o),
(216,549,c),
(218,603,o),
(233,618,o),
(292,618,c),
(302,618,l),
(312,616,o),
(316,650,o),
(302,650,c),
(219,652,o),
(60,652,o),
(32,650,c),
(18,649,o),
(22,618,o),
(32,618,c),
(107,617,o),
(118,610,o),
(118,555,c),
(118,295,l),
(118,198,o),
(121,176,o),
(141,131,c),
(185,35,o),
(266,-19,o),
(402,-19,c)
);
},
{
closed = 1;
nodes = (
(451,696,o),
(469,697,o),
(469,710,c),
(459,753,o),
(437,828,o),
(420,873,c),
(415,881,o),
(409,881,o),
(401,881,c),
(324,880,l),
(311,880,o),
(304,867,o),
(309,861,c),
(353,814,o),
(412,745,o),
(444,703,c)
);
}
);
width = 815;
}
);
unicode = 217;
},
{
glyphname = V;
lastChange = "2023-05-15 06:48:58 +0000";
layers = (
{
hints = (
{
horizontal = 1;
place = (615, 35);
place = (615, 35);
type = Stem;
},
{
horizontal = 1;
place = (-23, 21);
target = up;
type = BottomGhost;
},
{
horizontal = 1;
place = (-24, 21);
target = up;
type = BottomGhost;
}
);
layerId = m01;
shapes = (
{
closed = 1;
nodes = (
(408,-24,o),
(420,-12,o),
(422,-5,c),
(623,515,l),
(656,601,o),
(675,619,o),
(732,620,c),
(741,621,o),
(744,639,o),
(738,647,c),
(736,650,o),
(733,650,o),
(729,650,c),
(671,648,o),
(554,648,o),
(496,650,c),
(491,650,o),
(485,652,o),
(482,646,c),
(478,638,o),
(480,622,o),
(489,619,c),
(497,619,l),
(563,619,o),
(578,605,o),
(578,580,c),
(578,566,o),
(577,554,o),
(564,520,c),
(418,141,l),
(409,118,o),
(395,140,o),
(393,144,c),
(238,529,l),
(224,565,o),
(221,573,o),
(221,583,c),
(221,605,o),
(248,612,o),
(316,615,c),
(322,618,o),
(326,618,o),
(328,625,c),
(331,631,o),
(330,642,o),
(326,647,c),
(323,652,o),
(310,650,o),
(304,650,c),
(240,648,o),
(110,648,o),
(42,650,c),
(36,650,o),
(27,650,o),
(25,642,c),
(23,637,o),
(22,628,o),
(24,622,c),
(26,618,o),
(32,615,o),
(36,614,c),
(98,613,o),
(106,607,o),
(137,530,c),
(352,-7,l),
(355,-15,o),
(363,-23,o),
(367,-23,c),
(381,-26,o),
(398,-25,o),
(403,-24,c)
);
}
);
width = 761;
}
);
unicode = 86;
},
{
glyphname = W;
lastChange = "2023-05-15 06:48:58 +0000";
layers = (
{
hints = (
{
horizontal = 1;
place = (652, -20);
target = down;
type = TopGhost;
},
{
horizontal = 1;
place = (618, 33);
place = (618, 33);
type = Stem;
},
{
horizontal = 1;
place = (650, -20);
target = down;
type = TopGhost;
}
);
layerId = m01;
shapes = (
{
closed = 1;
nodes = (
(544,268,l),
(552,287,o),
(559,279,o),
(561,273,c),
(680,-12,l),
(685,-20,o),
(741,-21,o),
(745,-10,c),
(951,530,l),
(981,609,o),
(997,620,o),
(1055,620,c),
(1064,620,o),
(1067,628,o),
(1067,636,c),
(1066,644,o),
(1062,652,o),
(1056,652,c),
(991,650,o),
(901,649,o),
(853,651,c),
(842,653,o),
(836,623,o),
(849,621,c),
(918,618,o),
(925,614,o),
(895,536,c),
(742,133,l),
(735,115,o),
(724,114,o),
(721,122,c),
(721,122,o),
(649,293,o),
(606,397,c),
(601,408,o),
(604,419,o),
(606,425,c),
(656,547,l),
(682,610,o),
(693,617,o),
(766,618,c),
(773,620,o),
(780,651,o),
(764,651,c),
(612,652,o),
(448,654,o),
(340,651,c),
(326,651,o),
(331,621,o),
(339,619,c),
(413,616,o),
(421,611,o),
(447,548,c),
(518,377,l),
(521,369,o),
(523,363,o),
(519,354,c),
(430,135,l),
(420,109,o),
(409,124,o),
(407,130,c),
(249,527,l),
(233,567,o),
(230,580,o),
(230,590,c),
(230,611,o),
(233,618,o),
(280,618,c),
(289,618,l),
(295,620,o),
(300,651,o),
(289,651,c),
(201,655,o),
(70,652,o),
(36,650,c),
(29,650,o),
(18,648,o),
(17,643,c),
(14,635,o),
(15,621,o),
(21,618,c),
(26,615,o),
(32,615,o),
(36,615,c),
(113,613,o),
(122,610,o),
(159,515,c),
(363,-9,l),
(368,-22,o),
(425,-24,o),
(430,-12,c)
);
},
{
closed = 1;
nodes = (
(536,563,o),
(533,571,o),
(529,578,c),
(526,587,o),
(522,596,o),
(522,605,c),
(522,613,o),
(527,618,o),
(549,618,c),
(562,616,o),
(582,617,o),
(591,618,c),
(611,618,o),
(618,612,o),
(618,604,c),
(618,598,o),
(616,591,o),
(605,565,c),
(579,502,l),
(578,500,o),
(570,485,o),
(567,491,c)
);
}
);
width = 1086;
}
);
unicode = 87;
},
{
glyphname = X;
lastChange = "2023-05-15 06:06:40 +0000";
layers = (
{
hints = (
{
horizontal = 1;
place = (618, 33);
place = (618, 33);
type = Stem;
},
{
horizontal = 1;
place = (-2, 34);
place = (-2, 34);
type = Stem;
},
{
horizontal = 1;
place = (650, -20);
target = down;
type = TopGhost;
},
{
horizontal = 1;
place = (652, -20);
target = down;
type = TopGhost;
},
{
horizontal = 1;
place = (-3, 21);
target = up;
type = BottomGhost;
}
);
layerId = m01;
shapes = (
{
closed = 1;
nodes = (
(286,-3,o),
(285,29,o),
(270,29,c),
(261,29,l),
(209,29,o),
(200,38,o),
(200,50,c),
(200,58,o),
(208,75,o),
(224,96,c),
(224,96,o),
(364,270,o),
(364,271,c),
(370,278,o),
(381,280,o),
(384,278,c),
(511,105,l),
(520,93,o),
(542,66,o),
(543,50,c),
(543,37,o),
(530,29,o),
(490,29,c),
(480,29,l),
(471,29,o),
(470,11,o),
(474,2,c),
(478,-5,o),
(485,-3,o),
(491,-3,c),
(575,-1,o),
(713,0,o),
(758,-2,c),
(764,-2,o),
(768,5,o),
(768,12,c),
(768,20,o),
(765,28,o),
(759,29,c),
(714,34,o),
(691,41,o),
(672,55,c),
(650,71,o),
(632,99,o),
(615,121,c),
(439,351,l),
(438,353,o),
(434,359,o),
(438,365,c),
(535,494,l),
(585,561,o),
(628,613,o),
(716,618,c),
(730,617,o),
(732,649,o),
(715,651,c),
(654,648,o),
(539,648,o),
(483,650,c),
(477,650,o),
(471,651,o),
(466,644,c),
(461,636,o),
(460,618,o),
(482,618,c),
(506,618,l),
(539,618,o),
(550,603,o),
(529,572,c),
(494,520,o),
(450,465,o),
(413,416,c),
(408,409,o),
(399,402,o),
(393,410,c),
(290,548,l),
(282,559,o),
(258,585,o),
(258,599,c),
(258,612,o),
(268,616,o),
(326,618,c),
(342,618,o),
(347,633,o),
(342,644,c),
(339,652,o),
(332,652,o),
(325,652,c),
(250,648,o),
(114,648,o),
(44,651,c),
(27,652,o),
(24,633,o),
(27,622,c),
(28,617,o),
(38,613,o),
(42,613,c),
(122,611,o),
(131,604,o),
(193,524,c),
(339,336,l),
(341,333,o),
(340,324,o),
(337,321,c),
(192,137,l),
(174,114,o),
(162,98,o),
(152,85,c),
(121,44,o),
(89,36,o),
(37,32,c),
(30,32,o),
(27,22,o),
(27,15,c),
(27,8,o),
(30,-2,o),
(36,-2,c),
(107,1,o),
(219,-2,o),
(272,-3,c)
);
}
);
width = 785;
}
);
unicode = 88;
},
{
glyphname = Y;
lastChange = "2023-05-15 06:48:58 +0000";
layers = (
{
hints = (
{
horizontal = 1;
place = (619, 31);
place = (619, 31);
type = Stem;
},
{
place = (341, 97);
place = (341, 97);
type = Stem;
},
{
horizontal = 1;
place = (-4, 39);
place = (-4, 39);
type = Stem;
},
{
horizontal = 1;
place = (-3, 21);
target = up;
type = BottomGhost;
}
);
layerId = m01;
shapes = (
{
closed = 1;
nodes = (
(535,-4,o),
(539,4,o),
(539,13,c),
(539,22,o),
(535,31,o),
(527,33,c),
(514,36,o),
(505,33,o),
(494,34,c),
(451,40,o),
(438,62,o),
(438,99,c),
(438,128,o),
(439,204,o),
(438,253,c),
(586,504,l),
(602,531,o),
(616,559,o),
(638,582,c),
(657,602,o),
(683,616,o),
(721,618,c),
(728,618,o),
(730,629,o),
(730,635,c),
(730,642,o),
(728,650,o),
(721,650,c),
(642,648,o),
(549,648,o),
(498,650,c),
(484,651,o),
(483,623,o),
(495,618,c),
(505,618,l),
(551,618,o),
(562,611,o),
(562,592,c),
(562,581,o),
(557,570,o),
(530,525,c),
(423,344,l),
(417,333,o),
(401,323,o),
(396,331,c),
(262,537,l),
(233,582,o),
(231,588,o),
(231,599,c),
(231,610,o),
(243,619,o),
(293,619,c),
(318,619,o),
(304,650,o),
(296,650,c),
(242,648,o),
(96,649,o),
(27,650,c),
(22,651,o),
(17,646,o),
(16,638,c),
(15,635,o),
(15,627,o),
(16,624,c),
(18,616,o),
(24,617,o),
(30,617,c),
(90,614,o),
(110,602,o),
(158,527,c),
(341,241,l),
(343,203,o),
(342,132,o),
(340,99,c),
(338,62,o),
(322,37,o),
(284,35,c),
(277,35,o),
(266,37,o),
(257,36,c),
(247,36,o),
(239,34,o),
(236,26,c),
(232,15,o),
(236,-3,o),
(247,-3,c),
(356,0,o),
(405,-2,o),
(527,-4,c)
);
}
);
width = 728;
}
);
unicode = 89;
},
{
glyphname = Yacute;
lastChange = "2023-05-15 06:06:40 +0000";
layers = (
{
hints = (
{
horizontal = 1;
place = (885, -20);
target = down;
type = TopGhost;
},
{
horizontal = 1;
place = (-4, 39);
place = (-4, 39);
type = Stem;
},
{
horizontal = 1;
place = (619, 31);
place = (619, 31);
type = Stem;
},
{
place = (341, 97);
place = (341, 97);
type = Stem;
},
{
horizontal = 1;
place = (884, -20);
target = down;
type = TopGhost;
},
{
horizontal = 1;
place = (-3, 21);
target = up;
type = BottomGhost;
}
);
layerId = m01;
shapes = (
{
closed = 1;
nodes = (
(535,-4,o),
(539,4,o),
(539,13,c),
(539,22,o),
(535,31,o),
(527,33,c),
(514,36,o),
(505,33,o),
(494,34,c),
(451,40,o),
(438,62,o),
(438,99,c),
(438,128,o),
(439,204,o),
(438,253,c),
(586,504,l),
(602,531,o),
(616,559,o),
(638,582,c),
(657,602,o),
(683,616,o),
(721,618,c),
(728,618,o),
(730,629,o),
(730,635,c),
(730,642,o),
(728,650,o),
(721,650,c),
(642,648,o),
(549,648,o),
(498,650,c),
(484,650,o),
(483,623,o),
(495,618,c),
(505,618,l),
(551,618,o),
(562,611,o),
(562,592,c),
(562,581,o),
(557,570,o),
(530,525,c),
(423,344,l),
(417,333,o),
(401,323,o),
(396,331,c),
(262,537,l),
(233,582,o),
(230,588,o),
(230,599,c),
(230,610,o),
(243,619,o),
(293,619,c),
(318,619,o),
(304,650,o),
(296,650,c),
(242,648,o),
(96,649,o),
(27,650,c),
(22,650,o),
(17,646,o),
(16,638,c),
(15,634,o),
(15,627,o),
(16,624,c),
(18,616,o),
(24,617,o),
(30,617,c),
(90,614,o),
(110,602,o),
(158,527,c),
(341,241,l),
(343,203,o),
(342,132,o),
(340,99,c),
(338,62,o),
(322,37,o),
(284,35,c),
(277,35,o),
(266,37,o),
(257,36,c),
(247,36,o),
(239,34,o),
(236,26,c),
(232,15,o),
(236,-3,o),
(247,-3,c),
(356,0,o),
(405,-2,o),
(527,-4,c)
);
},
{
closed = 1;
nodes = (
(483,870,l),
(483,871,o),
(484,873,o),
(484,875,c),
(485,883,o),
(477,885,o),
(470,885,c),
(381,884,l),
(374,884,o),
(367,879,o),
(363,871,c),
(314,707,l),
(309,691,o),
(333,691,o),
(339,698,c)
);
}
);
width = 741;
}
);
unicode = 221;
},
{
glyphname = Ydieresis;
lastChange = "2023-05-15 06:06:40 +0000";
layers = (
{
hints = (
{
place = (399, 120);
place = (399, 120);
type = Stem;
},
{
horizontal = 1;
place = (704, 120);
place = (704, 120);
type = Stem;
},
{
place = (221, 121);
place = (221, 121);
type = Stem;
},
{
horizontal = 1;
place = (619, 31);
place = (619, 31);
type = Stem;
},
{
horizontal = 1;
place = (-4, 39);
place = (-4, 39);
type = Stem;
},
{
place = (341, 97);
place = (341, 97);
type = Stem;
},
{
horizontal = 1;
place = (-3, 21);
target = up;
type = BottomGhost;
}
);
layerId = m01;
shapes = (
{
closed = 1;
nodes = (
(535,-4,o),
(539,4,o),
(539,13,c),
(539,22,o),
(535,31,o),
(527,33,c),
(514,36,o),
(505,33,o),
(494,34,c),
(451,40,o),
(438,62,o),
(438,99,c),
(438,128,o),
(439,204,o),
(438,253,c),
(586,504,l),
(602,531,o),
(616,559,o),
(638,582,c),
(657,602,o),
(683,616,o),
(721,618,c),
(728,618,o),
(730,629,o),
(730,635,c),
(730,642,o),
(728,650,o),
(721,650,c),
(642,648,o),
(549,648,o),
(498,650,c),
(484,650,o),
(483,623,o),
(495,618,c),
(505,618,l),
(551,618,o),
(562,611,o),
(562,592,c),
(562,581,o),
(557,570,o),
(530,525,c),
(423,344,l),
(417,333,o),
(401,323,o),
(396,331,c),
(262,537,l),
(233,582,o),
(230,588,o),
(230,599,c),
(230,610,o),
(243,619,o),
(293,619,c),
(318,619,o),
(304,650,o),
(296,650,c),
(242,648,o),
(96,649,o),
(27,650,c),
(22,650,o),
(17,646,o),
(16,638,c),
(15,634,o),
(15,627,o),
(16,624,c),
(18,616,o),
(24,617,o),
(30,617,c),
(90,614,o),
(110,602,o),
(158,527,c),
(341,241,l),
(343,203,o),
(342,132,o),
(340,99,c),
(338,62,o),
(322,37,o),
(284,35,c),
(277,35,o),
(266,37,o),
(257,36,c),
(247,36,o),
(239,34,o),
(236,26,c),
(232,15,o),
(236,-3,o),
(247,-3,c),
(356,0,o),
(405,-2,o),
(527,-4,c)
);
},
{
closed = 1;
nodes = (
(315,704,o),
(342,730,o),
(342,764,c),
(342,797,o),
(315,824,o),
(282,824,c),
(249,824,o),
(221,797,o),
(221,764,c),
(221,730,o),
(249,704,o),
(282,704,c)
);
},
{
closed = 1;
nodes = (
(493,704,o),
(519,731,o),
(519,764,c),
(519,797,o),
(493,824,o),
(459,824,c),
(426,824,o),
(399,797,o),
(399,764,c),
(399,731,o),
(426,704,o),
(459,704,c)
);
}
);
width = 728;
}
);
unicode = 376;
},
{
glyphname = Z;
lastChange = "2023-05-15 06:06:40 +0000";
layers = (
{
hints = (
{
horizontal = 1;
place = (-3, 51);
place = (-3, 51);
type = Stem;
},
{
horizontal = 1;
place = (602, 48);
place = (602, 48);
type = Stem;
},
{
horizontal = 1;
place = (-2, 21);
target = up;
type = BottomGhost;
}
);
layerId = m01;
shapes = (
{
closed = 1;
nodes = (
(389,-3,o),
(521,-2,o),
(593,-2,c),
(599,-2,o),
(621,0,o),
(623,10,c),
(628,56,o),
(634,145,o),
(636,195,c),
(636,202,o),
(610,199,o),
(605,193,c),
(604,183,l),
(594,83,o),
(569,48,o),
(465,48,c),
(211,48,l),
(172,48,o),
(181,65,o),
(187,71,c),
(611,619,l),
(624,640,o),
(610,650,o),
(590,650,c),
(114,650,l),
(107,649,o),
(94,647,o),
(92,640,c),
(88,606,o),
(87,536,o),
(87,500,c),
(92,488,o),
(115,490,o),
(115,495,c),
(127,595,o),
(141,602,o),
(240,602,c),
(454,602,l),
(459,602,o),
(476,598,o),
(469,588,c),
(41,30,l),
(39,27,o),
(36,19,o),
(36,15,c),
(34,1,o),
(47,-2,o),
(56,-2,c),
(61,-3,o),
(160,-3,o),
(275,-3,c)
);
}
);
width = 705;
}
);
unicode = 90;
},
{
glyphname = Zcaron;
lastChange = "2023-05-15 06:06:40 +0000";
layers = (
{
hints = (
{
horizontal = 1;
place = (885, -20);
target = down;
type = TopGhost;
},
{
horizontal = 1;
place = (-3, 51);
place = (-3, 51);
type = Stem;
},
{
horizontal = 1;
place = (602, 48);
place = (602, 48);
type = Stem;
},
{
horizontal = 1;
place = (650, 54);
place = (650, 54);
type = Stem;
},
{
horizontal = 1;
place = (886, -20);
target = down;
type = TopGhost;
},
{
horizontal = 1;
place = (-2, 21);
target = up;
type = BottomGhost;
}
);
layerId = m01;
shapes = (
{
closed = 1;
nodes = (
(389,-3,o),
(521,-2,o),
(593,-2,c),
(599,-2,o),
(621,0,o),
(623,10,c),
(628,56,o),
(634,145,o),
(636,195,c),
(636,202,o),
(610,199,o),
(605,193,c),
(604,183,l),
(594,83,o),
(569,48,o),
(465,48,c),
(211,48,l),
(172,48,o),
(181,65,o),
(187,71,c),
(610,619,l),
(625,639,o),
(610,650,o),
(590,650,c),
(114,650,l),
(107,649,o),
(94,647,o),
(92,640,c),
(88,606,o),
(87,536,o),
(87,500,c),
(92,488,o),
(115,490,o),
(115,495,c),
(127,595,o),
(141,602,o),
(240,602,c),
(454,602,l),
(459,602,o),
(476,597,o),
(469,588,c),
(41,30,l),
(39,27,o),
(36,19,o),
(35,15,c),
(34,1,o),
(47,-2,o),
(56,-2,c),
(61,-3,o),
(160,-3,o),
(275,-3,c)
);
},
{
closed = 1;
nodes = (
(394,704,l),
(402,704,o),
(404,705,o),
(408,709,c),
(505,880,l),
(506,883,o),
(500,885,o),
(493,885,c),
(487,885,o),
(481,883,o),
(478,881,c),
(365,776,l),
(230,881,l),
(227,885,o),
(220,886,o),
(214,886,c),
(211,886,o),
(208,886,o),
(206,885,c),
(204,884,o),
(202,882,o),
(204,879,c),
(301,712,l),
(301,708,o),
(307,704,o),
(318,704,c)
);
}
);
width = 709;
}
);
unicode = 381;
},
{
glyphname = a;
lastChange = "2023-05-15 06:06:40 +0000";
layers = (
{
hints = (
{
horizontal = 1;
place = (-12, 48);
place = (-12, 48);
type = Stem;
},
{
horizontal = 1;
place = (389, 42);
place = (389, 42);
type = Stem;
},
{
place = (25, 77);
place = (25, 77);
type = Stem;
},
{
place = (236, 81);
place = (236, 81);
type = Stem;
}
);
layerId = m01;
shapes = (
{
closed = 1;
nodes = (
(160,-12,o),
(181,-2,o),
(224,35,c),
(227,37,o),
(237,49,o),
(239,40,c),
(245,5,o),
(262,-12,o),
(291,-12,c),
(316,-12,o),
(356,10,o),
(397,46,c),
(400,54,o),
(401,69,o),
(390,71,c),
(385,71,o),
(384,70,o),
(381,68,c),
(371,59,o),
(363,55,o),
(357,53,c),
(351,50,o),
(346,50,o),
(339,50,c),
(325,50,o),
(317,57,o),
(317,99,c),
(317,281,l),
(317,344,o),
(316,352,o),
(300,374,c),
(277,407,o),
(231,431,o),
(188,431,c),
(156,431,o),
(131,420,o),
(94,390,c),
(55,360,o),
(31,330,o),
(31,305,c),
(31,286,o),
(37,284,o),
(54,290,c),
(61,292,o),
(107,312,o),
(114,320,c),
(110,329,o),
(111,335,o),
(111,344,c),
(111,367,o),
(147,389,o),
(168,389,c),
(210,389,o),
(235,357,o),
(236,299,c),
(237,235,l),
(237,225,o),
(229,219,o),
(226,217,c),
(192,201,o),
(167,190,o),
(131,180,c),
(62,162,o),
(25,129,o),
(25,78,c),
(25,25,o),
(65,-12,o),
(122,-12,c)
);
},
{
closed = 1;
nodes = (
(126,36,o),
(102,60,o),
(102,91,c),
(102,118,o),
(116,136,o),
(156,152,c),
(180,162,o),
(204,172,o),
(227,183,c),
(236,188,o),
(236,167,o),
(236,163,c),
(236,89,l),
(228,66,o),
(177,36,o),
(157,36,c)
);
}
);
width = 414;
}
);
unicode = 97;
},
{
glyphname = aacute;
lastChange = "2023-05-15 06:06:40 +0000";
layers = (
{
hints = (
{
horizontal = 1;
place = (-12, 48);
place = (-12, 48);
type = Stem;
},
{
horizontal = 1;
place = (389, 42);
place = (389, 42);
type = Stem;
},
{
horizontal = 1;
place = (661, -20);
target = down;
type = TopGhost;
},
{
place = (25, 77);
place = (25, 77);
type = Stem;
},
{
place = (236, 81);
place = (236, 81);
type = Stem;
}
);
layerId = m01;
shapes = (
{
closed = 1;
nodes = (
(160,-12,o),
(181,-2,o),
(224,35,c),
(227,37,o),
(237,49,o),
(239,40,c),
(245,5,o),
(262,-12,o),
(291,-12,c),
(316,-12,o),
(356,10,o),
(397,46,c),
(400,54,o),
(401,69,o),
(390,71,c),
(385,71,o),
(384,70,o),
(381,68,c),
(371,59,o),
(363,55,o),
(357,53,c),
(351,50,o),
(346,50,o),
(339,50,c),
(325,50,o),
(317,57,o),
(317,99,c),
(317,281,l),
(317,344,o),
(316,352,o),
(300,374,c),
(277,407,o),
(231,431,o),
(188,431,c),
(156,431,o),
(131,420,o),
(94,390,c),
(55,360,o),
(31,330,o),
(31,305,c),
(31,286,o),
(37,284,o),
(54,290,c),
(61,292,o),
(107,312,o),
(114,320,c),
(110,329,o),
(111,335,o),
(111,344,c),
(111,367,o),
(147,389,o),
(168,389,c),
(210,389,o),
(235,357,o),
(236,299,c),
(237,235,l),
(237,225,o),
(229,219,o),
(226,217,c),
(192,201,o),
(167,190,o),
(131,180,c),
(62,162,o),
(25,129,o),
(25,78,c),
(25,25,o),
(65,-12,o),
(122,-12,c)
);
},
{
closed = 1;
nodes = (
(126,36,o),
(102,60,o),
(102,91,c),
(102,118,o),
(116,136,o),
(156,152,c),
(180,162,o),
(204,172,o),
(227,183,c),
(236,187,o),
(236,176,o),
(236,172,c),
(236,89,l),
(228,66,o),
(177,36,o),
(157,36,c)
);
},
{
closed = 1;
nodes = (
(320,647,l),
(321,648,o),
(321,650,o),
(322,652,c),
(323,660,o),
(315,661,o),
(308,661,c),
(219,661,l),
(212,661,o),
(203,656,o),
(201,648,c),
(152,484,l),
(147,468,o),
(171,468,o),
(177,475,c)
);
}
);
width = 414;
}
);
unicode = 225;
},
{
glyphname = acircumflex;
lastChange = "2023-05-15 06:06:40 +0000";
layers = (
{
hints = (
{
horizontal = 1;
place = (-12, 48);
place = (-12, 48);
type = Stem;
},
{
horizontal = 1;
place = (389, 42);
place = (389, 42);
type = Stem;
},
{
place = (25, 77);
place = (25, 77);
type = Stem;
},
{
place = (236, 81);
place = (236, 81);
type = Stem;
}
);
layerId = m01;
shapes = (
{
closed = 1;
nodes = (
(160,-12,o),
(181,-2,o),
(224,35,c),
(227,37,o),
(237,49,o),
(239,40,c),
(245,5,o),
(262,-12,o),
(291,-12,c),
(316,-12,o),
(356,10,o),
(397,46,c),
(400,54,o),
(401,69,o),
(390,71,c),
(385,71,o),
(384,70,o),
(381,68,c),
(371,59,o),
(363,55,o),
(357,53,c),
(351,50,o),
(346,50,o),
(339,50,c),
(325,50,o),
(317,57,o),
(317,99,c),
(317,281,l),
(317,344,o),
(316,352,o),
(300,374,c),
(277,407,o),
(231,431,o),
(188,431,c),
(156,431,o),
(131,420,o),
(94,390,c),
(55,360,o),
(31,330,o),
(31,305,c),
(31,286,o),
(37,284,o),
(54,290,c),
(61,292,o),
(107,312,o),
(114,320,c),
(110,329,o),
(111,335,o),
(111,344,c),
(111,367,o),
(147,389,o),
(168,389,c),
(210,389,o),
(235,357,o),
(236,299,c),
(237,235,l),
(237,225,o),
(229,219,o),
(226,217,c),
(192,201,o),
(167,190,o),
(131,180,c),
(62,162,o),
(25,129,o),
(25,78,c),
(25,25,o),
(65,-12,o),
(122,-12,c)
);
},
{
closed = 1;
nodes = (
(126,36,o),
(102,60,o),
(102,91,c),
(102,118,o),
(116,136,o),
(156,152,c),
(180,162,o),
(204,172,o),
(227,183,c),
(236,187,o),
(236,176,o),
(236,172,c),
(236,89,l),
(228,66,o),
(177,36,o),
(157,36,c)
);
},
{
closed = 1;
nodes = (
(338,474,o),
(335,481,o),
(333,486,c),
(245,638,l),
(240,646,o),
(238,647,o),
(228,648,c),
(215,649,o),
(160,648,o),
(153,647,c),
(148,645,o),
(143,642,o),
(140,637,c),
(51,481,l),
(47,473,o),
(67,468,o),
(75,475,c),
(190,579,l),
(312,475,l),
(315,472,o),
(325,471,o),
(332,473,c)
);
}
);
width = 414;
}
);
unicode = 226;
},
{
glyphname = adieresis;
lastChange = "2023-05-15 06:06:40 +0000";
layers = (
{
hints = (
{
place = (235, 115);
place = (235, 115);
type = Stem;
},
{
horizontal = 1;
place = (484, 114);
place = (484, 114);
type = Stem;
},
{
place = (66, 115);
place = (66, 115);
type = Stem;
},
{
horizontal = 1;
place = (-12, 48);
place = (-12, 48);
type = Stem;
},
{
horizontal = 1;
place = (389, 42);
place = (389, 42);
type = Stem;
},
{
place = (235, 82);
place = (235, 82);
type = Stem;
},
{
place = (25, 77);
place = (25, 77);
type = Stem;
}
);
layerId = m01;
shapes = (
{
closed = 1;
nodes = (
(160,-12,o),
(181,-2,o),
(224,35,c),
(227,37,o),
(237,49,o),
(239,40,c),
(245,5,o),
(262,-12,o),
(291,-12,c),
(316,-12,o),
(356,10,o),
(397,46,c),
(400,54,o),
(401,69,o),
(390,71,c),
(385,71,o),
(384,70,o),
(381,68,c),
(371,59,o),
(363,55,o),
(357,53,c),
(351,50,o),
(346,50,o),
(339,50,c),
(325,50,o),
(317,57,o),
(317,99,c),
(317,281,l),
(317,344,o),
(316,352,o),
(300,374,c),
(277,407,o),
(231,431,o),
(188,431,c),
(156,431,o),
(131,420,o),
(94,390,c),
(55,360,o),
(31,330,o),
(31,305,c),
(31,286,o),
(37,284,o),
(54,290,c),
(61,292,o),
(107,312,o),
(114,320,c),
(110,329,o),
(111,335,o),
(111,344,c),
(111,367,o),
(147,389,o),
(168,389,c),
(210,389,o),
(235,357,o),
(236,299,c),
(237,235,l),
(237,225,o),
(229,219,o),
(226,217,c),
(192,201,o),
(167,190,o),
(131,180,c),
(62,162,o),
(25,129,o),
(25,78,c),
(25,25,o),
(65,-12,o),
(122,-12,c)
);
},
{
closed = 1;
nodes = (
(126,36,o),
(102,60,o),
(102,91,c),
(102,118,o),
(116,136,o),
(156,152,c),
(180,162,o),
(204,172,o),
(227,183,c),
(236,187,o),
(236,176,o),
(236,172,c),
(236,89,l),
(228,66,o),
(177,36,o),
(157,36,c)
);
},
{
closed = 1;
nodes = (
(155,484,o),
(181,508,o),
(181,541,c),
(181,572,o),
(155,598,o),
(124,598,c),
(92,598,o),
(66,572,o),
(66,541,c),
(66,508,o),
(92,484,o),
(124,484,c)
);
},
{
closed = 1;
nodes = (
(325,484,o),
(350,510,o),
(350,541,c),
(350,572,o),
(325,598,o),
(292,598,c),
(261,598,o),
(235,572,o),
(235,541,c),
(235,509,o),
(261,484,o),
(292,484,c)
);
}
);
width = 414;
}
);
unicode = 228;
},
{
glyphname = agrave;
lastChange = "2023-05-15 06:06:40 +0000";
layers = (
{
hints = (
{
horizontal = 1;
place = (658, -20);
target = down;
type = TopGhost;
},
{
horizontal = 1;
place = (-12, 48);
place = (-12, 48);
type = Stem;
},
{
horizontal = 1;
place = (389, 42);
place = (389, 42);
type = Stem;
},
{
place = (25, 77);
place = (25, 77);
type = Stem;
},
{
place = (236, 81);
place = (236, 81);
type = Stem;
},
{
horizontal = 1;
place = (657, -20);
target = down;
type = TopGhost;
}
);
layerId = m01;
shapes = (
{
closed = 1;
nodes = (
(160,-12,o),
(181,-2,o),
(224,35,c),
(227,37,o),
(237,49,o),
(239,40,c),
(245,5,o),
(262,-12,o),
(291,-12,c),
(316,-12,o),
(356,10,o),
(397,46,c),
(400,54,o),
(401,69,o),
(390,71,c),
(385,71,o),
(384,70,o),
(381,68,c),
(371,59,o),
(363,55,o),
(357,53,c),
(351,50,o),
(346,50,o),
(339,50,c),
(325,50,o),
(317,57,o),
(317,99,c),
(317,281,l),
(317,344,o),
(316,352,o),
(300,374,c),
(277,407,o),
(231,431,o),
(188,431,c),
(156,431,o),
(131,420,o),
(94,390,c),
(55,360,o),
(31,330,o),
(31,305,c),
(31,286,o),
(37,284,o),
(54,290,c),
(61,292,o),
(107,312,o),
(114,320,c),
(110,329,o),
(111,335,o),
(111,344,c),
(111,367,o),
(147,389,o),
(168,389,c),
(210,389,o),
(235,357,o),
(236,299,c),
(237,235,l),
(237,225,o),
(229,219,o),
(226,217,c),
(192,201,o),
(167,190,o),
(131,180,c),
(62,162,o),
(25,129,o),
(25,78,c),
(25,25,o),
(65,-12,o),
(122,-12,c)
);
},
{
closed = 1;
nodes = (
(126,36,o),
(102,60,o),
(102,91,c),
(102,118,o),
(116,136,o),
(156,152,c),
(180,162,o),
(204,172,o),
(227,183,c),
(236,187,o),
(236,176,o),
(236,172,c),
(236,89,l),
(228,66,o),
(177,36,o),
(157,36,c)
);
},
{
closed = 1;
nodes = (
(245,473,o),
(263,474,o),
(263,487,c),
(253,530,o),
(230,605,o),
(213,650,c),
(209,658,o),
(203,658,o),
(195,658,c),
(118,657,l),
(105,657,o),
(98,644,o),
(103,638,c),
(147,591,o),
(206,522,o),
(238,480,c)
);
}
);
width = 414;
}
);
unicode = 224;
},
{
glyphname = aring;
lastChange = "2023-05-15 06:06:40 +0000";
layers = (
{
hints = (
{
place = (236, 81);
place = (236, 81);
type = Stem;
},
{
horizontal = 1;
place = (389, 42);
place = (389, 42);
type = Stem;
},
{
place = (25, 77);
place = (25, 77);
type = Stem;
},
{
horizontal = 1;
place = (-12, 48);
place = (-12, 48);
type = Stem;
},
{
horizontal = 1;
place = (474, 47);
place = (474, 47);
type = Stem;
},
{
horizontal = 1;
place = (633, 47);
place = (633, 47);
type = Stem;
},
{
place = (250, 47);
place = (250, 47);
type = Stem;
},
{
place = (93, 47);
place = (93, 47);
type = Stem;
}
);
layerId = m01;
shapes = (
{
closed = 1;
nodes = (
(160,-12,o),
(181,-2,o),
(224,35,c),
(227,37,o),
(237,49,o),
(239,40,c),
(245,5,o),
(262,-12,o),
(291,-12,c),
(316,-12,o),
(356,10,o),
(397,46,c),
(400,54,o),
(401,69,o),
(390,71,c),
(385,71,o),
(384,70,o),
(381,68,c),
(371,59,o),
(363,55,o),
(357,53,c),
(351,50,o),
(346,50,o),
(339,50,c),
(325,50,o),
(317,57,o),
(317,99,c),
(317,281,l),
(317,344,o),
(316,352,o),
(300,374,c),
(277,407,o),
(231,431,o),
(188,431,c),
(156,431,o),
(131,420,o),
(94,390,c),
(55,360,o),
(31,330,o),
(31,305,c),
(31,286,o),
(37,284,o),
(54,290,c),
(61,292,o),
(107,312,o),
(114,320,c),
(110,329,o),
(111,335,o),
(111,344,c),
(111,367,o),
(147,389,o),
(168,389,c),
(210,389,o),
(235,357,o),
(236,299,c),
(237,235,l),
(237,225,o),
(229,219,o),
(226,217,c),
(192,201,o),
(167,190,o),
(131,180,c),
(62,162,o),
(25,129,o),
(25,78,c),
(25,25,o),
(65,-12,o),
(122,-12,c)
);
},
{
closed = 1;
nodes = (
(126,36,o),
(102,60,o),
(102,91,c),
(102,118,o),
(116,136,o),
(156,152,c),
(180,162,o),
(204,172,o),
(227,183,c),
(236,187,o),
(236,176,o),
(236,172,c),
(236,89,l),
(228,66,o),
(177,36,o),
(157,36,c)
);
},
{
closed = 1;
nodes = (
(251,474,o),
(297,520,o),
(297,577,c),
(297,634,o),
(251,680,o),
(196,680,c),
(139,680,o),
(93,634,o),
(93,577,c),
(93,520,o),
(139,474,o),
(196,474,c)
);
},
{
closed = 1;
nodes = (
(165,521,o),
(140,546,o),
(140,577,c),
(140,608,o),
(165,633,o),
(196,633,c),
(225,633,o),
(250,608,o),
(250,577,c),
(250,546,o),
(225,521,o),
(196,521,c)
);
}
);
width = 414;
}
);
unicode = 229;
},
{
glyphname = atilde;
lastChange = "2023-05-15 06:06:40 +0000";
layers = (
{
hints = (
{
place = (236, 81);
place = (236, 81);
type = Stem;
},
{
horizontal = 1;
place = (389, 42);
place = (389, 42);
type = Stem;
},
{
place = (25, 77);
place = (25, 77);
type = Stem;
},
{
horizontal = 1;
place = (-12, 48);
place = (-12, 48);
type = Stem;
},
{
horizontal = 1;
place = (612, -20);
target = down;
type = TopGhost;
},
{
horizontal = 1;
place = (469, 71);
place = (469, 71);
type = Stem;
},
{
horizontal = 1;
place = (537, 70);
place = (537, 70);
type = Stem;
}
);
layerId = m01;
shapes = (
{
closed = 1;
nodes = (
(160,-12,o),
(181,-2,o),
(224,35,c),
(227,37,o),
(237,49,o),
(239,40,c),
(245,5,o),
(262,-12,o),
(291,-12,c),
(316,-12,o),
(356,10,o),
(397,46,c),
(400,54,o),
(401,69,o),
(390,71,c),
(385,71,o),
(384,70,o),
(381,68,c),
(371,59,o),
(363,55,o),
(357,53,c),
(351,50,o),
(346,50,o),
(339,50,c),
(325,50,o),
(317,57,o),
(317,99,c),
(317,281,l),
(317,344,o),
(316,352,o),
(300,374,c),
(277,407,o),
(231,431,o),
(188,431,c),
(156,431,o),
(131,420,o),
(94,390,c),
(55,360,o),
(31,330,o),
(31,305,c),
(31,286,o),
(37,284,o),
(54,290,c),
(61,292,o),
(107,312,o),
(114,320,c),
(110,329,o),
(111,335,o),
(111,344,c),
(111,367,o),
(147,389,o),
(168,389,c),
(210,389,o),
(235,357,o),
(236,299,c),
(237,235,l),
(237,225,o),
(229,219,o),
(226,217,c),
(192,201,o),
(167,190,o),
(131,180,c),
(62,162,o),
(25,129,o),
(25,78,c),
(25,25,o),
(65,-12,o),
(122,-12,c)
);
},
{
closed = 1;
nodes = (
(126,36,o),
(102,60,o),
(102,91,c),
(102,118,o),
(116,136,o),
(156,152,c),
(180,162,o),
(204,172,o),
(227,183,c),
(236,187,o),
(236,176,o),
(236,172,c),
(236,89,l),
(228,66,o),
(177,36,o),
(157,36,c)
);
},
{
closed = 1;
nodes = (
(317,469,o),
(358,522,o),
(358,593,c),
(358,596,o),
(358,600,o),
(356,606,c),
(356,610,o),
(350,613,o),
(344,612,c),
(338,612,o),
(331,610,o),
(331,606,c),
(323,552,o),
(312,540,o),
(291,540,c),
(279,540,o),
(263,546,o),
(232,567,c),
(187,598,o),
(164,607,o),
(134,607,c),
(73,607,o),
(40,558,o),
(36,472,c),
(38,459,o),
(59,464,o),
(63,472,c),
(64,482,o),
(66,486,o),
(66,490,c),
(74,526,o),
(84,537,o),
(103,537,c),
(116,537,o),
(125,534,o),
(162,508,c),
(200,482,o),
(232,469,o),
(259,469,c)
);
}
);
width = 414;
}
);
unicode = 227;
},
{
glyphname = ae;
lastChange = "2023-05-15 06:06:40 +0000";
layers = (
{
hints = (
{
horizontal = 1;
place = (387, 46);
place = (387, 46);
type = Stem;
},
{
horizontal = 1;
place = (-17, 48);
place = (-17, 48);
type = Stem;
},
{
horizontal = 1;
place = (265, 32);
place = (265, 32);
type = Stem;
},
{
place = (37, 89);
place = (37, 89);
type = Stem;
},
{
place = (259, 78);
place = (259, 78);
type = Stem;
},
{
horizontal = 1;
place = (431, -20);
target = down;
type = TopGhost;
},
{
horizontal = 1;
place = (-17, 65);
place = (-17, 65);
type = Stem;
},
{
horizontal = 1;
place = (399, 34);
place = (399, 34);
type = Stem;
}
);
layerId = m01;
shapes = (
{
closed = 1;
nodes = (
(181,-17,o),
(240,15,o),
(282,60,c),
(288,66,o),
(293,65,o),
(297,59,c),
(331,10,o),
(380,-17,o),
(436,-17,c),
(468,-17,o),
(498,-7,o),
(528,12,c),
(558,31,o),
(584,54,o),
(611,85,c),
(616,91,o),
(618,98,o),
(613,102,c),
(606,110,l),
(602,114,o),
(591,113,o),
(586,108,c),
(545,64,o),
(517,48,o),
(474,48,c),
(420,48,o),
(367,85,o),
(350,138,c),
(342,161,o),
(337,206,o),
(337,243,c),
(337,258,o),
(343,265,o),
(362,265,c),
(607,265,l),
(616,265,o),
(627,265,o),
(627,277,c),
(627,292,l),
(617,302,o),
(614,305,o),
(610,315,c),
(608,319,o),
(606,323,o),
(604,328,c),
(569,404,o),
(531,433,o),
(460,433,c),
(409,433,o),
(366,415,o),
(330,383,c),
(325,377,o),
(321,373,o),
(315,380,c),
(289,411,o),
(247,431,o),
(206,431,c),
(175,431,o),
(147,420,o),
(111,393,c),
(66,358,o),
(45,333,o),
(45,307,c),
(45,295,o),
(50,280,o),
(65,287,c),
(120,312,l),
(133,318,o),
(126,331,o),
(126,341,c),
(126,365,o),
(154,387,o),
(188,387,c),
(233,387,o),
(259,354,o),
(259,291,c),
(259,221,l),
(229,202,o),
(208,191,o),
(167,181,c),
(66,155,o),
(37,133,o),
(37,74,c),
(37,22,o),
(79,-17,o),
(135,-17,c)
);
},
{
closed = 1;
nodes = (
(138,31,o),
(116,54,o),
(116,88,c),
(116,120,o),
(131,135,o),
(187,154,c),
(217,164,o),
(235,173,o),
(249,180,c),
(255,183,o),
(259,179,o),
(259,171,c),
(259,78,l),
(226,46,o),
(197,31,o),
(171,31,c)
);
},
{
closed = 1;
nodes = (
(358,297,o),
(341,296,o),
(343,307,c),
(357,366,o),
(391,399,o),
(438,399,c),
(477,399,o),
(512,366,o),
(524,309,c),
(526,303,o),
(520,297,o),
(514,297,c),
(365,297,l)
);
}
);
width = 654;
}
);
unicode = 230;
},
{
glyphname = b;
lastChange = "2023-05-15 06:06:40 +0000";
layers = (
{
hints = (
{
horizontal = 1;
place = (-15, 42);
place = (-15, 42);
type = Stem;
},
{
horizontal = 1;
place = (369, 57);
place = (369, 57);
type = Stem;
},
{
place = (81, 75);
place = (81, 75);
type = Stem;
},
{
place = (380, 75);
place = (380, 75);
type = Stem;
}
);
layerId = m01;
shapes = (
{
closed = 1;
nodes = (
(362,-15,o),
(455,89,o),
(455,226,c),
(455,335,o),
(385,426,o),
(295,426,c),
(252,426,o),
(200,386,o),
(166,362,c),
(159,357,o),
(157,377,o),
(156,385,c),
(155,470,o),
(154,626,o),
(156,707,c),
(157,724,o),
(153,729,o),
(137,724,c),
(15,683,l),
(6,680,o),
(6,659,o),
(15,656,c),
(29,653,o),
(44,651,o),
(58,648,c),
(70,646,o),
(79,643,o),
(80,629,c),
(80,622,o),
(81,610,o),
(81,593,c),
(82,464,o),
(83,220,o),
(81,22,c),
(82,13,o),
(88,5,o),
(91,4,c),
(141,-7,o),
(199,-15,o),
(228,-15,c)
);
},
{
closed = 1;
nodes = (
(207,27,o),
(173,56,o),
(163,96,c),
(157,121,o),
(155,170,o),
(155,217,c),
(155,263,o),
(156,307,o),
(156,319,c),
(200,351,o),
(228,369,o),
(257,369,c),
(327,369,o),
(380,299,o),
(380,197,c),
(380,96,o),
(329,27,o),
(254,27,c)
);
}
);
width = 491;
}
);
unicode = 98;
},
{
glyphname = c;
lastChange = "2023-05-15 06:06:40 +0000";
layers = (
{
hints = (
{
horizontal = 1;
place = (-12, 54);
place = (-12, 54);
type = Stem;
},
{
place = (25, 80);
place = (25, 80);
type = Stem;
},
{
horizontal = 1;
place = (394, 38);
place = (394, 38);
type = Stem;
},
{
horizontal = 1;
place = (331, 101);
place = (331, 101);
type = Stem;
}
);
layerId = m01;
shapes = (
{
closed = 1;
nodes = (
(280,-12,o),
(341,24,o),
(385,93,c),
(387,96,o),
(393,107,o),
(386,112,c),
(382,117,o),
(384,118,o),
(378,121,c),
(371,123,o),
(363,115,o),
(361,109,c),
(333,68,o),
(294,42,o),
(243,42,c),
(164,42,o),
(105,113,o),
(105,216,c),
(105,313,o),
(165,394,o),
(231,394,c),
(251,394,o),
(266,388,o),
(288,366,c),
(314,341,o),
(329,331,o),
(350,331,c),
(370,331,o),
(386,347,o),
(386,368,c),
(386,407,o),
(330,432,o),
(267,432,c),
(133,432,o),
(25,326,o),
(25,193,c),
(25,75,o),
(102,-12,o),
(208,-12,c)
);
}
);
width = 422;
}
);
unicode = 99;
},
{
glyphname = ccedilla;
lastChange = "2023-05-15 06:06:40 +0000";
layers = (
{
hints = (
{
horizontal = 1;
place = (-12, 54);
place = (-12, 54);
type = Stem;
},
{
place = (25, 80);
place = (25, 80);
type = Stem;
},
{
horizontal = 1;
place = (394, 38);
place = (394, 38);
type = Stem;
},
{
place = (232, 56);
place = (232, 56);
type = Stem;
},
{
horizontal = 1;
place = (-234, 30);
place = (-234, 30);
type = Stem;
},
{
horizontal = 1;
place = (331, 101);
place = (331, 101);
type = Stem;
}
);
layerId = m01;
shapes = (
{
closed = 1;
nodes = (
(245,-234,o),
(288,-192,o),
(288,-140,c),
(288,-98,o),
(258,-65,o),
(220,-60,c),
(214,-59,o),
(218,-50,o),
(222,-43,c),
(240,-10,l),
(298,-1,o),
(347,35,o),
(385,93,c),
(387,96,o),
(393,107,o),
(386,112,c),
(382,117,o),
(384,118,o),
(378,121,c),
(371,123,o),
(363,114,o),
(361,109,c),
(333,68,o),
(294,42,o),
(243,42,c),
(164,42,o),
(105,113,o),
(105,216,c),
(105,313,o),
(165,394,o),
(231,394,c),
(251,394,o),
(266,388,o),
(288,366,c),
(314,341,o),
(329,331,o),
(350,331,c),
(370,331,o),
(386,347,o),
(386,368,c),
(386,407,o),
(330,432,o),
(267,432,c),
(133,432,o),
(25,326,o),
(25,193,c),
(25,79,o),
(96,-7,o),
(197,-12,c),
(204,-12,o),
(205,-20,o),
(202,-26,c),
(138,-132,l),
(133,-140,o),
(146,-147,o),
(150,-143,c),
(184,-115,o),
(232,-110,o),
(232,-158,c),
(232,-183,o),
(211,-204,o),
(183,-204,c),
(175,-204,o),
(156,-196,o),
(151,-205,c),
(150,-207,o),
(149,-210,o),
(147,-212,c),
(144,-218,o),
(148,-226,o),
(151,-227,c),
(168,-233,o),
(180,-234,o),
(194,-234,c)
);
}
);
width = 422;
}
);
unicode = 231;
},
{
glyphname = d;
lastChange = "2023-05-15 06:06:40 +0000";
layers = (
{
hints = (
{
horizontal = 1;
place = (-15, 57);
place = (-15, 57);
type = Stem;
},
{
horizontal = 1;
place = (387, 40);
place = (387, 40);
type = Stem;
},
{
place = (23, 80);
place = (23, 80);
type = Stem;
},
{
place = (342, 79);
place = (342, 79);
type = Stem;
}
);
layerId = m01;
shapes = (
{
closed = 1;
nodes = (
(229,-15,o),
(270,5,o),
(331,47,c),
(338,52,o),
(342,39,o),
(342,32,c),
(342,25,o),
(335,-20,o),
(360,-11,c),
(395,-2,o),
(462,23,o),
(495,39,c),
(500,41,o),
(501,53,o),
(498,62,c),
(494,75,o),
(479,68,o),
(470,66,c),
(464,64,o),
(454,60,o),
(448,60,c),
(427,60,o),
(421,61,o),
(421,117,c),
(421,716,l),
(421,730,o),
(416,739,o),
(404,734,c),
(364,719,o),
(313,702,o),
(278,691,c),
(272,690,o),
(269,687,o),
(268,682,c),
(267,677,o),
(268,673,o),
(269,668,c),
(270,661,o),
(274,662,o),
(280,661,c),
(296,659,o),
(321,661,o),
(334,653,c),
(341,649,o),
(340,643,o),
(342,637,c),
(343,586,o),
(345,510,o),
(342,436,c),
(342,422,o),
(336,410,o),
(331,411,c),
(304,420,o),
(273,427,o),
(248,427,c),
(120,427,o),
(23,324,o),
(23,191,c),
(23,78,o),
(96,-15,o),
(190,-15,c)
);
},
{
closed = 1;
nodes = (
(157,42,o),
(103,119,o),
(103,222,c),
(103,320,o),
(152,387,o),
(226,387,c),
(271,387,o),
(304,364,o),
(341,311,c),
(341,106,l),
(340,95,o),
(335,85,o),
(331,83,c),
(291,56,o),
(254,42,o),
(227,42,c)
);
}
);
width = 513;
}
);
unicode = 100;
},
{
glyphname = eth;
lastChange = "2023-05-15 06:06:40 +0000";
layers = (
{
hints = (
{
horizontal = 1;
place = (-17, 36);
place = (-17, 36);
type = Stem;
},
{
horizontal = 1;
place = (399, 37);
place = (399, 37);
type = Stem;
},
{
place = (46, 86);
place = (46, 86);
type = Stem;
},
{
place = (416, 87);
place = (416, 87);
type = Stem;
}
);
layerId = m01;
shapes = (
{
closed = 1;
nodes = (
(335,-17,o),
(389,3,o),
(430,40,c),
(482,85,o),
(503,144,o),
(503,237,c),
(503,309,o),
(482,388,o),
(445,454,c),
(432,477,o),
(415,501,o),
(395,525,c),
(373,551,o),
(358,566,o),
(336,583,c),
(323,592,o),
(325,603,o),
(338,610,c),
(394,640,l),
(404,645,o),
(405,654,o),
(401,660,c),
(397,668,o),
(392,671,o),
(378,667,c),
(284,620,l),
(242,644,o),
(218,654,o),
(156,671,c),
(147,674,o),
(136,670,o),
(131,661,c),
(123,647,l),
(117,636,o),
(133,630,o),
(135,630,c),
(166,619,o),
(184,611,o),
(203,599,c),
(214,593,o),
(210,580,o),
(202,576,c),
(93,519,l),
(83,514,o),
(81,507,o),
(86,496,c),
(91,487,o),
(98,486,o),
(102,487,c),
(229,554,l),
(242,561,o),
(261,557,o),
(269,549,c),
(297,524,o),
(309,510,o),
(325,486,c),
(334,473,o),
(340,462,o),
(347,447,c),
(356,428,o),
(344,422,o),
(332,426,c),
(313,433,o),
(295,436,o),
(271,436,c),
(144,436,o),
(46,338,o),
(46,210,c),
(46,78,o),
(142,-17,o),
(276,-17,c)
);
},
{
closed = 1;
nodes = (
(203,19,o),
(132,117,o),
(132,243,c),
(132,333,o),
(188,399,o),
(258,399,c),
(346,399,o),
(416,305,o),
(416,176,c),
(416,83,o),
(362,19,o),
(288,19,c)
);
}
);
width = 545;
}
);
unicode = 240;
},
{
glyphname = e;
lastChange = "2023-05-15 06:06:40 +0000";
layers = (
{
hints = (
{
horizontal = 1;
place = (-15, 64);
place = (-15, 64);
type = Stem;
},
{
horizontal = 1;
place = (267, 32);
place = (267, 32);
type = Stem;
},
{
horizontal = 1;
place = (398, 31);
place = (398, 31);
type = Stem;
},
{
place = (26, 75);
place = (26, 75);
type = Stem;
}
);
layerId = m01;
shapes = (
{
closed = 1;
nodes = (
(251,-15,o),
(295,2,o),
(329,28,c),
(355,49,o),
(381,75,o),
(400,97,c),
(404,104,o),
(398,116,o),
(390,118,c),
(385,119,o),
(378,117,o),
(375,113,c),
(336,67,o),
(299,49,o),
(251,49,c),
(166,49,o),
(101,124,o),
(101,227,c),
(101,240,o),
(101,246,o),
(103,257,c),
(104,264,o),
(114,267,o),
(122,267,c),
(186,266,o),
(313,264,o),
(390,267,c),
(396,267,o),
(403,269,o),
(404,276,c),
(405,283,o),
(405,286,o),
(403,292,c),
(394,303,o),
(388,312,o),
(383,324,c),
(375,341,l),
(346,401,o),
(301,429,o),
(231,429,c),
(113,429,o),
(26,332,o),
(26,202,c),
(26,81,o),
(105,-15,o),
(211,-15,c)
);
},
{
closed = 1;
nodes = (
(124,299,o),
(110,302,o),
(112,307,c),
(131,367,o),
(166,398,o),
(209,398,c),
(252,398,o),
(287,366,o),
(302,311,c),
(304,302,o),
(286,299,o),
(278,299,c),
(128,299,l)
);
}
);
width = 428;
}
);
unicode = 101;
},
{
glyphname = eacute;
lastChange = "2023-05-15 06:06:40 +0000";
layers = (
{
hints = (
{
horizontal = 1;
place = (-15, 64);
place = (-15, 64);
type = Stem;
},
{
horizontal = 1;
place = (267, 32);
place = (267, 32);
type = Stem;
},
{
horizontal = 1;
place = (398, 31);
place = (398, 31);
type = Stem;
},
{
horizontal = 1;
place = (661, -20);
target = down;
type = TopGhost;
},
{
place = (24, 75);
place = (24, 75);
type = Stem;
}
);
layerId = m01;
shapes = (
{
closed = 1;
nodes = (
(249,-15,o),
(293,2,o),
(327,28,c),
(353,49,o),
(379,75,o),
(398,97,c),
(402,104,o),
(396,116,o),
(388,118,c),
(383,119,o),
(376,116,o),
(373,113,c),
(334,67,o),
(297,49,o),
(248,49,c),
(164,49,o),
(99,124,o),
(99,227,c),
(99,240,o),
(99,246,o),
(101,257,c),
(102,264,o),
(112,267,o),
(120,267,c),
(184,266,o),
(311,264,o),
(388,267,c),
(394,267,o),
(401,269,o),
(401,276,c),
(403,283,o),
(403,286,o),
(401,292,c),
(392,303,o),
(387,312,o),
(380,324,c),
(373,341,l),
(348,403,o),
(299,429,o),
(229,429,c),
(111,429,o),
(24,332,o),
(24,202,c),
(24,81,o),
(103,-15,o),
(209,-15,c)
);
},
{
closed = 1;
nodes = (
(122,299,o),
(108,302,o),
(110,307,c),
(129,367,o),
(164,398,o),
(207,398,c),
(250,398,o),
(285,366,o),
(300,311,c),
(302,302,o),
(284,299,o),
(276,299,c),
(126,299,l)
);
},
{
closed = 1;
nodes = (
(342,647,l),
(343,648,o),
(343,650,o),
(343,652,c),
(345,660,o),
(337,661,o),
(329,661,c),
(241,661,l),
(234,661,o),
(225,656,o),
(223,648,c),
(174,484,l),
(169,468,o),
(193,468,o),
(199,475,c)
);
}
);
width = 424;
}
);
unicode = 233;
},
{
glyphname = ecircumflex;
lastChange = "2023-05-15 06:06:40 +0000";
layers = (
{
hints = (
{
horizontal = 1;
place = (-15, 64);
place = (-15, 64);
type = Stem;
},
{
horizontal = 1;
place = (267, 32);
place = (267, 32);
type = Stem;
},
{
horizontal = 1;
place = (398, 31);
place = (398, 31);
type = Stem;
},
{
place = (24, 75);
place = (24, 75);
type = Stem;
}
);
layerId = m01;
shapes = (
{
closed = 1;
nodes = (
(249,-15,o),
(293,2,o),
(327,28,c),
(353,49,o),
(379,75,o),
(398,97,c),
(402,104,o),
(396,116,o),
(388,118,c),
(383,119,o),
(376,116,o),
(373,113,c),
(334,67,o),
(297,49,o),
(248,49,c),
(164,49,o),
(99,124,o),
(99,227,c),
(99,240,o),
(99,246,o),
(101,257,c),
(102,264,o),
(112,267,o),
(120,267,c),
(184,266,o),
(311,264,o),
(388,267,c),
(394,267,o),
(401,269,o),
(401,276,c),
(403,283,o),
(403,286,o),
(401,292,c),
(392,303,o),
(387,312,o),
(380,324,c),
(373,341,l),
(348,403,o),
(299,429,o),
(229,429,c),
(111,429,o),
(24,332,o),
(24,202,c),
(24,81,o),
(103,-15,o),
(209,-15,c)
);
},
{
closed = 1;
nodes = (
(122,299,o),
(108,302,o),
(110,307,c),
(129,367,o),
(164,398,o),
(207,398,c),
(250,398,o),
(285,366,o),
(300,311,c),
(302,302,o),
(284,299,o),
(276,299,c),
(126,299,l)
);
},
{
closed = 1;
nodes = (
(366,474,o),
(363,481,o),
(361,486,c),
(273,638,l),
(268,646,o),
(266,647,o),
(256,648,c),
(243,649,o),
(188,648,o),
(181,647,c),
(176,645,o),
(171,642,o),
(168,637,c),
(79,481,l),
(75,473,o),
(95,468,o),
(103,475,c),
(218,579,l),
(340,475,l),
(343,472,o),
(353,471,o),
(360,473,c)
);
}
);
width = 424;
}
);
unicode = 234;
},
{
glyphname = edieresis;
lastChange = "2023-05-15 06:06:40 +0000";
layers = (
{
hints = (
{
place = (257, 114);
place = (257, 114);
type = Stem;
},
{
horizontal = 1;
place = (484, 114);
place = (484, 114);
type = Stem;
},
{
place = (88, 115);
place = (88, 115);
type = Stem;
},
{
horizontal = 1;
place = (398, 31);
place = (398, 31);
type = Stem;
},
{
horizontal = 1;
place = (-15, 64);
place = (-15, 64);
type = Stem;
},
{
horizontal = 1;
place = (267, 32);
place = (267, 32);
type = Stem;
},
{
place = (24, 75);
place = (24, 75);
type = Stem;
}
);
layerId = m01;
shapes = (
{
closed = 1;
nodes = (
(249,-15,o),
(293,2,o),
(327,28,c),
(353,49,o),
(379,75,o),
(398,97,c),
(402,104,o),
(396,116,o),
(388,118,c),
(383,119,o),
(376,116,o),
(373,113,c),
(334,67,o),
(297,49,o),
(248,49,c),
(164,49,o),
(99,124,o),
(99,227,c),
(99,240,o),
(99,246,o),
(101,257,c),
(102,264,o),
(112,267,o),
(120,267,c),
(184,266,o),
(311,264,o),
(388,267,c),
(394,267,o),
(401,269,o),
(401,276,c),
(403,283,o),
(403,286,o),
(401,292,c),
(392,303,o),
(387,312,o),
(380,324,c),
(373,341,l),
(348,403,o),
(299,429,o),
(229,429,c),
(111,429,o),
(24,332,o),
(24,202,c),
(24,81,o),
(103,-15,o),
(209,-15,c)
);
},
{
closed = 1;
nodes = (
(122,299,o),
(108,302,o),
(110,307,c),
(129,367,o),
(164,398,o),
(207,398,c),
(250,398,o),
(285,366,o),
(300,311,c),
(302,302,o),
(284,299,o),
(276,299,c),
(126,299,l)
);
},
{
closed = 1;
nodes = (
(177,484,o),
(203,508,o),
(203,541,c),
(203,572,o),
(177,598,o),
(146,598,c),
(114,598,o),
(88,572,o),
(88,541,c),
(88,508,o),
(114,484,o),
(146,484,c)
);
},
{
closed = 1;
nodes = (
(347,484,o),
(371,510,o),
(371,541,c),
(371,572,o),
(347,598,o),
(314,598,c),
(283,598,o),
(257,572,o),
(257,541,c),
(257,509,o),
(283,484,o),
(314,484,c)
);
}
);
width = 424;
}
);
unicode = 235;
},
{
glyphname = egrave;
lastChange = "2023-05-15 06:06:40 +0000";
layers = (
{
hints = (
{
horizontal = 1;
place = (658, -20);
target = down;
type = TopGhost;
},
{
horizontal = 1;
place = (-15, 64);
place = (-15, 64);
type = Stem;
},
{
horizontal = 1;
place = (267, 32);
place = (267, 32);
type = Stem;
},
{
horizontal = 1;
place = (398, 31);
place = (398, 31);
type = Stem;
},
{
place = (24, 75);
place = (24, 75);
type = Stem;
},
{
horizontal = 1;
place = (657, -20);
target = down;
type = TopGhost;
}
);
layerId = m01;
shapes = (
{
closed = 1;
nodes = (
(249,-15,o),
(293,2,o),
(327,28,c),
(353,49,o),
(379,75,o),
(398,97,c),
(402,104,o),
(396,116,o),
(388,118,c),
(383,119,o),
(376,116,o),
(373,113,c),
(334,67,o),
(297,49,o),
(248,49,c),
(164,49,o),
(99,124,o),
(99,227,c),
(99,240,o),
(99,246,o),
(101,257,c),
(102,264,o),
(112,267,o),
(120,267,c),
(184,266,o),
(311,264,o),
(388,267,c),
(394,267,o),
(401,269,o),
(401,276,c),
(403,283,o),
(403,286,o),
(401,292,c),
(392,303,o),
(387,312,o),
(380,324,c),
(373,341,l),
(348,403,o),
(299,429,o),
(229,429,c),
(111,429,o),
(24,332,o),
(24,202,c),
(24,81,o),
(103,-15,o),
(209,-15,c)
);
},
{
closed = 1;
nodes = (
(122,299,o),
(108,302,o),
(110,307,c),
(129,367,o),
(164,398,o),
(207,398,c),
(250,398,o),
(285,366,o),
(300,311,c),
(302,302,o),
(284,299,o),
(276,299,c),
(126,299,l)
);
},
{
closed = 1;
nodes = (
(267,473,o),
(285,474,o),
(285,487,c),
(274,530,o),
(252,605,o),
(235,650,c),
(231,658,o),
(225,658,o),
(216,658,c),
(140,657,l),
(127,657,o),
(119,644,o),
(125,638,c),
(168,591,o),
(227,522,o),
(259,480,c)
);
}
);
width = 424;
}
);
unicode = 232;
},
{
glyphname = f;
lastChange = "2023-05-15 06:06:40 +0000";
layers = (
{
hints = (
{
horizontal = 1;
place = (-3, 34);
place = (-3, 34);
type = Stem;
},
{
horizontal = 1;
place = (353, 62);
place = (353, 62);
type = Stem;
},
{
horizontal = 1;
place = (669, 58);
place = (669, 58);
type = Stem;
},
{
place = (97, 80);
place = (97, 80);
type = Stem;
}
);
layerId = m01;
shapes = (
{
closed = 1;
nodes = (
(94,0,o),
(220,-1,o),
(284,-3,c),
(289,-3,o),
(293,5,o),
(293,13,c),
(292,24,o),
(291,33,o),
(280,34,c),
(270,35,o),
(258,34,o),
(246,34,c),
(181,33,o),
(177,33,o),
(177,128,c),
(177,341,l),
(177,345,o),
(182,354,o),
(190,354,c),
(275,353,l),
(283,353,o),
(286,356,o),
(287,361,c),
(287,361,o),
(281,405,o),
(280,406,c),
(279,411,o),
(271,415,o),
(266,415,c),
(192,415,l),
(178,415,o),
(177,424,o),
(177,435,c),
(176,504,l),
(175,550,o),
(180,576,o),
(190,603,c),
(204,643,o),
(241,669,o),
(282,669,c),
(312,669,o),
(351,652,o),
(378,630,c),
(392,619,o),
(405,607,o),
(419,629,c),
(429,645,o),
(439,662,o),
(439,671,c),
(439,675,o),
(438,679,o),
(436,682,c),
(415,713,o),
(359,727,o),
(327,727,c),
(273,727,o),
(219,701,o),
(170,647,c),
(115,588,o),
(103,543,o),
(99,467,c),
(98,442,o),
(97,436,o),
(97,413,c),
(76,401,o),
(53,393,o),
(22,386,c),
(16,382,o),
(15,356,o),
(22,356,c),
(85,356,l),
(91,355,o),
(95,351,o),
(97,340,c),
(97,132,l),
(97,51,o),
(93,31,o),
(44,31,c),
(37,31,o),
(29,32,o),
(26,24,c),
(24,21,o),
(24,16,o),
(24,13,c),
(24,6,o),
(26,-3,o),
(32,-3,c)
);
}
);
width = 321;
}
);
unicode = 102;
},
{
glyphname = g;
lastChange = "2023-05-15 06:06:40 +0000";
layers = (
{
hints = (
{
place = (392, 59);
place = (392, 59);
type = Stem;
},
{
horizontal = 1;
place = (-21, 66);
place = (-21, 66);
type = Stem;
},
{
horizontal = 1;
place = (119, 35);
place = (119, 35);
type = Stem;
},
{
place = (301, 74);
place = (301, 74);
type = Stem;
},
{
horizontal = 1;
place = (396, 33);
place = (396, 33);
type = Stem;
},
{
place = (53, 74);
place = (53, 74);
type = Stem;
},
{
horizontal = 1;
place = (-250, 51);
place = (-250, 51);
type = Stem;
},
{
place = (27, 73);
place = (27, 73);
type = Stem;
}
);
layerId = m01;
shapes = (
{
closed = 1;
nodes = (
(331,-250,o),
(451,-172,o),
(451,-70,c),
(451,-27,o),
(436,6,o),
(400,22,c),
(354,43,o),
(302,44,o),
(242,45,c),
(118,46,o),
(118,63,o),
(118,73,c),
(118,82,o),
(126,90,o),
(137,99,c),
(146,107,o),
(158,115,o),
(165,125,c),
(179,121,o),
(192,119,o),
(206,119,c),
(303,119,o),
(375,181,o),
(375,271,c),
(375,290,o),
(374,301,o),
(366,321,c),
(365,324,o),
(373,330,o),
(376,329,c),
(397,326,o),
(432,322,o),
(438,322,c),
(446,322,o),
(447,329,o),
(448,335,c),
(449,352,o),
(447,367,o),
(445,384,c),
(444,399,o),
(440,400,o),
(426,398,c),
(400,394,o),
(341,387,o),
(335,387,c),
(327,387,l),
(301,415,o),
(264,429,o),
(221,429,c),
(127,429,o),
(53,357,o),
(53,262,c),
(53,206,o),
(82,163,o),
(132,138,c),
(137,135,o),
(122,127,o),
(120,125,c),
(110,120,o),
(105,116,o),
(89,107,c),
(67,95,o),
(47,82,o),
(47,64,c),
(47,36,o),
(63,9,o),
(117,-10,c),
(122,-12,o),
(118,-22,o),
(112,-27,c),
(104,-32,o),
(96,-36,o),
(88,-42,c),
(52,-66,o),
(27,-91,o),
(27,-140,c),
(27,-209,o),
(121,-250,o),
(188,-250,c)
);
},
{
closed = 1;
nodes = (
(170,-199,o),
(99,-165,o),
(100,-113,c),
(100,-87,o),
(134,-54,o),
(152,-36,c),
(158,-30,o),
(163,-25,o),
(165,-21,c),
(209,-23,o),
(237,-21,o),
(281,-24,c),
(366,-31,o),
(392,-52,o),
(392,-97,c),
(392,-148,o),
(307,-199,o),
(243,-199,c)
);
},
{
closed = 1;
nodes = (
(167,154,o),
(127,202,o),
(127,284,c),
(127,348,o),
(162,396,o),
(209,396,c),
(261,396,o),
(301,342,o),
(301,265,c),
(301,194,o),
(266,154,o),
(217,154,c)
);
}
);
width = 483;
}
);
unicode = 103;
},
{
glyphname = h;
lastChange = "2023-05-15 06:06:40 +0000";
layers = (
{
hints = (
{
horizontal = 1;
place = (-3, 37);
place = (-3, 37);
type = Stem;
},
{
place = (363, 74);
place = (363, 74);
type = Stem;
},
{
horizontal = 1;
place = (376, 51);
place = (376, 51);
type = Stem;
},
{
place = (93, 79);
place = (93, 79);
type = Stem;
},
{
horizontal = 1;
place = (-2, 21);
target = up;
type = BottomGhost;
}
);
layerId = m01;
shapes = (
{
closed = 1;
nodes = (
(84,-5,o),
(178,-1,o),
(230,-3,c),
(236,-4,o),
(242,1,o),
(242,10,c),
(241,14,o),
(241,20,o),
(241,23,c),
(240,32,o),
(234,31,o),
(226,31,c),
(184,31,o),
(172,37,o),
(172,89,c),
(172,328,l),
(172,332,o),
(175,338,o),
(177,339,c),
(210,359,o),
(235,376,o),
(275,376,c),
(300,376,o),
(322,366,o),
(337,350,c),
(357,328,o),
(363,305,o),
(363,215,c),
(363,166,o),
(361,121,o),
(356,78,c),
(352,42,o),
(342,31,o),
(294,31,c),
(288,31,l),
(282,31,o),
(279,23,o),
(280,15,c),
(280,10,o),
(282,-2,o),
(296,-2,c),
(349,-1,o),
(409,-4,o),
(509,-2,c),
(514,-2,o),
(516,6,o),
(515,14,c),
(514,28,o),
(514,34,o),
(500,34,c),
(447,34,o),
(437,38,o),
(437,64,c),
(437,86,o),
(438,108,o),
(439,130,c),
(440,162,o),
(443,204,o),
(443,245,c),
(442,286,o),
(440,326,o),
(430,356,c),
(415,405,o),
(378,427,o),
(324,427,c),
(266,427,o),
(231,409,o),
(184,379,c),
(176,374,o),
(172,391,o),
(172,398,c),
(172,706,l),
(172,728,o),
(164,731,o),
(154,728,c),
(112,716,o),
(58,699,o),
(26,686,c),
(15,682,o),
(19,659,o),
(26,658,c),
(40,656,o),
(53,655,o),
(67,653,c),
(80,651,o),
(92,642,o),
(92,627,c),
(93,589,l),
(93,132,l),
(93,48,o),
(86,36,o),
(41,33,c),
(36,32,o),
(23,32,o),
(20,28,c),
(13,20,o),
(17,-5,o),
(26,-3,c)
);
}
);
width = 526;
}
);
unicode = 104;
},
{
glyphname = i;
lastChange = "2023-05-15 06:40:24 +0000";
layers = (
{
hints = (
{
horizontal = 1;
place = (562, 103);
place = (562, 103);
type = Stem;
},
{
place = (74, 104);
place = (74, 104);
type = Stem;
},
{
horizontal = 1;
place = (-3, 21);
target = up;
type = BottomGhost;
},
{
place = (100, 78);
place = (100, 78);
type = Stem;
}
);
layerId = m01;
shapes = (
{
closed = 1;
nodes = (
(83,-1,o),
(181,-2,o),
(232,-3,c),
(243,-3,o),
(246,3,o),
(246,13,c),
(246,16,o),
(247,20,o),
(247,23,c),
(246,30,o),
(236,37,o),
(229,34,c),
(188,34,o),
(181,35,o),
(179,73,c),
(178,87,o),
(178,104,o),
(178,125,c),
(178,413,l),
(178,429,o),
(176,447,o),
(153,439,c),
(124,433,o),
(61,406,o),
(31,395,c),
(25,391,o),
(25,372,o),
(32,370,c),
(46,365,o),
(58,362,o),
(73,359,c),
(98,354,o),
(100,354,o),
(100,304,c),
(100,125,l),
(100,48,o),
(99,38,o),
(56,33,c),
(47,32,o),
(44,34,o),
(35,33,c),
(28,32,o),
(19,26,o),
(20,18,c),
(20,16,o),
(20,4,o),
(21,5,c),
(22,0,o),
(25,-3,o),
(32,-3,c)
);
},
{
closed = 1;
nodes = (
(156,562,o),
(180,584,o),
(180,613,c),
(180,644,o),
(158,665,o),
(126,665,c),
(96,665,o),
(74,642,o),
(74,613,c),
(74,584,o),
(93,562,o),
(125,562,c)
);
}
);
width = 266;
}
);
unicode = 105;
},
{
glyphname = idotless;
lastChange = "2023-05-15 06:06:40 +0000";
layers = (
{
hints = (
{
horizontal = 1;
place = (-2, 32);
place = (-2, 32);
type = Stem;
},
{
place = (100, 78);
place = (100, 78);
type = Stem;
}
);
layerId = m01;
shapes = (
{
closed = 1;
nodes = (
(96,-1,o),
(189,-1,o),
(240,-2,c),
(242,-2,o),
(246,6,o),
(246,13,c),
(247,21,o),
(244,29,o),
(240,30,c),
(229,30,l),
(188,30,o),
(181,35,o),
(179,73,c),
(178,87,o),
(178,104,o),
(178,125,c),
(178,425,l),
(178,440,o),
(172,444,o),
(158,439,c),
(31,395,l),
(25,391,o),
(25,372,o),
(32,370,c),
(46,365,o),
(58,362,o),
(73,359,c),
(98,354,o),
(100,354,o),
(100,304,c),
(100,125,l),
(100,40,o),
(99,30,o),
(40,30,c),
(27,30,l),
(21,30,o),
(19,21,o),
(20,13,c),
(21,5,o),
(25,-3,o),
(29,-2,c)
);
}
);
width = 272;
}
);
unicode = 305;
},
{
glyphname = iacute;
lastChange = "2023-05-15 06:06:40 +0000";
layers = (
{
hints = (
{
horizontal = 1;
place = (-2, 32);
place = (-2, 32);
type = Stem;
},
{
horizontal = 1;
place = (661, -20);
target = down;
type = TopGhost;
},
{
place = (100, 78);
place = (100, 78);
type = Stem;
}
);
layerId = m01;
shapes = (
{
closed = 1;
nodes = (
(96,-1,o),
(189,-1,o),
(240,-2,c),
(242,-2,o),
(246,6,o),
(246,13,c),
(247,21,o),
(244,29,o),
(240,30,c),
(229,30,l),
(188,30,o),
(181,35,o),
(179,73,c),
(178,87,o),
(178,104,o),
(178,125,c),
(178,425,l),
(178,440,o),
(172,444,o),
(158,439,c),
(31,395,l),
(25,391,o),
(25,372,o),
(32,370,c),
(46,365,o),
(58,362,o),
(73,359,c),
(98,354,o),
(100,354,o),
(100,304,c),
(100,125,l),
(100,40,o),
(99,30,o),
(40,30,c),
(27,30,l),
(21,30,o),
(19,21,o),
(20,13,c),
(21,5,o),
(25,-3,o),
(29,-2,c)
);
},
{
closed = 1;
nodes = (
(246,647,l),
(246,648,o),
(247,650,o),
(247,652,c),
(249,660,o),
(240,662,o),
(233,661,c),
(145,661,l),
(138,661,o),
(130,656,o),
(126,648,c),
(77,484,l),
(72,468,o),
(97,468,o),
(103,475,c)
);
}
);
width = 262;
}
);
unicode = 237;
},
{
glyphname = icircumflex;
lastChange = "2023-05-15 06:06:40 +0000";
layers = (
{
hints = (
{
horizontal = 1;
place = (-2, 32);
place = (-2, 32);
type = Stem;
},
{
place = (100, 78);
place = (100, 78);
type = Stem;
}
);
layerId = m01;
shapes = (
{
closed = 1;
nodes = (
(96,-1,o),
(189,-1,o),
(240,-2,c),
(242,-2,o),
(246,6,o),
(246,13,c),
(247,21,o),
(244,29,o),
(240,30,c),
(229,30,l),
(188,30,o),
(181,35,o),
(179,73,c),
(178,87,o),
(178,104,o),
(178,125,c),
(178,425,l),
(178,440,o),
(172,444,o),
(158,439,c),
(31,395,l),
(25,391,o),
(25,372,o),
(32,370,c),
(46,365,o),
(58,362,o),
(73,359,c),
(98,354,o),
(100,354,o),
(100,304,c),
(100,125,l),
(100,40,o),
(99,30,o),
(40,30,c),
(27,30,l),
(21,30,o),
(19,21,o),
(20,13,c),
(21,5,o),
(25,-3,o),
(29,-2,c)
);
},
{
closed = 1;
nodes = (
(276,474,o),
(273,481,o),
(271,486,c),
(183,638,l),
(178,646,o),
(176,647,o),
(166,648,c),
(153,649,o),
(98,648,o),
(91,647,c),
(86,645,o),
(81,642,o),
(78,637,c),
(-11,481,l),
(-15,473,o),
(5,468,o),
(13,475,c),
(128,579,l),
(250,475,l),
(253,472,o),
(263,471,o),
(270,473,c)
);
}
);
width = 262;
}
);
unicode = 238;
},
{
glyphname = idieresis;
lastChange = "2023-05-15 06:06:40 +0000";
layers = (
{
hints = (
{
horizontal = 1;
place = (-2, 32);
place = (-2, 32);
type = Stem;
},
{
place = (100, 78);
place = (100, 78);
type = Stem;
},
{
horizontal = 1;
place = (481, 120);
place = (481, 120);
type = Stem;
},
{
place = (164, 121);
place = (164, 121);
type = Stem;
},
{
place = (-13, 120);
place = (-13, 120);
type = Stem;
}
);
layerId = m01;
shapes = (
{
closed = 1;
nodes = (
(96,-1,o),
(189,-1,o),
(240,-2,c),
(242,-2,o),
(246,6,o),
(246,13,c),
(247,21,o),
(244,29,o),
(240,30,c),
(229,30,l),
(188,30,o),
(181,35,o),
(179,73,c),
(178,87,o),
(178,104,o),
(178,125,c),
(178,425,l),
(178,440,o),
(172,444,o),
(158,439,c),
(31,395,l),
(25,391,o),
(25,372,o),
(32,370,c),
(46,365,o),
(58,362,o),
(73,359,c),
(98,354,o),
(100,354,o),
(100,304,c),
(100,125,l),
(100,40,o),
(99,30,o),
(40,30,c),
(27,30,l),
(21,30,o),
(19,21,o),
(20,13,c),
(21,5,o),
(25,-3,o),
(29,-2,c)
);
},
{
closed = 1;
nodes = (
(80,481,o),
(107,507,o),
(107,541,c),
(107,574,o),
(80,601,o),
(47,601,c),
(14,601,o),
(-13,574,o),
(-13,541,c),
(-13,507,o),
(14,481,o),
(47,481,c)
);
},
{
closed = 1;
nodes = (
(258,481,o),
(285,508,o),
(285,541,c),
(285,574,o),
(258,601,o),
(224,601,c),
(191,601,o),
(164,574,o),
(164,541,c),
(164,508,o),
(191,481,o),
(224,481,c)
);
}
);
width = 262;
}
);
unicode = 239;
},
{
glyphname = igrave;
lastChange = "2023-05-15 06:06:40 +0000";
layers = (
{
hints = (
{
horizontal = 1;
place = (-2, 32);
place = (-2, 32);
type = Stem;
},
{
place = (100, 78);
place = (100, 78);
type = Stem;
},
{
horizontal = 1;
place = (658, -20);
target = down;
type = TopGhost;
},
{
horizontal = 1;
place = (657, -20);
target = down;
type = TopGhost;
}
);
layerId = m01;
shapes = (
{
closed = 1;
nodes = (
(96,-1,o),
(189,-1,o),
(240,-2,c),
(242,-2,o),
(246,6,o),
(246,13,c),
(247,21,o),
(244,29,o),
(240,30,c),
(229,30,l),
(188,30,o),
(181,35,o),
(179,73,c),
(178,87,o),
(178,104,o),
(178,125,c),
(178,425,l),
(178,440,o),
(172,444,o),
(158,439,c),
(31,395,l),
(25,391,o),
(25,372,o),
(32,370,c),
(46,365,o),
(58,362,o),
(73,359,c),
(98,354,o),
(100,354,o),
(100,304,c),
(100,125,l),
(100,40,o),
(99,30,o),
(40,30,c),
(27,30,l),
(21,30,o),
(19,21,o),
(20,13,c),
(21,5,o),
(25,-3,o),
(29,-2,c)
);
},
{
closed = 1;
nodes = (
(135,473,o),
(153,474,o),
(152,487,c),
(142,530,o),
(120,605,o),
(103,650,c),
(98,658,o),
(93,658,o),
(84,658,c),
(7,657,l),
(-5,657,o),
(-13,644,o),
(-7,638,c),
(36,591,o),
(95,522,o),
(127,480,c)
);
}
);
width = 262;
}
);
unicode = 236;
},
{
glyphname = j;
lastChange = "2023-05-15 06:06:40 +0000";
layers = (
{
hints = (
{
horizontal = 1;
place = (551, 103);
place = (551, 103);
type = Stem;
},
{
place = (93, 77);
place = (93, 77);
type = Stem;
},
{
horizontal = 1;
place = (-244, 49);
place = (-244, 49);
type = Stem;
},
{
horizontal = 1;
place = (-244, 111);
place = (-244, 111);
type = Stem;
}
);
layerId = m01;
shapes = (
{
closed = 1;
nodes = (
(39,-244,o),
(78,-230,o),
(109,-196,c),
(126,-178,o),
(140,-157,o),
(150,-133,c),
(167,-91,o),
(170,-62,o),
(170,25,c),
(170,425,l),
(170,435,o),
(165,451,o),
(148,445,c),
(80,423,o),
(31,402,o),
(24,399,c),
(18,396,o),
(18,376,o),
(24,374,c),
(32,372,o),
(44,370,o),
(55,367,c),
(66,365,o),
(77,362,o),
(83,359,c),
(91,354,o),
(93,353,o),
(93,308,c),
(93,-13,l),
(93,-75,l),
(93,-162,o),
(72,-195,o),
(29,-195,c),
(6,-195,o),
(-16,-179,o),
(-30,-163,c),
(-40,-151,o),
(-55,-133,o),
(-71,-133,c),
(-92,-133,o),
(-107,-159,o),
(-107,-186,c),
(-107,-220,o),
(-66,-244,o),
(-9,-244,c)
);
},
{
closed = 1;
nodes = (
(148,551,o),
(171,574,o),
(171,603,c),
(171,632,o),
(149,654,o),
(117,654,c),
(86,654,o),
(62,632,o),
(62,603,c),
(62,574,o),
(85,551,o),
(117,551,c)
);
}
);
width = 247;
}
);
unicode = 106;
},
{
glyphname = k;
lastChange = "2023-05-15 06:06:40 +0000";
layers = (
{
hints = (
{
horizontal = 1;
place = (-3, 34);
place = (-3, 34);
type = Stem;
},
{
horizontal = 1;
place = (389, 32);
place = (389, 32);
type = Stem;
},
{
horizontal = 1;
place = (654, -20);
target = down;
type = TopGhost;
},
{
place = (82, 78);
place = (82, 78);
type = Stem;
},
{
horizontal = 1;
place = (422, -20);
target = down;
type = TopGhost;
}
);
layerId = m01;
shapes = (
{
closed = 1;
nodes = (
(75,-2,o),
(169,-2,o),
(227,-3,c),
(232,-4,o),
(235,5,o),
(235,13,c),
(235,21,o),
(232,30,o),
(227,30,c),
(215,30,l),
(163,30,o),
(161,29,o),
(161,124,c),
(161,195,l),
(161,199,o),
(161,217,o),
(169,211,c),
(298,74,l),
(318,52,o),
(321,48,o),
(321,43,c),
(321,37,o),
(312,29,o),
(286,29,c),
(273,29,o),
(271,27,o),
(271,14,c),
(271,6,o),
(275,-3,o),
(279,-3,c),
(332,-1,o),
(440,0,o),
(496,-3,c),
(504,-4,o),
(506,25,o),
(496,29,c),
(486,29,l),
(452,29,o),
(440,40,o),
(417,63,c),
(354,126,o),
(296,186,o),
(236,248,c),
(231,253,o),
(229,263,o),
(232,266,c),
(268,291,o),
(303,317,o),
(338,343,c),
(373,370,o),
(417,388,o),
(461,389,c),
(464,389,o),
(467,399,o),
(467,406,c),
(467,413,o),
(465,422,o),
(457,422,c),
(410,421,o),
(333,420,o),
(271,421,c),
(260,421,o),
(258,418,o),
(257,407,c),
(256,397,o),
(260,393,o),
(268,389,c),
(276,389,o),
(313,389,o),
(313,377,c),
(313,374,o),
(309,369,o),
(287,353,c),
(181,276,l),
(176,273,o),
(161,267,o),
(161,279,c),
(160,705,l),
(160,721,o),
(153,726,o),
(138,722,c),
(99,712,o),
(75,695,o),
(21,681,c),
(14,679,o),
(12,656,o),
(21,654,c),
(22,654,o),
(34,651,o),
(47,648,c),
(56,646,o),
(80,639,o),
(81,626,c),
(82,607,o),
(82,593,o),
(82,573,c),
(82,132,l),
(82,41,o),
(80,31,o),
(31,31,c),
(15,31,o),
(15,27,o),
(16,13,c),
(16,6,o),
(18,-3,o),
(23,-3,c)
);
}
);
width = 518;
}
);
unicode = 107;
},
{
glyphname = l;
lastChange = "2023-05-15 06:06:40 +0000";
layers = (
{
hints = (
{
horizontal = 1;
place = (-3, 34);
place = (-3, 34);
type = Stem;
},
{
place = (96, 80);
place = (96, 80);
type = Stem;
},
{
horizontal = 1;
place = (-2, 21);
target = up;
type = BottomGhost;
}
);
layerId = m01;
shapes = (
{
closed = 1;
nodes = (
(244,-3,o),
(247,4,o),
(247,13,c),
(247,16,o),
(248,22,o),
(247,25,c),
(246,33,o),
(233,31,o),
(228,31,c),
(179,31,o),
(176,39,o),
(176,98,c),
(176,699,l),
(176,707,o),
(171,721,o),
(162,720,c),
(104,698,o),
(57,685,o),
(30,678,c),
(19,674,o),
(22,652,o),
(30,650,c),
(47,647,o),
(63,644,o),
(80,641,c),
(90,639,o),
(96,635,o),
(96,623,c),
(96,97,l),
(96,44,o),
(88,31,o),
(35,31,c),
(24,31,l),
(16,27,o),
(16,13,o),
(18,6,c),
(19,2,o),
(28,-2,o),
(30,-2,c),
(101,0,o),
(133,-6,o),
(235,-3,c)
);
}
);
width = 262;
}
);
unicode = 108;
},
{
glyphname = lslash;
lastChange = "2023-05-15 06:06:40 +0000";
layers = (
{
hints = (
{
place = (89, 194);
place = (89, 194);
type = Stem;
},
{
horizontal = 1;
place = (-4, 32);
place = (-4, 32);
type = Stem;
},
{
place = (-30, 199);
place = (-30, 199);
type = Stem;
},
{
place = (89, 80);
place = (89, 80);
type = Stem;
}
);
layerId = m01;
shapes = (
{
closed = 1;
nodes = (
(70,-2,o),
(182,-3,o),
(236,-4,c),
(239,-4,o),
(249,-1,o),
(248,13,c),
(248,22,o),
(244,28,o),
(234,28,c),
(182,28,o),
(169,39,o),
(169,97,c),
(169,143,l),
(169,308,l),
(169,321,o),
(172,329,o),
(181,336,c),
(268,410,l),
(277,418,o),
(283,429,o),
(283,436,c),
(283,494,l),
(283,507,o),
(281,520,o),
(266,507,c),
(183,437,l),
(176,431,o),
(169,433,o),
(169,447,c),
(169,689,l),
(169,706,o),
(166,712,o),
(152,708,c),
(10,668,l),
(6,666,o),
(3,661,o),
(4,655,c),
(3,648,o),
(7,643,o),
(10,641,c),
(51,635,l),
(70,632,o),
(77,631,o),
(82,628,c),
(85,626,o),
(89,617,o),
(89,613,c),
(89,559,l),
(89,374,l),
(89,359,o),
(82,353,o),
(73,346,c),
(-30,259,l),
(-30,180,l),
(-30,165,o),
(-21,168,o),
(-11,177,c),
(76,250,l),
(84,257,o),
(89,252,o),
(89,243,c),
(89,136,l),
(89,96,l),
(89,44,o),
(72,28,o),
(17,28,c),
(4,28,o),
(3,21,o),
(3,9,c),
(3,2,o),
(7,-3,o),
(13,-4,c)
);
}
);
width = 251;
}
);
unicode = 322;
},
{
glyphname = m;
lastChange = "2023-05-15 06:06:40 +0000";
layers = (
{
hints = (
{
horizontal = 1;
place = (-3, 36);
place = (-3, 36);
type = Stem;
},
{
place = (636, 76);
place = (636, 76);
type = Stem;
},
{
horizontal = 1;
place = (378, 51);
place = (378, 51);
type = Stem;
},
{
place = (93, 79);
place = (93, 79);
type = Stem;
},
{
place = (365, 78);
place = (365, 78);
type = Stem;
},
{
horizontal = 1;
place = (-2, 21);
target = up;
type = BottomGhost;
}
);
layerId = m01;
shapes = (
{
closed = 1;
nodes = (
(84,-1,o),
(188,-1,o),
(238,-3,c),
(242,-4,o),
(247,4,o),
(248,11,c),
(248,19,o),
(245,28,o),
(241,29,c),
(240,30,o),
(236,30,o),
(232,29,c),
(181,29,o),
(172,38,o),
(172,89,c),
(172,320,l),
(206,343,o),
(255,378,o),
(298,378,c),
(339,378,o),
(365,348,o),
(365,295,c),
(365,132,l),
(365,41,o),
(357,30,o),
(305,30,c),
(301,30,o),
(295,31,o),
(292,29,c),
(280,24,o),
(282,-2,o),
(294,-2,c),
(349,-1,o),
(452,-2,o),
(502,-3,c),
(507,-3,o),
(512,6,o),
(512,14,c),
(511,26,o),
(509,29,o),
(498,29,c),
(454,29,o),
(443,40,o),
(443,89,c),
(443,320,l),
(494,355,o),
(536,378,o),
(565,378,c),
(618,378,o),
(636,348,o),
(636,221,c),
(636,161,o),
(634,122,o),
(631,81,c),
(627,39,o),
(617,29,o),
(574,29,c),
(564,29,l),
(552,29,o),
(554,10,o),
(557,3,c),
(560,-4,o),
(564,-3,o),
(570,-3,c),
(638,-2,o),
(723,0,o),
(792,-3,c),
(797,-4,o),
(802,4,o),
(802,12,c),
(803,19,o),
(803,29,o),
(798,31,c),
(794,34,o),
(784,34,o),
(779,33,c),
(721,33,o),
(712,39,o),
(712,71,c),
(712,124,o),
(716,176,o),
(716,229,c),
(716,310,o),
(714,339,o),
(701,369,c),
(685,406,o),
(651,429,o),
(609,429,c),
(550,429,o),
(496,389,o),
(449,356,c),
(444,352,o),
(439,352,o),
(438,356,c),
(424,401,o),
(388,429,o),
(342,429,c),
(285,429,o),
(229,392,o),
(185,361,c),
(180,357,o),
(173,354,o),
(172,362,c),
(172,421,l),
(172,432,o),
(170,442,o),
(157,439,c),
(111,427,o),
(54,409,o),
(26,396,c),
(21,394,o),
(18,370,o),
(26,369,c),
(49,366,l),
(77,362,o),
(86,358,o),
(90,350,c),
(93,346,o),
(93,328,o),
(93,275,c),
(93,132,l),
(93,46,o),
(84,33,o),
(40,31,c),
(33,31,o),
(21,31,o),
(18,24,c),
(16,19,o),
(15,9,o),
(17,4,c),
(19,-2,o),
(23,-3,o),
(26,-3,c)
);
}
);
width = 812;
}
);
unicode = 109;
},
{
glyphname = n;
lastChange = "2023-05-15 06:06:40 +0000";
layers = (
{
hints = (
{
horizontal = 1;
place = (-2, 33);
place = (-2, 33);
type = Stem;
},
{
horizontal = 1;
place = (374, 54);
place = (374, 54);
type = Stem;
},
{
place = (88, 78);
place = (88, 78);
type = Stem;
},
{
place = (362, 71);
place = (362, 71);
type = Stem;
}
);
layerId = m01;
shapes = (
{
closed = 1;
nodes = (
(233,-2,o),
(236,2,o),
(236,14,c),
(235,21,o),
(232,31,o),
(227,31,c),
(177,31,o),
(166,37,o),
(166,89,c),
(166,315,l),
(210,349,o),
(261,374,o),
(289,374,c),
(337,374,o),
(362,340,o),
(362,263,c),
(362,204,o),
(362,145,o),
(356,87,c),
(352,46,o),
(339,35,o),
(295,31,c),
(288,31,l),
(282,31,o),
(280,21,o),
(280,14,c),
(281,1,o),
(283,-2,o),
(296,-2,c),
(348,0,o),
(436,-3,o),
(486,-2,c),
(497,-2,o),
(499,-3,o),
(501,7,c),
(503,14,o),
(502,23,o),
(499,28,c),
(495,33,o),
(488,34,o),
(483,31,c),
(436,31,o),
(433,38,o),
(433,67,c),
(433,128,o),
(441,188,o),
(441,248,c),
(441,321,o),
(430,428,o),
(330,428,c),
(309,428,o),
(287,421,o),
(260,408,c),
(228,392,o),
(207,378,o),
(177,357,c),
(171,353,o),
(166,367,o),
(166,369,c),
(166,424,l),
(166,436,o),
(159,445,o),
(143,441,c),
(106,433,o),
(57,403,o),
(25,398,c),
(18,395,o),
(18,372,o),
(25,371,c),
(45,367,l),
(76,361,o),
(81,358,o),
(84,351,c),
(87,345,o),
(88,328,o),
(88,270,c),
(88,133,l),
(88,43,o),
(77,29,o),
(31,29,c),
(25,29,l),
(15,29,o),
(14,12,o),
(17,3,c),
(19,-2,o),
(27,-2,o),
(31,-2,c),
(84,-5,o),
(171,-1,o),
(222,-3,c)
);
}
);
width = 516;
}
);
unicode = 110;
},
{
glyphname = ntilde;
lastChange = "2023-05-15 06:06:40 +0000";
layers = (
{
hints = (
{
place = (362, 55);
place = (362, 55);
type = Stem;
},
{
horizontal = 1;
place = (612, -20);
target = down;
type = TopGhost;
},
{
horizontal = 1;
place = (469, 71);
place = (469, 71);
type = Stem;
},
{
horizontal = 1;
place = (-2, 33);
place = (-2, 33);
type = Stem;
},
{
horizontal = 1;
place = (374, 54);
place = (374, 54);
type = Stem;
},
{
place = (95, 71);
place = (95, 71);
type = Stem;
},
{
horizontal = 1;
place = (537, 70);
place = (537, 70);
type = Stem;
},
{
place = (362, 71);
place = (362, 71);
type = Stem;
}
);
layerId = m01;
shapes = (
{
closed = 1;
nodes = (
(233,-2,o),
(236,2,o),
(236,14,c),
(235,21,o),
(232,31,o),
(227,31,c),
(177,31,o),
(166,37,o),
(166,89,c),
(166,315,l),
(210,349,o),
(261,374,o),
(289,374,c),
(337,374,o),
(362,340,o),
(362,263,c),
(362,204,o),
(362,145,o),
(356,87,c),
(352,46,o),
(339,35,o),
(295,31,c),
(288,31,l),
(282,31,o),
(280,21,o),
(280,14,c),
(281,1,o),
(283,-2,o),
(296,-2,c),
(348,0,o),
(436,-3,o),
(486,-2,c),
(497,-2,o),
(499,-3,o),
(501,7,c),
(503,14,o),
(502,23,o),
(499,28,c),
(495,33,o),
(488,34,o),
(483,31,c),
(436,31,o),
(433,38,o),
(433,67,c),
(433,128,o),
(441,188,o),
(441,248,c),
(441,321,o),
(430,428,o),
(330,428,c),
(309,428,o),
(287,421,o),
(260,408,c),
(228,392,o),
(207,378,o),
(177,357,c),
(171,353,o),
(166,367,o),
(166,369,c),
(166,424,l),
(166,436,o),
(159,445,o),
(143,441,c),
(106,433,o),
(57,403,o),
(25,398,c),
(18,395,o),
(18,372,o),
(25,371,c),
(45,367,l),
(76,361,o),
(81,358,o),
(84,351,c),
(87,345,o),
(88,328,o),
(88,270,c),
(88,133,l),
(88,43,o),
(77,29,o),
(31,29,c),
(25,29,l),
(15,29,o),
(14,12,o),
(17,3,c),
(19,-2,o),
(27,-2,o),
(31,-2,c),
(84,-5,o),
(171,-1,o),
(222,-3,c)
);
},
{
closed = 1;
nodes = (
(376,469,o),
(417,522,o),
(417,593,c),
(417,596,o),
(417,600,o),
(415,606,c),
(415,610,o),
(409,613,o),
(403,612,c),
(397,612,o),
(390,610,o),
(390,606,c),
(382,552,o),
(371,540,o),
(350,540,c),
(338,540,o),
(322,546,o),
(291,567,c),
(246,598,o),
(223,607,o),
(193,607,c),
(132,607,o),
(99,558,o),
(95,472,c),
(97,459,o),
(118,464,o),
(122,472,c),
(123,482,o),
(125,486,o),
(125,490,c),
(133,526,o),
(143,537,o),
(162,537,c),
(175,537,o),
(183,534,o),
(221,508,c),
(258,482,o),
(291,469,o),
(318,469,c)
);
}
);
width = 516;
}
);
unicode = 241;
},
{
glyphname = o;
lastChange = "2023-05-15 06:06:40 +0000";
layers = (
{
hints = (
{
horizontal = 1;
place = (-15, 37);
place = (-15, 37);
type = Stem;
},
{
horizontal = 1;
place = (394, 36);
place = (394, 36);
type = Stem;
},
{
place = (25, 87);
place = (25, 87);
type = Stem;
},
{
place = (389, 89);
place = (389, 89);
type = Stem;
}
);
layerId = m01;
shapes = (
{
closed = 1;
nodes = (
(379,-15,o),
(478,82,o),
(478,206,c),
(479,333,o),
(379,430,o),
(250,430,c),
(122,430,o),
(25,335,o),
(25,207,c),
(25,81,o),
(123,-15,o),
(253,-15,c)
);
},
{
closed = 1;
nodes = (
(182,22,o),
(112,117,o),
(112,239,c),
(112,329,o),
(166,394,o),
(236,394,c),
(318,394,o),
(389,298,o),
(389,182,c),
(389,88,o),
(335,22,o),
(265,22,c)
);
}
);
width = 503;
}
);
unicode = 111;
},
{
glyphname = oacute;
lastChange = "2023-05-15 06:06:40 +0000";
layers = (
{
hints = (
{
horizontal = 1;
place = (-15, 37);
place = (-15, 37);
type = Stem;
},
{
horizontal = 1;
place = (394, 36);
place = (394, 36);
type = Stem;
},
{
horizontal = 1;
place = (661, -20);
target = down;
type = TopGhost;
},
{
place = (23, 87);
place = (23, 87);
type = Stem;
},
{
place = (387, 89);
place = (387, 89);
type = Stem;
}
);
layerId = m01;
shapes = (
{
closed = 1;
nodes = (
(377,-15,o),
(476,82,o),
(476,206,c),
(477,333,o),
(377,430,o),
(248,430,c),
(120,430,o),
(23,335,o),
(23,207,c),
(23,81,o),
(121,-15,o),
(251,-15,c)
);
},
{
closed = 1;
nodes = (
(180,22,o),
(110,117,o),
(110,239,c),
(110,329,o),
(164,394,o),
(234,394,c),
(316,394,o),
(387,298,o),
(387,182,c),
(387,88,o),
(333,22,o),
(263,22,c)
);
},
{
closed = 1;
nodes = (
(385,647,l),
(385,648,o),
(386,650,o),
(386,652,c),
(388,660,o),
(379,661,o),
(372,661,c),
(283,661,l),
(277,661,o),
(269,656,o),
(265,648,c),
(216,484,l),
(211,468,o),
(235,468,o),
(242,475,c)
);
}
);
width = 495;
}
);
unicode = 243;
},
{
glyphname = ocircumflex;
lastChange = "2023-05-15 06:06:40 +0000";
layers = (
{
hints = (
{
horizontal = 1;
place = (-15, 37);
place = (-15, 37);
type = Stem;
},
{
horizontal = 1;
place = (394, 36);
place = (394, 36);
type = Stem;
},
{
place = (23, 87);
place = (23, 87);
type = Stem;
},
{
place = (387, 89);
place = (387, 89);
type = Stem;
}
);
layerId = m01;
shapes = (
{
closed = 1;
nodes = (
(377,-15,o),
(476,82,o),
(476,206,c),
(477,333,o),
(377,430,o),
(248,430,c),
(120,430,o),
(23,335,o),
(23,207,c),
(23,81,o),
(121,-15,o),
(251,-15,c)
);
},
{
closed = 1;
nodes = (
(180,22,o),
(110,117,o),
(110,239,c),
(110,329,o),
(164,394,o),
(234,394,c),
(316,394,o),
(387,298,o),
(387,182,c),
(387,88,o),
(333,22,o),
(263,22,c)
);
},
{
closed = 1;
nodes = (
(389,474,o),
(386,481,o),
(384,486,c),
(296,638,l),
(291,646,o),
(289,647,o),
(279,648,c),
(266,649,o),
(211,648,o),
(204,647,c),
(199,645,o),
(194,642,o),
(191,637,c),
(102,481,l),
(98,473,o),
(118,468,o),
(126,475,c),
(241,579,l),
(363,475,l),
(366,472,o),
(376,471,o),
(383,473,c)
);
}
);
width = 495;
}
);
unicode = 244;
},
{
glyphname = odieresis;
lastChange = "2023-05-15 06:06:40 +0000";
layers = (
{
hints = (
{
place = (278, 115);
place = (278, 115);
type = Stem;
},
{
horizontal = 1;
place = (484, 114);
place = (484, 114);
type = Stem;
},
{
place = (110, 114);
place = (110, 114);
type = Stem;
},
{
place = (23, 87);
place = (23, 87);
type = Stem;
},
{
horizontal = 1;
place = (-15, 37);
place = (-15, 37);
type = Stem;
},
{
horizontal = 1;
place = (394, 36);
place = (394, 36);
type = Stem;
},
{
place = (387, 89);
place = (387, 89);
type = Stem;
}
);
layerId = m01;
shapes = (
{
closed = 1;
nodes = (
(377,-15,o),
(476,82,o),
(476,206,c),
(477,333,o),
(377,430,o),
(248,430,c),
(120,430,o),
(23,335,o),
(23,207,c),
(23,81,o),
(121,-15,o),
(251,-15,c)
);
},
{
closed = 1;
nodes = (
(180,22,o),
(110,117,o),
(110,239,c),
(110,329,o),
(164,394,o),
(234,394,c),
(316,394,o),
(387,298,o),
(387,182,c),
(387,88,o),
(333,22,o),
(263,22,c)
);
},
{
closed = 1;
nodes = (
(198,484,o),
(224,508,o),
(224,541,c),
(224,572,o),
(198,598,o),
(167,598,c),
(136,598,o),
(110,572,o),
(110,541,c),
(110,508,o),
(136,484,o),
(167,484,c)
);
},
{
closed = 1;
nodes = (
(368,484,o),
(393,510,o),
(393,541,c),
(393,572,o),
(368,598,o),
(335,598,c),
(304,598,o),
(278,572,o),
(278,541,c),
(278,509,o),
(304,484,o),
(335,484,c)
);
}
);
width = 495;
}
);
unicode = 246;
},
{
glyphname = ograve;
lastChange = "2023-05-15 06:06:40 +0000";
layers = (
{
hints = (
{
horizontal = 1;
place = (658, -20);
target = down;
type = TopGhost;
},
{
horizontal = 1;
place = (-15, 37);
place = (-15, 37);
type = Stem;
},
{
horizontal = 1;
place = (394, 36);
place = (394, 36);
type = Stem;
},
{
place = (23, 87);
place = (23, 87);
type = Stem;
},
{
place = (387, 89);
place = (387, 89);
type = Stem;
},
{
horizontal = 1;
place = (657, -20);
target = down;
type = TopGhost;
}
);
layerId = m01;
shapes = (
{
closed = 1;
nodes = (
(377,-15,o),
(476,82,o),
(476,206,c),
(477,333,o),
(377,430,o),
(248,430,c),
(120,430,o),
(23,335,o),
(23,207,c),
(23,81,o),
(121,-15,o),
(251,-15,c)
);
},
{
closed = 1;
nodes = (
(180,22,o),
(110,117,o),
(110,239,c),
(110,329,o),
(164,394,o),
(234,394,c),
(316,394,o),
(387,298,o),
(387,182,c),
(387,88,o),
(333,22,o),
(263,22,c)
);
},
{
closed = 1;
nodes = (
(309,473,o),
(328,474,o),
(327,487,c),
(317,530,o),
(295,605,o),
(278,650,c),
(273,658,o),
(267,658,o),
(259,658,c),
(182,657,l),
(170,657,o),
(162,644,o),
(167,638,c),
(211,591,o),
(270,522,o),
(302,480,c)
);
}
);
width = 495;
}
);
unicode = 242;
},
{
glyphname = oslash;
lastChange = "2023-05-15 06:06:40 +0000";
layers = (
{
hints = (
{
horizontal = 1;
place = (-17, 37);
place = (-17, 37);
type = Stem;
},
{
horizontal = 1;
place = (396, 36);
place = (396, 36);
type = Stem;
},
{
place = (46, 90);
place = (46, 90);
type = Stem;
},
{
place = (416, 88);
place = (416, 88);
type = Stem;
}
);
layerId = m01;
shapes = (
{
closed = 1;
nodes = (
(67,-54,o),
(73,-54,o),
(78,-49,c),
(132,18,l),
(137,24,o),
(142,24,o),
(147,21,c),
(187,-4,o),
(232,-17,o),
(278,-17,c),
(405,-17,o),
(504,80,o),
(504,207,c),
(504,270,o),
(484,320,o),
(441,364,c),
(437,368,o),
(441,374,o),
(443,376,c),
(469,407,o),
(462,399,o),
(481,421,c),
(485,425,o),
(495,435,o),
(488,442,c),
(488,443,o),
(478,451,o),
(478,451,c),
(474,455,o),
(470,455,o),
(466,451,c),
(421,398,l),
(420,396,o),
(411,390,o),
(408,392,c),
(366,419,o),
(324,432,o),
(275,432,c),
(144,432,o),
(46,336,o),
(46,206,c),
(46,144,o),
(67,93,o),
(110,51,c),
(115,46,o),
(112,42,o),
(107,36,c),
(54,-25,l),
(51,-29,o),
(47,-37,o),
(51,-40,c),
(62,-49,l)
);
},
{
closed = 1;
nodes = (
(253,20,o),
(218,38,o),
(190,72,c),
(187,75,o),
(186,80,o),
(190,84,c),
(378,302,l),
(382,306,o),
(386,303,o),
(388,298,c),
(407,260,o),
(416,221,o),
(416,182,c),
(416,87,o),
(360,20,o),
(289,20,c)
);
},
{
closed = 1;
nodes = (
(144,153,o),
(136,195,o),
(136,238,c),
(136,331,o),
(189,396,o),
(261,396,c),
(298,396,o),
(333,378,o),
(361,344,c),
(364,340,o),
(366,336,o),
(361,330,c),
(177,118,l),
(173,112,o),
(164,113,o),
(162,116,c)
);
}
);
width = 545;
}
);
unicode = 248;
},
{
glyphname = otilde;
lastChange = "2023-05-15 06:06:40 +0000";
layers = (
{
hints = (
{
place = (387, 89);
place = (387, 89);
type = Stem;
},
{
horizontal = 1;
place = (394, 36);
place = (394, 36);
type = Stem;
},
{
place = (23, 87);
place = (23, 87);
type = Stem;
},
{
horizontal = 1;
place = (-15, 37);
place = (-15, 37);
type = Stem;
},
{
horizontal = 1;
place = (612, -20);
target = down;
type = TopGhost;
},
{
horizontal = 1;
place = (469, 71);
place = (469, 71);
type = Stem;
},
{
horizontal = 1;
place = (537, 70);
place = (537, 70);
type = Stem;
}
);
layerId = m01;
shapes = (
{
closed = 1;
nodes = (
(377,-15,o),
(476,82,o),
(476,206,c),
(477,333,o),
(377,430,o),
(248,430,c),
(120,430,o),
(23,335,o),
(23,207,c),
(23,81,o),
(121,-15,o),
(251,-15,c)
);
},
{
closed = 1;
nodes = (
(180,22,o),
(110,117,o),
(110,239,c),
(110,329,o),
(164,394,o),
(234,394,c),
(316,394,o),
(387,298,o),
(387,182,c),
(387,88,o),
(333,22,o),
(263,22,c)
);
},
{
closed = 1;
nodes = (
(364,469,o),
(405,522,o),
(405,593,c),
(405,596,o),
(405,600,o),
(403,606,c),
(403,610,o),
(397,613,o),
(391,612,c),
(385,612,o),
(378,610,o),
(378,606,c),
(370,552,o),
(359,540,o),
(338,540,c),
(326,540,o),
(310,546,o),
(279,567,c),
(234,598,o),
(211,607,o),
(181,607,c),
(120,607,o),
(87,558,o),
(83,472,c),
(85,459,o),
(106,464,o),
(110,472,c),
(111,482,o),
(113,486,o),
(113,490,c),
(121,526,o),
(131,537,o),
(150,537,c),
(163,537,o),
(172,534,o),
(209,508,c),
(247,482,o),
(279,469,o),
(306,469,c)
);
}
);
width = 495;
}
);
unicode = 245;
},
{
glyphname = oe;
lastChange = "2023-05-15 06:06:40 +0000";
layers = (
{
hints = (
{
horizontal = 1;
place = (402, 29);
place = (402, 29);
type = Stem;
},
{
place = (48, 88);
place = (48, 88);
type = Stem;
},
{
horizontal = 1;
place = (-17, 37);
place = (-17, 37);
type = Stem;
},
{
horizontal = 1;
place = (265, 32);
place = (265, 32);
type = Stem;
},
{
place = (390, 75);
place = (390, 75);
type = Stem;
},
{
horizontal = 1;
place = (-17, 57);
place = (-17, 57);
type = Stem;
}
);
layerId = m01;
shapes = (
{
closed = 1;
nodes = (
(339,-17,o),
(389,4,o),
(428,48,c),
(431,52,o),
(436,51,o),
(439,48,c),
(469,5,o),
(509,-17,o),
(554,-17,c),
(587,-17,o),
(619,-6,o),
(650,14,c),
(679,34,o),
(710,60,o),
(735,88,c),
(740,93,o),
(743,99,o),
(737,105,c),
(731,112,o),
(726,122,o),
(716,112,c),
(666,62,o),
(630,40,o),
(600,40,c),
(527,40,o),
(465,131,o),
(465,250,c),
(465,266,o),
(480,265,o),
(493,265,c),
(734,265,l),
(738,265,o),
(747,266,o),
(747,275,c),
(747,290,l),
(733,303,o),
(728,312,o),
(719,334,c),
(694,400,o),
(647,431,o),
(574,431,c),
(518,431,o),
(475,413,o),
(434,371,c),
(427,364,o),
(420,363,o),
(415,369,c),
(381,410,o),
(331,431,o),
(274,431,c),
(148,431,o),
(48,333,o),
(48,209,c),
(48,81,o),
(147,-17,o),
(276,-17,c)
);
},
{
closed = 1;
nodes = (
(208,20,o),
(136,119,o),
(136,234,c),
(136,328,o),
(190,396,o),
(256,396,c),
(332,396,o),
(390,310,o),
(390,181,c),
(390,77,o),
(349,20,o),
(285,20,c)
);
},
{
closed = 1;
nodes = (
(484,297,o),
(470,301,o),
(471,307,c),
(482,370,o),
(514,402,o),
(558,402,c),
(600,402,o),
(634,365,o),
(639,311,c),
(640,302,o),
(635,297,o),
(626,297,c),
(494,297,l)
);
}
);
width = 775;
}
);
unicode = 339;
},
{
glyphname = p;
lastChange = "2023-05-15 06:06:40 +0000";
layers = (
{
hints = (
{
horizontal = 1;
place = (-278, 34);
place = (-278, 34);
type = Stem;
},
{
horizontal = 1;
place = (-11, 42);
place = (-11, 42);
type = Stem;
},
{
horizontal = 1;
place = (364, 60);
place = (364, 60);
type = Stem;
},
{
place = (89, 78);
place = (89, 78);
type = Stem;
},
{
place = (397, 78);
place = (397, 78);
type = Stem;
}
);
layerId = m01;
shapes = (
{
closed = 1;
nodes = (
(67,-280,o),
(180,-275,o),
(250,-278,c),
(254,-278,o),
(261,-276,o),
(263,-272,c),
(266,-267,o),
(266,-256,o),
(264,-249,c),
(262,-244,o),
(254,-241,o),
(246,-241,c),
(232,-241,l),
(176,-241,o),
(167,-229,o),
(167,-132,c),
(167,-13,l),
(167,6,o),
(172,5,o),
(179,3,c),
(208,-6,o),
(230,-11,o),
(254,-11,c),
(373,-11,o),
(475,99,o),
(475,225,c),
(475,330,o),
(404,424,o),
(319,424,c),
(280,424,o),
(242,406,o),
(177,360,c),
(169,354,o),
(167,374,o),
(167,378,c),
(167,440,l),
(167,456,o),
(156,458,o),
(140,448,c),
(30,379,l),
(28,377,o),
(26,376,o),
(24,372,c),
(21,368,o),
(19,353,o),
(28,351,c),
(40,348,o),
(51,343,o),
(63,340,c),
(86,334,o),
(89,331,o),
(89,306,c),
(89,282,l),
(89,-132,l),
(89,-229,o),
(81,-244,o),
(25,-244,c),
(16,-244,l),
(5,-244,o),
(4,-264,o),
(9,-273,c),
(12,-279,o),
(19,-278,o),
(25,-278,c)
);
},
{
closed = 1;
nodes = (
(245,31,o),
(203,51,o),
(167,85,c),
(167,303,l),
(167,312,o),
(171,319,o),
(173,321,c),
(207,348,o),
(240,364,o),
(269,364,c),
(341,364,o),
(397,288,o),
(397,186,c),
(397,96,o),
(348,31,o),
(282,31,c)
);
}
);
width = 503;
}
);
unicode = 112;
},
{
glyphname = thorn;
lastChange = "2023-05-15 06:06:40 +0000";
layers = (
{
hints = (
{
horizontal = 1;
place = (-252, 34);
place = (-252, 34);
type = Stem;
},
{
horizontal = 1;
place = (-1, 44);
place = (-1, 44);
type = Stem;
},
{
horizontal = 1;
place = (377, 63);
place = (377, 63);
type = Stem;
},
{
place = (84, 81);
place = (84, 81);
type = Stem;
},
{
place = (399, 81);
place = (399, 81);
type = Stem;
}
);
layerId = m01;
shapes = (
{
closed = 1;
nodes = (
(65,-250,o),
(191,-251,o),
(246,-252,c),
(267,-253,o),
(263,-245,o),
(261,-230,c),
(260,-219,o),
(258,-216,o),
(245,-217,c),
(230,-218,l),
(174,-222,o),
(165,-199,o),
(165,-111,c),
(165,-9,l),
(165,3,o),
(166,16,o),
(175,13,c),
(205,3,o),
(229,-1,o),
(253,-1,c),
(375,-1,o),
(480,110,o),
(480,238,c),
(480,344,o),
(406,440,o),
(320,440,c),
(280,440,o),
(243,424,o),
(178,379,c),
(174,375,o),
(170,379,o),
(168,385,c),
(166,392,o),
(165,401,o),
(165,409,c),
(165,693,l),
(165,715,o),
(157,716,o),
(137,709,c),
(28,642,l),
(26,641,o),
(24,640,o),
(23,639,c),
(18,636,o),
(19,634,o),
(19,629,c),
(19,621,o),
(20,611,o),
(30,608,c),
(58,600,l),
(82,593,o),
(84,592,o),
(84,567,c),
(84,541,l),
(84,-111,l),
(84,-210,o),
(75,-217,o),
(27,-218,c),
(19,-218,o),
(5,-212,o),
(4,-225,c),
(3,-241,l),
(3,-249,o),
(7,-252,o),
(17,-252,c)
);
},
{
closed = 1;
nodes = (
(246,43,o),
(201,63,o),
(165,97,c),
(165,329,l),
(201,360,o),
(238,377,o),
(269,377,c),
(341,377,o),
(399,301,o),
(399,199,c),
(399,108,o),
(348,43,o),
(282,43,c)
);
}
);
width = 523;
}
);
unicode = 254;
},
{
glyphname = q;
lastChange = "2023-05-15 06:06:40 +0000";
layers = (
{
hints = (
{
horizontal = 1;
place = (-277, 36);
place = (-277, 36);
type = Stem;
},
{
horizontal = 1;
place = (-13, 53);
place = (-13, 53);
type = Stem;
},
{
horizontal = 1;
place = (393, 33);
place = (393, 33);
type = Stem;
},
{
place = (31, 77);
place = (31, 77);
type = Stem;
},
{
place = (347, 76);
place = (347, 76);
type = Stem;
}
);
layerId = m01;
shapes = (
{
closed = 1;
nodes = (
(317,-275,o),
(416,-275,o),
(479,-277,c),
(482,-277,o),
(485,-277,o),
(488,-277,c),
(490,-276,o),
(491,-275,o),
(493,-271,c),
(497,-262,o),
(497,-244,o),
(487,-244,c),
(477,-244,l),
(433,-244,o),
(423,-224,o),
(423,-130,c),
(423,305,l),
(423,349,l),
(423,377,o),
(425,405,o),
(430,424,c),
(426,431,o),
(410,428,o),
(405,425,c),
(396,418,o),
(386,408,o),
(378,399,c),
(377,397,o),
(371,393,o),
(363,397,c),
(324,417,o),
(286,426,o),
(249,426,c),
(126,426,o),
(31,324,o),
(31,195,c),
(31,76,o),
(102,-13,o),
(199,-13,c),
(245,-13,o),
(290,6,o),
(339,47,c),
(346,53,o),
(348,30,o),
(348,30,c),
(347,30,l),
(347,-130,l),
(347,-228,o),
(338,-241,o),
(284,-241,c),
(271,-241,o),
(258,-240,o),
(245,-242,c),
(235,-247,o),
(237,-255,o),
(237,-262,c),
(237,-275,o),
(246,-277,o),
(256,-277,c)
);
},
{
closed = 1;
nodes = (
(167,40,o),
(108,118,o),
(108,222,c),
(108,329,o),
(159,393,o),
(238,393,c),
(283,393,o),
(324,364,o),
(338,324,c),
(346,299,o),
(346,290,o),
(347,218,c),
(348,103,l),
(345,89,o),
(343,87,o),
(341,85,c),
(307,56,o),
(271,40,o),
(243,40,c)
);
}
);
width = 504;
}
);
unicode = 113;
},
{
glyphname = r;
lastChange = "2023-05-15 06:06:40 +0000";
layers = (
{
hints = (
{
horizontal = 1;
place = (-3, 33);
place = (-3, 33);
type = Stem;
},
{
place = (92, 78);
place = (92, 78);
type = Stem;
}
);
layerId = m01;
shapes = (
{
closed = 1;
nodes = (
(85,0,o),
(192,-2,o),
(245,-3,c),
(248,-3,o),
(256,-4,o),
(259,-2,c),
(268,6,o),
(262,31,o),
(253,31,c),
(231,31,l),
(181,31,o),
(172,38,o),
(171,89,c),
(169,141,o),
(170,104,o),
(170,289,c),
(196,338,o),
(218,353,o),
(237,353,c),
(250,353,o),
(261,348,o),
(273,342,c),
(285,336,o),
(296,330,o),
(310,329,c),
(321,349,o),
(332,370,o),
(339,392,c),
(341,398,o),
(335,403,o),
(330,404,c),
(325,406,o),
(318,407,o),
(313,409,c),
(288,420,o),
(248,434,o),
(220,419,c),
(205,411,o),
(194,387,o),
(175,346,c),
(174,345,o),
(169,344,o),
(169,353,c),
(168,376,o),
(169,399,o),
(168,423,c),
(168,434,o),
(161,441,o),
(150,435,c),
(132,426,o),
(111,418,o),
(90,411,c),
(69,404,o),
(48,398,o),
(31,389,c),
(26,388,o),
(23,386,o),
(23,378,c),
(23,370,l),
(24,361,o),
(28,360,o),
(40,355,c),
(82,339,l),
(91,336,o),
(90,332,o),
(92,324,c),
(92,132,l),
(92,43,o),
(80,30,o),
(33,30,c),
(19,30,o),
(20,28,o),
(20,14,c),
(20,5,o),
(20,-4,o),
(32,-3,c)
);
}
);
width = 350;
}
);
unicode = 114;
},
{
glyphname = s;
lastChange = "2023-05-15 06:06:40 +0000";
layers = (
{
hints = (
{
horizontal = 1;
place = (-10, 30);
place = (-10, 30);
type = Stem;
},
{
horizontal = 1;
place = (398, 37);
place = (398, 37);
type = Stem;
},
{
place = (34, 64);
place = (34, 64);
type = Stem;
},
{
place = (216, 69);
place = (216, 69);
type = Stem;
}
);
layerId = m01;
shapes = (
{
closed = 1;
nodes = (
(61,-14,o),
(65,-11,o),
(71,-9,c),
(75,1,o),
(80,4,o),
(84,4,c),
(90,3,o),
(98,-1,o),
(104,-3,c),
(118,-7,o),
(138,-10,o),
(154,-10,c),
(226,-10,o),
(285,43,o),
(285,113,c),
(285,142,o),
(271,174,o),
(251,196,c),
(225,225,o),
(189,243,o),
(158,266,c),
(125,290,o),
(98,316,o),
(98,345,c),
(98,375,o),
(121,398,o),
(153,398,c),
(189,398,o),
(218,369,o),
(228,314,c),
(227,311,o),
(234,309,o),
(241,309,c),
(248,309,o),
(255,312,o),
(255,314,c),
(257,340,o),
(255,390,o),
(253,416,c),
(224,428,o),
(196,435,o),
(169,435,c),
(91,435,o),
(34,385,o),
(34,313,c),
(34,254,o),
(81,219,o),
(126,189,c),
(162,164,o),
(216,133,o),
(216,84,c),
(216,49,o),
(187,20,o),
(151,20,c),
(109,20,o),
(77,49,o),
(63,110,c),
(62,114,o),
(61,118,o),
(56,120,c),
(47,121,o),
(35,121,o),
(36,112,c),
(35,81,o),
(41,28,o),
(45,-2,c),
(46,-9,o),
(49,-11,o),
(55,-12,c)
);
}
);
width = 314;
}
);
unicode = 115;
},
{
glyphname = scaron;
lastChange = "2023-05-15 06:06:40 +0000";
layers = (
{
hints = (
{
horizontal = 1;
place = (662, -20);
target = down;
type = TopGhost;
},
{
horizontal = 1;
place = (-10, 30);
place = (-10, 30);
type = Stem;
},
{
horizontal = 1;
place = (398, 37);
place = (398, 37);
type = Stem;
},
{
horizontal = 1;
place = (435, 46);
place = (435, 46);
type = Stem;
},
{
place = (34, 64);
place = (34, 64);
type = Stem;
},
{
place = (216, 69);
place = (216, 69);
type = Stem;
},
{
horizontal = 1;
place = (663, -20);
target = down;
type = TopGhost;
}
);
layerId = m01;
shapes = (
{
closed = 1;
nodes = (
(61,-14,o),
(65,-11,o),
(71,-9,c),
(75,1,o),
(80,4,o),
(84,4,c),
(90,3,o),
(98,-1,o),
(104,-3,c),
(118,-7,o),
(138,-10,o),
(154,-10,c),
(226,-10,o),
(285,43,o),
(285,113,c),
(285,142,o),
(271,174,o),
(251,196,c),
(225,225,o),
(189,243,o),
(158,266,c),
(125,290,o),
(98,316,o),
(98,345,c),
(98,375,o),
(121,398,o),
(153,398,c),
(189,398,o),
(218,369,o),
(228,314,c),
(227,311,o),
(234,309,o),
(241,309,c),
(248,309,o),
(255,312,o),
(255,314,c),
(257,340,o),
(255,390,o),
(253,416,c),
(224,428,o),
(196,435,o),
(169,435,c),
(91,435,o),
(34,385,o),
(34,313,c),
(34,254,o),
(81,219,o),
(126,189,c),
(162,164,o),
(216,133,o),
(216,84,c),
(216,49,o),
(187,20,o),
(151,20,c),
(109,20,o),
(77,49,o),
(63,110,c),
(62,114,o),
(61,118,o),
(56,120,c),
(47,121,o),
(35,121,o),
(36,112,c),
(35,81,o),
(41,28,o),
(45,-2,c),
(46,-9,o),
(49,-11,o),
(55,-12,c)
);
},
{
closed = 1;
nodes = (
(199,481,l),
(207,481,o),
(210,482,o),
(213,486,c),
(310,657,l),
(311,660,o),
(305,662,o),
(298,662,c),
(293,662,o),
(286,660,o),
(283,658,c),
(170,553,l),
(36,658,l),
(33,662,o),
(25,663,o),
(19,663,c),
(16,663,o),
(13,663,o),
(11,662,c),
(9,661,o),
(8,659,o),
(9,656,c),
(106,489,l),
(107,484,o),
(112,481,o),
(123,481,c)
);
}
);
width = 316;
}
);
unicode = 353;
},
{
glyphname = germandbls;
lastChange = "2023-05-15 06:06:40 +0000";
layers = (
{
hints = (
{
place = (412, 90);
place = (412, 90);
type = Stem;
},
{
horizontal = 1;
place = (-17, 45);
place = (-17, 45);
type = Stem;
},
{
horizontal = 1;
place = (676, 35);
place = (676, 35);
type = Stem;
},
{
place = (86, 81);
place = (86, 81);
type = Stem;
},
{
place = (388, 80);
place = (388, 80);
type = Stem;
},
{
horizontal = 1;
place = (-4, 32);
place = (-4, 32);
type = Stem;
}
);
layerId = m01;
shapes = (
{
closed = 1;
nodes = (
(420,-17,o),
(502,78,o),
(502,187,c),
(502,245,o),
(486,284,o),
(446,323,c),
(416,352,o),
(384,371,o),
(344,382,c),
(337,384,o),
(332,385,o),
(343,390,c),
(422,424,o),
(468,482,o),
(468,550,c),
(468,641,o),
(389,711,o),
(288,711,c),
(225,711,o),
(176,687,o),
(138,639,c),
(95,583,o),
(86,542,o),
(86,386,c),
(86,132,l),
(86,93,l),
(86,37,o),
(84,31,o),
(31,28,c),
(19,27,o),
(19,24,o),
(19,11,c),
(19,0,o),
(21,-5,o),
(31,-4,c),
(80,-2,o),
(166,-2,o),
(225,-4,c),
(230,-5,o),
(232,-3,o),
(234,0,c),
(235,3,o),
(235,8,o),
(235,11,c),
(235,27,o),
(232,29,o),
(219,31,c),
(172,31,o),
(167,37,o),
(167,87,c),
(167,132,l),
(167,433,l),
(167,498,l),
(167,568,o),
(174,599,o),
(195,632,c),
(213,660,o),
(242,676,o),
(276,676,c),
(343,676,o),
(388,623,o),
(388,541,c),
(388,459,o),
(340,406,o),
(252,394,c),
(241,392,o),
(241,391,o),
(241,382,c),
(241,378,o),
(241,373,o),
(243,370,c),
(245,368,o),
(249,366,o),
(257,366,c),
(275,366,o),
(294,364,o),
(309,361,c),
(375,347,o),
(412,281,o),
(412,172,c),
(412,87,o),
(387,33,o),
(361,33,c),
(356,33,o),
(349,36,o),
(333,43,c),
(323,49,o),
(312,57,o),
(299,57,c),
(282,57,o),
(269,41,o),
(269,22,c),
(269,-3,o),
(293,-17,o),
(322,-17,c)
);
}
);
width = 545;
}
);
unicode = 223;
},
{
glyphname = t;
lastChange = "2023-05-15 06:06:40 +0000";
layers = (
{
hints = (
{
horizontal = 1;
place = (-11, 58);
place = (-11, 58);
type = Stem;
},
{
horizontal = 1;
place = (368, 55);
place = (368, 55);
type = Stem;
},
{
place = (70, 76);
place = (70, 76);
type = Stem;
}
);
layerId = m01;
shapes = (
{
closed = 1;
nodes = (
(227,-11,o),
(268,22,o),
(294,80,c),
(295,83,o),
(297,95,o),
(293,99,c),
(287,106,o),
(272,106,o),
(270,100,c),
(250,62,o),
(230,47,o),
(210,47,c),
(163,47,o),
(146,75,o),
(146,179,c),
(146,356,l),
(147,361,o),
(155,368,o),
(161,368,c),
(256,366,l),
(268,366,o),
(269,369,o),
(272,374,c),
(276,383,o),
(280,397,o),
(281,407,c),
(285,419,o),
(277,423,o),
(269,423,c),
(158,423,l),
(154,423,o),
(147,430,o),
(146,436,c),
(144,459,o),
(145,501,o),
(146,524,c),
(147,537,o),
(122,532,o),
(121,524,c),
(98,459,o),
(68,417,o),
(29,397,c),
(27,396,o),
(22,392,o),
(21,390,c),
(19,385,o),
(21,374,o),
(24,369,c),
(32,367,o),
(38,366,o),
(44,366,c),
(50,366,o),
(56,366,o),
(64,366,c),
(67,365,o),
(70,358,o),
(70,355,c),
(70,155,l),
(70,114,l),
(70,41,o),
(114,-11,o),
(177,-11,c)
);
}
);
width = 319;
}
);
unicode = 116;
},
{
glyphname = u;
lastChange = "2023-05-15 06:06:40 +0000";
layers = (
{
hints = (
{
horizontal = 1;
place = (-10, 59);
place = (-10, 59);
type = Stem;
},
{
place = (88, 79);
place = (88, 79);
type = Stem;
},
{
place = (371, 77);
place = (371, 77);
type = Stem;
}
);
layerId = m01;
shapes = (
{
closed = 1;
nodes = (
(263,-10,o),
(314,28,o),
(362,63,c),
(366,67,o),
(369,51,o),
(369,48,c),
(371,9,l),
(372,-10,o),
(384,-8,o),
(399,-5,c),
(433,2,o),
(483,18,o),
(513,31,c),
(525,33,o),
(524,65,o),
(512,63,c),
(506,61,o),
(498,59,o),
(491,57,c),
(471,52,o),
(448,48,o),
(448,79,c),
(448,110,l),
(448,428,l),
(448,441,o),
(439,445,o),
(428,444,c),
(392,440,o),
(326,426,o),
(285,417,c),
(277,415,o),
(275,396,o),
(283,391,c),
(303,388,o),
(311,387,o),
(316,386,c),
(322,384,o),
(325,385,o),
(338,382,c),
(355,379,o),
(364,366,o),
(368,350,c),
(372,331,o),
(371,311,o),
(371,291,c),
(371,118,l),
(371,110,o),
(367,100,o),
(367,99,c),
(328,68,o),
(286,49,o),
(255,49,c),
(188,49,o),
(167,76,o),
(167,184,c),
(167,424,l),
(167,432,o),
(163,445,o),
(151,443,c),
(116,436,o),
(57,420,o),
(26,413,c),
(14,410,o),
(21,389,o),
(26,388,c),
(39,384,o),
(53,381,o),
(66,377,c),
(86,371,o),
(88,360,o),
(88,340,c),
(88,128,l),
(88,43,o),
(123,-10,o),
(201,-10,c)
);
}
);
width = 534;
}
);
unicode = 117;
},
{
glyphname = uacute;
lastChange = "2023-05-15 06:06:40 +0000";
layers = (
{
hints = (
{
horizontal = 1;
place = (-10, 59);
place = (-10, 59);
type = Stem;
},
{
horizontal = 1;
place = (661, -20);
target = down;
type = TopGhost;
},
{
place = (88, 79);
place = (88, 79);
type = Stem;
},
{
place = (371, 77);
place = (371, 77);
type = Stem;
}
);
layerId = m01;
shapes = (
{
closed = 1;
nodes = (
(263,-10,o),
(314,28,o),
(362,63,c),
(366,67,o),
(369,51,o),
(369,48,c),
(371,9,l),
(372,-10,o),
(384,-8,o),
(399,-5,c),
(433,2,o),
(483,18,o),
(513,31,c),
(525,33,o),
(524,65,o),
(512,63,c),
(505,61,o),
(498,59,o),
(491,57,c),
(471,52,o),
(448,48,o),
(448,79,c),
(448,110,l),
(448,428,l),
(448,441,o),
(439,445,o),
(428,444,c),
(392,440,o),
(326,426,o),
(285,417,c),
(277,415,o),
(275,395,o),
(283,391,c),
(303,388,o),
(311,387,o),
(316,386,c),
(322,384,o),
(325,384,o),
(338,381,c),
(355,378,o),
(364,366,o),
(368,350,c),
(372,331,o),
(371,311,o),
(371,291,c),
(371,118,l),
(371,110,o),
(367,100,o),
(367,99,c),
(328,68,o),
(286,49,o),
(255,49,c),
(188,49,o),
(167,76,o),
(167,184,c),
(167,424,l),
(167,432,o),
(163,445,o),
(151,443,c),
(116,436,o),
(57,420,o),
(26,413,c),
(14,410,o),
(21,389,o),
(26,388,c),
(39,384,o),
(53,381,o),
(66,376,c),
(86,371,o),
(88,360,o),
(88,339,c),
(88,128,l),
(88,43,o),
(123,-10,o),
(201,-10,c)
);
},
{
closed = 1;
nodes = (
(385,647,l),
(385,648,o),
(386,650,o),
(386,652,c),
(388,660,o),
(379,661,o),
(372,661,c),
(283,661,l),
(277,661,o),
(269,656,o),
(265,648,c),
(216,484,l),
(211,468,o),
(235,468,o),
(242,475,c)
);
}
);
width = 534;
}
);
unicode = 250;
},
{
glyphname = ucircumflex;
lastChange = "2023-05-15 06:06:40 +0000";
layers = (
{
hints = (
{
horizontal = 1;
place = (-10, 59);
place = (-10, 59);
type = Stem;
},
{
place = (88, 79);
place = (88, 79);
type = Stem;
},
{
place = (371, 77);
place = (371, 77);
type = Stem;
}
);
layerId = m01;
shapes = (
{
closed = 1;
nodes = (
(263,-10,o),
(314,28,o),
(362,63,c),
(366,67,o),
(369,51,o),
(369,48,c),
(371,9,l),
(372,-10,o),
(384,-8,o),
(399,-5,c),
(433,2,o),
(483,18,o),
(513,31,c),
(525,33,o),
(524,65,o),
(512,63,c),
(505,61,o),
(498,59,o),
(491,57,c),
(471,52,o),
(448,48,o),
(448,79,c),
(448,110,l),
(448,428,l),
(448,441,o),
(439,445,o),
(428,444,c),
(392,440,o),
(326,426,o),
(285,417,c),
(277,415,o),
(275,395,o),
(283,391,c),
(303,388,o),
(311,387,o),
(316,386,c),
(322,384,o),
(325,384,o),
(338,381,c),
(355,378,o),
(364,366,o),
(368,350,c),
(372,331,o),
(371,311,o),
(371,291,c),
(371,118,l),
(371,110,o),
(367,100,o),
(367,99,c),
(328,68,o),
(286,49,o),
(255,49,c),
(188,49,o),
(167,76,o),
(167,184,c),
(167,424,l),
(167,432,o),
(163,445,o),
(151,443,c),
(116,436,o),
(57,420,o),
(26,413,c),
(14,410,o),
(21,389,o),
(26,388,c),
(39,384,o),
(53,381,o),
(66,376,c),
(86,371,o),
(88,360,o),
(88,339,c),
(88,128,l),
(88,43,o),
(123,-10,o),
(201,-10,c)
);
},
{
closed = 1;
nodes = (
(392,474,o),
(389,481,o),
(387,486,c),
(299,638,l),
(294,646,o),
(292,647,o),
(282,648,c),
(269,649,o),
(214,648,o),
(207,647,c),
(202,645,o),
(197,642,o),
(194,637,c),
(105,481,l),
(101,473,o),
(121,468,o),
(129,475,c),
(244,579,l),
(366,475,l),
(369,472,o),
(379,471,o),
(386,473,c)
);
}
);
width = 534;
}
);
unicode = 251;
},
{
glyphname = udieresis;
lastChange = "2023-05-15 06:06:40 +0000";
layers = (
{
hints = (
{
place = (290, 115);
place = (290, 115);
type = Stem;
},
{
horizontal = 1;
place = (484, 114);
place = (484, 114);
type = Stem;
},
{
place = (122, 115);
place = (122, 115);
type = Stem;
},
{
horizontal = 1;
place = (-10, 59);
place = (-10, 59);
type = Stem;
},
{
place = (371, 77);
place = (371, 77);
type = Stem;
},
{
place = (88, 79);
place = (88, 79);
type = Stem;
}
);
layerId = m01;
shapes = (
{
closed = 1;
nodes = (
(263,-10,o),
(314,28,o),
(362,63,c),
(366,67,o),
(369,51,o),
(369,48,c),
(371,9,l),
(372,-10,o),
(384,-8,o),
(399,-5,c),
(433,2,o),
(483,18,o),
(513,31,c),
(525,33,o),
(524,65,o),
(512,63,c),
(505,61,o),
(498,59,o),
(491,57,c),
(471,52,o),
(448,48,o),
(448,79,c),
(448,110,l),
(448,428,l),
(448,441,o),
(439,445,o),
(428,444,c),
(392,440,o),
(326,426,o),
(285,417,c),
(277,415,o),
(275,395,o),
(283,391,c),
(303,388,o),
(311,387,o),
(316,386,c),
(322,384,o),
(325,384,o),
(338,381,c),
(355,378,o),
(364,366,o),
(368,350,c),
(372,331,o),
(371,311,o),
(371,291,c),
(371,118,l),
(371,110,o),
(367,100,o),
(367,99,c),
(328,68,o),
(286,49,o),
(255,49,c),
(188,49,o),
(167,76,o),
(167,184,c),
(167,424,l),
(167,432,o),
(163,445,o),
(151,443,c),
(116,436,o),
(57,420,o),
(26,413,c),
(14,410,o),
(21,389,o),
(26,388,c),
(39,384,o),
(53,381,o),
(66,376,c),
(86,371,o),
(88,360,o),
(88,339,c),
(88,128,l),
(88,43,o),
(123,-10,o),
(201,-10,c)
);
},
{
closed = 1;
nodes = (
(211,484,o),
(237,508,o),
(237,541,c),
(237,572,o),
(211,598,o),
(179,598,c),
(148,598,o),
(122,572,o),
(122,541,c),
(122,508,o),
(148,484,o),
(179,484,c)
);
},
{
closed = 1;
nodes = (
(380,484,o),
(405,510,o),
(405,541,c),
(405,572,o),
(380,598,o),
(348,598,c),
(316,598,o),
(290,572,o),
(290,541,c),
(290,509,o),
(316,484,o),
(348,484,c)
);
}
);
width = 534;
}
);
unicode = 252;
},
{
glyphname = ugrave;
lastChange = "2023-05-15 06:06:40 +0000";
layers = (
{
hints = (
{
horizontal = 1;
place = (658, -20);
target = down;
type = TopGhost;
},
{
horizontal = 1;
place = (-10, 59);
place = (-10, 59);
type = Stem;
},
{
place = (88, 79);
place = (88, 79);
type = Stem;
},
{
place = (371, 77);
place = (371, 77);
type = Stem;
},
{
horizontal = 1;
place = (657, -20);
target = down;
type = TopGhost;
}
);
layerId = m01;
shapes = (
{
closed = 1;
nodes = (
(263,-10,o),
(314,28,o),
(362,63,c),
(366,67,o),
(369,51,o),
(369,48,c),
(371,9,l),
(372,-10,o),
(384,-8,o),
(399,-5,c),
(433,2,o),
(483,18,o),
(513,31,c),
(525,33,o),
(524,65,o),
(512,63,c),
(505,61,o),
(498,59,o),
(491,57,c),
(471,52,o),
(448,48,o),
(448,79,c),
(448,110,l),
(448,428,l),
(448,441,o),
(439,445,o),
(428,444,c),
(392,440,o),
(326,426,o),
(285,417,c),
(277,415,o),
(275,395,o),
(283,391,c),
(303,388,o),
(311,387,o),
(316,386,c),
(322,384,o),
(325,384,o),
(338,381,c),
(355,378,o),
(364,366,o),
(368,350,c),
(372,331,o),
(371,311,o),
(371,291,c),
(371,118,l),
(371,110,o),
(367,100,o),
(367,99,c),
(328,68,o),
(286,49,o),
(255,49,c),
(188,49,o),
(167,76,o),
(167,184,c),
(167,424,l),
(167,432,o),
(163,445,o),
(151,443,c),
(116,436,o),
(57,420,o),
(26,413,c),
(14,410,o),
(21,389,o),
(26,388,c),
(39,384,o),
(53,381,o),
(66,376,c),
(86,371,o),
(88,360,o),
(88,339,c),
(88,128,l),
(88,43,o),
(123,-10,o),
(201,-10,c)
);
},
{
closed = 1;
nodes = (
(299,473,o),
(318,474,o),
(317,487,c),
(307,530,o),
(285,605,o),
(268,650,c),
(263,658,o),
(257,658,o),
(249,658,c),
(172,657,l),
(160,657,o),
(152,644,o),
(157,638,c),
(201,591,o),
(260,522,o),
(292,480,c)
);
}
);
width = 534;
}
);
unicode = 249;
},
{
glyphname = v;
lastChange = "2023-05-15 06:06:40 +0000";
layers = (
{
hints = (
{
horizontal = 1;
place = (388, 31);
place = (388, 31);
type = Stem;
}
);
layerId = m01;
shapes = (
{
closed = 1;
nodes = (
(271,-9,o),
(274,-5,o),
(278,2,c),
(400,284,l),
(436,368,o),
(447,384,o),
(490,389,c),
(496,389,o),
(499,419,o),
(488,419,c),
(433,418,o),
(356,418,o),
(310,419,c),
(299,419,o),
(301,392,o),
(306,388,c),
(333,387,o),
(397,377,o),
(377,334,c),
(352,281,o),
(304,166,o),
(281,110,c),
(274,93,o),
(268,109,o),
(263,116,c),
(249,150,o),
(161,352,o),
(161,368,c),
(161,378,o),
(163,388,o),
(213,388,c),
(222,388,l),
(227,388,o),
(230,396,o),
(230,403,c),
(230,411,o),
(228,419,o),
(224,419,c),
(160,416,o),
(35,421,o),
(14,419,c),
(2,418,o),
(1,390,o),
(10,388,c),
(30,385,o),
(53,383,o),
(67,367,c),
(75,357,o),
(77,352,o),
(97,305,c),
(227,6,l),
(229,1,o),
(230,-6,o),
(237,-9,c),
(243,-11,o),
(255,-12,o),
(264,-10,c)
);
}
);
width = 498;
}
);
unicode = 118;
},
{
glyphname = w;
lastChange = "2023-05-15 06:06:40 +0000";
layers = (
{
hints = (
{
horizontal = 1;
place = (386, 31);
place = (386, 31);
type = Stem;
},
{
horizontal = 1;
place = (-12, 21);
target = up;
type = BottomGhost;
},
{
horizontal = 1;
place = (416, -20);
target = down;
type = TopGhost;
}
);
layerId = m01;
shapes = (
{
closed = 1;
nodes = (
(510,-15,o),
(518,-12,o),
(523,-11,c),
(536,-9,o),
(536,-9,o),
(540,2,c),
(583,109,o),
(625,214,o),
(668,320,c),
(676,339,o),
(684,358,o),
(689,366,c),
(700,381,o),
(713,383,o),
(740,386,c),
(747,387,o),
(750,420,o),
(735,417,c),
(676,416,o),
(604,416,o),
(561,417,c),
(548,417,o),
(553,388,o),
(559,386,c),
(569,385,o),
(579,385,o),
(588,385,c),
(617,383,o),
(638,374,o),
(631,338,c),
(626,311,o),
(547,123,o),
(544,116,c),
(542,111,o),
(532,100,o),
(529,108,c),
(445,311,l),
(433,340,o),
(430,351,o),
(430,360,c),
(430,376,o),
(440,385,o),
(483,386,c),
(486,388,o),
(488,401,o),
(485,409,c),
(482,419,o),
(475,417,o),
(466,416,c),
(391,410,o),
(309,416,o),
(263,417,c),
(259,417,o),
(257,409,o),
(258,401,c),
(258,394,o),
(261,386,o),
(265,386,c),
(272,386,o),
(278,385,o),
(284,385,c),
(302,384,o),
(314,381,o),
(328,367,c),
(342,353,o),
(351,331,o),
(360,313,c),
(360,314,l),
(270,103,l),
(266,94,o),
(257,106,o),
(255,111,c),
(247,130,o),
(223,187,o),
(201,243,c),
(179,299,o),
(158,353,o),
(158,364,c),
(158,375,o),
(166,385,o),
(209,387,c),
(217,387,o),
(218,400,o),
(215,408,c),
(212,420,o),
(207,416,o),
(198,416,c),
(95,411,o),
(54,416,o),
(17,416,c),
(11,417,o),
(5,419,o),
(3,411,c),
(1,405,o),
(0,387,o),
(8,386,c),
(58,383,o),
(65,377,o),
(95,302,c),
(217,1,l),
(219,-4,l),
(221,-8,o),
(223,-10,o),
(228,-11,c),
(230,-12,o),
(234,-12,o),
(237,-12,c),
(241,-12,o),
(245,-12,o),
(248,-12,c),
(250,-12,o),
(252,-12,o),
(254,-11,c),
(261,-10,o),
(265,-5,o),
(267,2,c),
(374,254,l),
(376,258,o),
(380,268,o),
(384,261,c),
(492,0,l),
(494,-5,l),
(496,-10,o),
(498,-12,o),
(504,-13,c)
);
}
);
width = 753;
}
);
unicode = 119;
},
{
glyphname = x;
lastChange = "2023-05-15 06:06:40 +0000";
layers = (
{
hints = (
{
horizontal = 1;
place = (388, 29);
place = (388, 29);
type = Stem;
},
{
horizontal = 1;
place = (-3, 30);
place = (-3, 30);
type = Stem;
},
{
horizontal = 1;
place = (-2, 21);
target = up;
type = BottomGhost;
}
);
layerId = m01;
shapes = (
{
closed = 1;
nodes = (
(216,-5,o),
(216,25,o),
(206,26,c),
(198,26,l),
(155,30,o),
(144,38,o),
(144,55,c),
(144,74,o),
(218,150,o),
(234,168,c),
(240,175,o),
(250,167,o),
(257,158,c),
(314,82,l),
(321,72,o),
(340,54,o),
(340,42,c),
(340,33,o),
(335,26,o),
(305,26,c),
(296,26,l),
(284,26,o),
(284,-3,o),
(296,-3,c),
(355,-1,o),
(451,-1,o),
(502,-2,c),
(507,-3,o),
(511,3,o),
(511,10,c),
(511,17,o),
(508,25,o),
(503,28,c),
(460,31,o),
(441,41,o),
(413,77,c),
(373,128,o),
(396,99,o),
(292,232,c),
(339,286,l),
(377,328,l),
(419,375,o),
(433,384,o),
(493,388,c),
(500,388,o),
(505,386,o),
(508,394,c),
(510,399,o),
(509,407,o),
(507,412,c),
(504,417,o),
(501,418,o),
(495,417,c),
(454,415,o),
(381,416,o),
(305,417,c),
(300,418,o),
(294,418,o),
(293,411,c),
(292,406,o),
(292,398,o),
(294,393,c),
(297,386,o),
(300,389,o),
(306,388,c),
(343,387,o),
(350,379,o),
(350,365,c),
(350,352,o),
(338,332,o),
(323,314,c),
(309,296,o),
(292,278,o),
(284,270,c),
(274,258,o),
(270,259,o),
(262,270,c),
(261,271,o),
(241,294,o),
(223,318,c),
(204,343,o),
(187,369,o),
(187,377,c),
(187,389,o),
(213,389,o),
(221,389,c),
(230,389,l),
(235,389,o),
(237,407,o),
(231,415,c),
(229,418,o),
(223,417,o),
(220,417,c),
(173,416,o),
(79,414,o),
(26,417,c),
(11,418,o),
(14,390,o),
(21,388,c),
(78,385,o),
(90,376,o),
(138,312,c),
(221,201,l),
(132,100,l),
(78,38,o),
(63,28,o),
(15,27,c),
(9,27,o),
(7,20,o),
(7,12,c),
(8,5,o),
(11,-2,o),
(15,-2,c),
(63,-1,o),
(154,-1,o),
(206,-3,c)
);
}
);
width = 522;
}
);
unicode = 120;
},
{
glyphname = y;
lastChange = "2023-05-15 06:06:40 +0000";
layers = (
{
hints = (
{
horizontal = 1;
place = (389, 30);
place = (389, 30);
type = Stem;
},
{
horizontal = 1;
place = (-264, 21);
target = up;
type = BottomGhost;
},
{
horizontal = 1;
place = (418, -20);
target = down;
type = TopGhost;
},
{
horizontal = 1;
place = (421, -20);
target = down;
type = TopGhost;
}
);
layerId = m01;
shapes = (
{
closed = 1;
nodes = (
(141,-264,o),
(159,-257,o),
(170,-243,c),
(184,-226,o),
(195,-208,o),
(206,-182,c),
(218,-155,o),
(230,-122,o),
(248,-75,c),
(372,259,l),
(413,368,o),
(430,384,o),
(470,389,c),
(474,389,o),
(478,402,o),
(476,410,c),
(474,421,o),
(465,419,o),
(457,419,c),
(426,421,o),
(349,420,o),
(313,418,c),
(310,418,o),
(307,419,o),
(305,418,c),
(292,417,o),
(296,392,o),
(302,389,c),
(353,388,o),
(363,378,o),
(363,353,c),
(363,343,o),
(359,327,o),
(354,312,c),
(349,296,o),
(343,281,o),
(339,271,c),
(279,118,l),
(278,115,o),
(266,98,o),
(263,105,c),
(233,180,o),
(204,256,o),
(171,329,c),
(162,349,o),
(160,357,o),
(160,364,c),
(160,379,o),
(167,388,o),
(212,389,c),
(217,390,o),
(220,404,o),
(218,413,c),
(215,423,o),
(207,421,o),
(199,421,c),
(151,420,o),
(71,416,o),
(29,419,c),
(20,420,o),
(12,421,o),
(9,410,c),
(7,402,o),
(11,390,o),
(15,389,c),
(62,385,o),
(67,382,o),
(104,294,c),
(231,-8,l),
(217,-54,l),
(192,-135,o),
(167,-165,o),
(127,-176,c),
(95,-184,o),
(77,-196,o),
(77,-219,c),
(77,-243,o),
(99,-264,o),
(124,-264,c)
);
}
);
width = 488;
}
);
unicode = 121;
},
{
glyphname = yacute;
lastChange = "2023-05-15 06:06:40 +0000";
layers = (
{
hints = (
{
horizontal = 1;
place = (661, -20);
target = down;
type = TopGhost;
},
{
horizontal = 1;
place = (389, 30);
place = (389, 30);
type = Stem;
},
{
horizontal = 1;
place = (-264, 21);
target = up;
type = BottomGhost;
},
{
horizontal = 1;
place = (418, -20);
target = down;
type = TopGhost;
},
{
horizontal = 1;
place = (421, -20);
target = down;
type = TopGhost;
}
);
layerId = m01;
shapes = (
{
closed = 1;
nodes = (
(141,-264,o),
(159,-257,o),
(170,-243,c),
(184,-226,o),
(195,-208,o),
(206,-182,c),
(218,-155,o),
(230,-122,o),
(248,-75,c),
(372,259,l),
(413,368,o),
(430,384,o),
(470,389,c),
(474,389,o),
(478,402,o),
(476,410,c),
(474,421,o),
(465,419,o),
(457,419,c),
(426,421,o),
(349,420,o),
(313,418,c),
(310,418,o),
(307,419,o),
(305,418,c),
(292,417,o),
(296,392,o),
(302,389,c),
(352,388,o),
(363,378,o),
(363,353,c),
(363,343,o),
(359,327,o),
(354,312,c),
(349,296,o),
(343,281,o),
(339,271,c),
(279,118,l),
(278,115,o),
(266,98,o),
(263,105,c),
(233,179,o),
(204,256,o),
(171,329,c),
(162,349,o),
(160,357,o),
(160,364,c),
(160,379,o),
(167,388,o),
(212,389,c),
(217,390,o),
(220,404,o),
(218,413,c),
(215,422,o),
(207,421,o),
(199,421,c),
(151,420,o),
(71,416,o),
(29,419,c),
(20,420,o),
(12,421,o),
(9,410,c),
(7,402,o),
(11,390,o),
(15,389,c),
(62,385,o),
(66,382,o),
(103,294,c),
(231,-8,l),
(217,-54,l),
(192,-135,o),
(167,-165,o),
(127,-176,c),
(95,-184,o),
(77,-196,o),
(77,-219,c),
(77,-243,o),
(99,-264,o),
(124,-264,c)
);
},
{
closed = 1;
nodes = (
(358,647,l),
(358,648,o),
(359,650,o),
(359,652,c),
(361,660,o),
(352,661,o),
(345,661,c),
(256,661,l),
(249,661,o),
(242,656,o),
(238,648,c),
(189,484,l),
(184,468,o),
(208,468,o),
(215,475,c)
);
}
);
width = 491;
}
);
unicode = 253;
},
{
glyphname = ydieresis;
lastChange = "2023-05-15 06:06:40 +0000";
layers = (
{
hints = (
{
place = (275, 121);
place = (275, 121);
type = Stem;
},
{
horizontal = 1;
place = (481, 120);
place = (481, 120);
type = Stem;
},
{
place = (97, 121);
place = (97, 121);
type = Stem;
},
{
horizontal = 1;
place = (389, 30);
place = (389, 30);
type = Stem;
},
{
horizontal = 1;
place = (-264, 21);
target = up;
type = BottomGhost;
},
{
horizontal = 1;
place = (418, -20);
target = down;
type = TopGhost;
},
{
horizontal = 1;
place = (421, -20);
target = down;
type = TopGhost;
}
);
layerId = m01;
shapes = (
{
closed = 1;
nodes = (
(141,-264,o),
(159,-257,o),
(170,-243,c),
(184,-226,o),
(195,-208,o),
(206,-182,c),
(218,-155,o),
(230,-122,o),
(248,-75,c),
(372,259,l),
(413,368,o),
(430,384,o),
(470,389,c),
(474,389,o),
(478,402,o),
(476,410,c),
(474,421,o),
(465,419,o),
(457,419,c),
(426,421,o),
(349,420,o),
(313,418,c),
(310,418,o),
(307,419,o),
(305,418,c),
(292,417,o),
(296,392,o),
(302,389,c),
(352,388,o),
(363,378,o),
(363,353,c),
(363,343,o),
(359,327,o),
(354,312,c),
(349,296,o),
(343,281,o),
(339,271,c),
(279,118,l),
(278,115,o),
(266,98,o),
(263,105,c),
(233,179,o),
(204,256,o),
(171,329,c),
(162,349,o),
(160,357,o),
(160,364,c),
(160,379,o),
(167,388,o),
(212,389,c),
(217,390,o),
(220,404,o),
(218,413,c),
(215,422,o),
(207,421,o),
(199,421,c),
(151,420,o),
(71,416,o),
(29,419,c),
(20,420,o),
(12,421,o),
(9,410,c),
(7,402,o),
(11,390,o),
(15,389,c),
(62,385,o),
(66,382,o),
(103,294,c),
(231,-8,l),
(217,-54,l),
(192,-135,o),
(167,-165,o),
(127,-176,c),
(95,-184,o),
(77,-196,o),
(77,-219,c),
(77,-243,o),
(99,-264,o),
(124,-264,c)
);
},
{
closed = 1;
nodes = (
(191,481,o),
(218,507,o),
(218,541,c),
(218,574,o),
(191,601,o),
(158,601,c),
(125,601,o),
(97,574,o),
(97,541,c),
(97,507,o),
(125,481,o),
(158,481,c)
);
},
{
closed = 1;
nodes = (
(369,481,o),
(396,508,o),
(396,541,c),
(396,574,o),
(369,601,o),
(335,601,c),
(302,601,o),
(275,574,o),
(275,541,c),
(275,508,o),
(302,481,o),
(335,481,c)
);
}
);
width = 488;
}
);
unicode = 255;
},
